{"glyphs":{"0":{"ha":803,"x_min":-3,"x_max":806,"o":"m 297 0 q 138 35 205 0 q 34 129 71 70 q -3 258 -3 188 l -3 671 q 34 801 -3 742 q 138 894 71 859 q 297 929 205 929 l 506 929 q 665 894 597 929 q 769 801 732 859 q 806 671 806 742 l 806 258 q 769 129 806 188 q 665 35 732 70 q 506 0 597 0 l 297 0 m 338 307 l 519 307 l 589 315 l 632 358 l 642 416 l 642 758 l 632 815 l 589 859 l 519 868 l 338 868 l 268 859 l 225 815 l 217 758 l 217 416 l 225 358 l 269 315 l 338 307 m 342 379 l 297 386 l 288 427 l 288 751 l 294 789 l 342 796 l 515 796 l 563 789 l 570 749 l 570 424 l 559 386 l 515 379 l 342 379 z "},"1":{"ha":803,"x_min":-3,"x_max":806,"o":"m 297 0 q 138 35 205 0 q 34 129 71 70 q -3 258 -3 188 l -3 671 q 34 801 -3 742 q 138 894 71 859 q 297 929 205 929 l 506 929 q 665 894 597 929 q 769 801 732 859 q 806 671 806 742 l 806 258 q 769 129 806 188 q 665 35 732 70 q 506 0 597 0 l 297 0 m 385 309 l 457 309 l 457 869 l 396 869 l 297 835 l 297 762 l 385 793 l 385 309 z "},"2":{"ha":803,"x_min":-3,"x_max":806,"o":"m 297 0 q 138 35 205 0 q 34 129 71 70 q -3 258 -3 188 l -3 671 q 34 801 -3 742 q 138 894 71 859 q 297 929 205 929 l 506 929 q 665 894 597 929 q 769 801 732 859 q 806 671 806 742 l 806 258 q 769 129 806 188 q 665 35 732 70 q 506 0 597 0 l 297 0 m 261 307 l 602 307 l 602 378 l 289 378 l 289 494 q 292 513 291 503 q 294 533 292 524 l 343 545 l 506 545 l 585 567 l 615 596 l 625 654 l 625 758 l 615 815 l 572 859 l 503 868 l 339 868 l 269 859 l 227 815 l 216 743 l 288 736 l 296 789 l 343 796 l 498 796 l 546 789 l 553 749 l 553 664 q 548 644 549 653 q 543 624 547 634 l 498 612 l 336 612 l 257 590 l 227 559 l 218 503 l 218 350 l 261 307 z "},"3":{"ha":803,"x_min":-3,"x_max":806,"o":"m 297 0 q 138 35 205 0 q 34 129 71 70 q -3 258 -3 188 l -3 671 q 34 801 -3 742 q 138 894 71 859 q 297 929 205 929 l 506 929 q 665 894 597 929 q 769 801 732 859 q 806 671 806 742 l 806 258 q 769 129 806 188 q 665 35 732 70 q 506 0 597 0 l 297 0 m 315 306 l 496 306 l 566 314 l 608 357 l 618 415 l 618 517 l 608 574 l 592 589 l 608 606 l 618 663 l 618 757 l 608 814 l 566 857 l 496 867 l 315 867 l 246 857 l 203 814 l 191 742 l 264 734 l 273 787 l 319 794 l 492 794 l 539 787 l 546 747 l 546 665 l 536 628 l 492 621 l 303 621 l 303 557 l 493 557 l 539 551 l 546 511 l 546 422 l 536 385 l 492 378 l 317 378 l 275 385 l 264 437 l 191 431 l 203 357 l 246 314 l 315 306 z "},"4":{"ha":803,"x_min":-3,"x_max":806,"o":"m 297 0 q 138 35 205 0 q 34 129 71 70 q -3 258 -3 188 l -3 671 q 34 801 -3 742 q 138 894 71 859 q 297 929 205 929 l 506 929 q 665 894 597 929 q 769 801 732 859 q 806 671 806 742 l 806 258 q 769 129 806 188 q 665 35 732 70 q 506 0 597 0 l 297 0 m 482 307 l 554 307 l 554 439 l 659 439 l 659 511 l 554 511 l 554 868 l 482 868 l 482 510 l 371 510 l 323 517 l 317 557 l 317 868 l 245 868 l 245 547 l 254 490 l 297 447 l 367 439 l 482 439 l 482 307 z "},"5":{"ha":803,"x_min":-3,"x_max":806,"o":"m 297 0 q 138 35 205 0 q 34 129 71 70 q -3 258 -3 188 l -3 671 q 34 801 -3 742 q 138 894 71 859 q 297 929 205 929 l 506 929 q 665 894 597 929 q 769 801 732 859 q 806 671 806 742 l 806 258 q 769 129 806 188 q 665 35 732 70 q 506 0 597 0 l 297 0 m 347 307 l 514 307 l 582 315 l 625 358 l 635 415 l 635 541 l 625 597 l 582 640 l 514 650 l 347 650 l 297 642 l 297 798 l 607 798 l 607 868 l 268 868 l 225 825 l 225 570 l 294 570 l 351 578 l 510 578 l 555 571 l 563 530 l 563 422 q 558 404 562 414 q 553 386 555 395 l 513 378 l 349 378 l 306 386 l 298 418 l 221 410 l 236 357 l 279 315 l 347 307 z "},"6":{"ha":803,"x_min":-3,"x_max":806,"o":"m 297 0 q 138 35 205 0 q 34 129 71 70 q -3 258 -3 188 l -3 671 q 34 801 -3 742 q 138 894 71 859 q 297 929 205 929 l 506 929 q 665 894 597 929 q 769 801 732 859 q 806 671 806 742 l 806 258 q 769 129 806 188 q 665 35 732 70 q 506 0 597 0 l 297 0 m 347 307 l 529 307 l 597 315 l 642 358 l 652 415 l 652 542 l 642 599 l 599 642 l 529 652 l 347 652 l 297 643 l 297 751 l 304 789 l 525 789 l 596 781 l 610 851 l 530 868 l 347 868 l 278 859 l 235 815 l 225 758 l 225 415 l 235 358 l 278 315 l 347 307 m 349 378 l 307 386 l 297 427 l 297 534 l 304 572 l 351 579 l 525 579 l 572 572 l 579 532 l 579 427 l 570 386 l 525 378 l 349 378 z "},"7":{"ha":803,"x_min":-3,"x_max":806,"o":"m 297 0 q 138 35 205 0 q 34 129 71 70 q -3 258 -3 188 l -3 671 q 34 801 -3 742 q 138 894 71 859 q 297 929 205 929 l 506 929 q 665 894 597 929 q 769 801 732 859 q 806 671 806 742 l 806 258 q 769 129 806 188 q 665 35 732 70 q 506 0 597 0 l 297 0 m 318 307 l 401 307 l 578 810 l 578 868 l 285 868 l 285 796 l 496 796 l 318 307 z "},"8":{"ha":803,"x_min":-3,"x_max":806,"o":"m 297 0 q 138 35 205 0 q 34 129 71 70 q -3 258 -3 188 l -3 671 q 34 801 -3 742 q 138 894 71 859 q 297 929 205 929 l 506 929 q 665 894 597 929 q 769 801 732 859 q 806 671 806 742 l 806 258 q 769 129 806 188 q 665 35 732 70 q 506 0 597 0 l 297 0 m 335 307 l 517 307 l 585 315 l 629 358 l 639 416 l 639 519 l 629 576 l 612 593 l 629 608 l 639 665 l 639 758 l 629 815 l 586 859 l 517 868 l 335 868 l 265 859 l 222 815 l 212 758 l 212 665 l 222 608 l 239 593 l 222 576 l 212 519 l 212 416 l 222 358 l 267 315 l 335 307 m 339 629 l 294 636 l 285 676 l 285 751 l 292 789 l 339 796 l 513 796 l 559 789 l 567 751 l 567 676 l 557 636 l 513 629 l 339 629 m 339 379 l 294 386 l 285 427 l 285 513 l 292 550 l 339 557 l 513 557 l 559 550 l 567 513 l 567 427 l 557 386 l 513 379 l 339 379 z "},"9":{"ha":803,"x_min":-3,"x_max":806,"o":"m 297 0 q 138 35 205 0 q 34 129 71 70 q -3 258 -3 188 l -3 671 q 34 801 -3 742 q 138 894 71 859 q 297 929 205 929 l 506 929 q 665 894 597 929 q 769 801 732 859 q 806 671 806 742 l 806 258 q 769 129 806 188 q 665 35 732 70 q 506 0 597 0 l 297 0 m 325 307 l 509 307 l 578 317 l 621 359 l 631 416 l 631 760 l 621 817 l 578 860 l 509 868 l 326 868 l 258 860 l 214 817 l 204 760 l 204 633 l 214 576 l 257 533 l 326 524 l 509 524 l 558 532 l 558 424 l 551 386 l 331 386 l 260 395 l 246 323 l 325 307 m 331 596 l 283 603 l 277 643 l 277 749 l 286 789 l 331 798 l 507 798 l 549 789 l 558 753 l 558 640 l 551 603 l 505 596 l 331 596 z "},"A":{"ha":803,"x_min":-3,"x_max":806,"o":"m 297 0 q 138 35 205 0 q 34 129 71 70 q -3 258 -3 188 l -3 671 q 34 801 -3 742 q 138 894 71 859 q 297 929 205 929 l 506 929 q 665 894 597 929 q 769 801 732 859 q 806 671 806 742 l 806 258 q 769 129 806 188 q 665 35 732 70 q 506 0 597 0 l 297 0 m 200 307 l 281 307 l 298 514 l 549 514 l 568 307 l 646 307 l 592 812 l 550 854 l 460 868 l 387 868 l 297 854 l 256 812 l 200 307 m 304 579 l 325 786 l 391 796 l 457 796 l 521 786 l 543 579 l 304 579 z "},"Á":{"ha":803,"x_min":-3,"x_max":806,"o":"m 297 0 q 138 35 205 0 q 34 129 71 70 q -3 258 -3 188 l -3 671 q 34 801 -3 742 q 138 894 71 859 q 297 929 205 929 l 506 929 q 665 894 597 929 q 769 801 732 859 q 806 671 806 742 l 806 258 q 769 129 806 188 q 665 35 732 70 q 506 0 597 0 l 297 0 m 200 307 l 281 307 l 298 514 l 549 514 l 568 307 l 646 307 l 592 812 l 550 854 l 460 868 l 387 868 l 297 854 l 256 812 l 200 307 m 304 579 l 325 786 l 391 796 l 457 796 l 521 786 l 543 579 l 304 579 m 348 877 q 291 921 317 890 q 266 992 266 951 q 270 1025 266 1002 q 290 1102 275 1049 q 336 1251 305 1155 q 397 1311 353 1294 q 499 1328 441 1328 q 596 1312 550 1328 q 670 1266 642 1297 q 699 1192 699 1236 q 670 1101 699 1151 l 563 918 q 548 895 555 905 q 534 877 541 884 l 348 877 m 401 983 l 448 983 l 551 1210 l 469 1210 l 401 983 z "},"Ă":{"ha":803,"x_min":-3,"x_max":806,"o":"m 297 0 q 138 35 205 0 q 34 129 71 70 q -3 258 -3 188 l -3 671 q 34 801 -3 742 q 138 894 71 859 q 297 929 205 929 l 506 929 q 665 894 597 929 q 769 801 732 859 q 806 671 806 742 l 806 258 q 769 129 806 188 q 665 35 732 70 q 506 0 597 0 l 297 0 m 200 307 l 281 307 l 298 514 l 549 514 l 568 307 l 646 307 l 592 812 l 550 854 l 460 868 l 387 868 l 297 854 l 256 812 l 200 307 m 304 579 l 325 786 l 391 796 l 457 796 l 521 786 l 543 579 l 304 579 m 251 877 q 163 958 193 911 q 133 1066 133 1004 q 170 1174 133 1125 q 274 1253 207 1223 q 433 1282 341 1282 q 592 1253 525 1282 q 696 1174 659 1223 q 733 1066 733 1125 q 703 958 733 1004 q 615 877 672 911 l 251 877 m 410 964 l 458 964 l 511 972 l 551 1013 l 559 1080 l 498 1080 l 491 1035 l 451 1025 l 415 1025 l 377 1032 l 370 1080 l 309 1080 l 317 1012 l 357 972 l 410 964 z "},"Ǎ":{"ha":803,"x_min":-3,"x_max":806,"o":"m 297 0 q 138 35 205 0 q 34 129 71 70 q -3 258 -3 188 l -3 671 q 34 801 -3 742 q 138 894 71 859 q 297 929 205 929 l 506 929 q 665 894 597 929 q 769 801 732 859 q 806 671 806 742 l 806 258 q 769 129 806 188 q 665 35 732 70 q 506 0 597 0 l 297 0 m 200 307 l 281 307 l 298 514 l 549 514 l 568 307 l 646 307 l 592 812 l 550 854 l 460 868 l 387 868 l 297 854 l 256 812 l 200 307 m 304 579 l 325 786 l 391 796 l 457 796 l 521 786 l 543 579 l 304 579 m 259 904 q 221 1014 240 958 q 191 1121 203 1071 q 178 1204 178 1171 q 214 1291 178 1252 q 336 1331 249 1331 q 391 1320 370 1331 q 430 1291 412 1309 q 476 1321 451 1310 q 538 1332 501 1332 q 646 1292 613 1332 q 678 1197 678 1252 q 665 1106 678 1160 q 634 998 652 1053 q 600 904 616 943 l 259 904 m 398 982 l 459 982 l 548 1211 l 492 1211 l 429 1013 l 364 1211 l 309 1211 l 398 982 z "},"Â":{"ha":803,"x_min":-3,"x_max":806,"o":"m 297 0 q 138 35 205 0 q 34 129 71 70 q -3 258 -3 188 l -3 671 q 34 801 -3 742 q 138 894 71 859 q 297 929 205 929 l 506 929 q 665 894 597 929 q 769 801 732 859 q 806 671 806 742 l 806 258 q 769 129 806 188 q 665 35 732 70 q 506 0 597 0 l 297 0 m 200 307 l 281 307 l 298 514 l 549 514 l 568 307 l 646 307 l 592 812 l 550 854 l 460 868 l 387 868 l 297 854 l 256 812 l 200 307 m 304 579 l 325 786 l 391 796 l 457 796 l 521 786 l 543 579 l 304 579 m 213 877 q 182 921 192 895 q 172 975 172 947 q 189 1059 172 1008 q 231 1166 205 1109 q 280 1276 256 1223 q 334 1328 300 1310 q 425 1345 368 1345 q 515 1325 481 1345 q 573 1255 549 1305 q 622 1145 601 1197 q 655 1054 640 1099 q 671 983 671 1009 q 625 877 671 913 l 213 877 m 302 983 l 357 983 l 422 1181 l 486 983 l 541 983 l 452 1212 l 391 1212 l 302 983 z "},"Ȁ":{"ha":803,"x_min":-3,"x_max":806,"o":"m 297 0 q 138 35 205 0 q 34 129 71 70 q -3 258 -3 188 l -3 671 q 34 801 -3 742 q 138 894 71 859 q 297 929 205 929 l 506 929 q 665 894 597 929 q 769 801 732 859 q 806 671 806 742 l 806 258 q 769 129 806 188 q 665 35 732 70 q 506 0 597 0 l 297 0 m 200 307 l 281 307 l 298 514 l 549 514 l 568 307 l 646 307 l 592 812 l 550 854 l 460 868 l 387 868 l 297 854 l 256 812 l 200 307 m 304 579 l 325 786 l 391 796 l 457 796 l 521 786 l 543 579 l 304 579 m 231 877 l 60 1131 l 165 1329 l 228 1329 q 276 1320 256 1325 q 311 1306 296 1316 l 322 1329 l 385 1329 q 446 1317 422 1325 q 487 1290 470 1308 q 522 1238 504 1272 l 644 1012 q 648 968 648 989 q 616 877 648 911 l 231 877 m 326 968 l 361 968 l 239 1195 l 176 1195 l 326 968 m 484 968 l 518 968 l 396 1195 l 333 1195 l 484 968 z "},"Ä":{"ha":803,"x_min":-3,"x_max":806,"o":"m 297 0 q 138 35 205 0 q 34 129 71 70 q -3 258 -3 188 l -3 671 q 34 801 -3 742 q 138 894 71 859 q 297 929 205 929 l 506 929 q 665 894 597 929 q 769 801 732 859 q 806 671 806 742 l 806 258 q 769 129 806 188 q 665 35 732 70 q 506 0 597 0 l 297 0 m 200 307 l 281 307 l 298 514 l 549 514 l 568 307 l 646 307 l 592 812 l 550 854 l 460 868 l 387 868 l 297 854 l 256 812 l 200 307 m 304 579 l 325 786 l 391 796 l 457 796 l 521 786 l 543 579 l 304 579 m 239 890 q 172 963 195 920 q 149 1060 149 1007 q 182 1160 149 1114 q 277 1235 216 1206 q 421 1263 338 1263 q 566 1235 505 1263 q 661 1160 627 1206 q 694 1060 694 1114 q 602 890 694 949 l 239 890 m 283 1003 l 372 1003 l 372 1090 l 283 1090 l 283 1003 m 460 1003 l 549 1003 l 549 1090 l 460 1090 l 460 1003 z "},"À":{"ha":803,"x_min":-3,"x_max":806,"o":"m 297 0 q 138 35 205 0 q 34 129 71 70 q -3 258 -3 188 l -3 671 q 34 801 -3 742 q 138 894 71 859 q 297 929 205 929 l 506 929 q 665 894 597 929 q 769 801 732 859 q 806 671 806 742 l 806 258 q 769 129 806 188 q 665 35 732 70 q 506 0 597 0 l 297 0 m 200 307 l 281 307 l 298 514 l 549 514 l 568 307 l 646 307 l 592 812 l 550 854 l 460 868 l 387 868 l 297 854 l 256 812 l 200 307 m 304 579 l 325 786 l 391 796 l 457 796 l 521 786 l 543 579 l 304 579 m 306 877 q 292 895 298 884 q 277 918 285 905 l 170 1101 q 140 1192 139 1153 q 169 1266 140 1236 q 244 1312 198 1297 q 340 1328 290 1328 q 443 1311 398 1328 q 503 1251 487 1294 q 549 1102 534 1155 q 569 1025 564 1049 q 574 992 574 1002 q 549 921 574 951 q 492 877 524 890 l 306 877 m 392 983 l 439 983 l 371 1210 l 289 1210 l 392 983 z "},"Ȃ":{"ha":803,"x_min":-3,"x_max":806,"o":"m 297 0 q 138 35 205 0 q 34 129 71 70 q -3 258 -3 188 l -3 671 q 34 801 -3 742 q 138 894 71 859 q 297 929 205 929 l 506 929 q 665 894 597 929 q 769 801 732 859 q 806 671 806 742 l 806 258 q 769 129 806 188 q 665 35 732 70 q 506 0 597 0 l 297 0 m 200 307 l 281 307 l 298 514 l 549 514 l 568 307 l 646 307 l 592 812 l 550 854 l 460 868 l 387 868 l 297 854 l 256 812 l 200 307 m 304 579 l 325 786 l 391 796 l 457 796 l 521 786 l 543 579 l 304 579 m 239 877 q 152 958 182 911 q 121 1066 121 1004 q 158 1174 121 1125 q 262 1253 195 1223 q 421 1282 330 1282 q 581 1253 513 1282 q 685 1174 648 1223 q 722 1066 722 1125 q 691 958 722 1004 q 604 877 661 911 l 239 877 m 296 986 l 357 986 l 364 1033 l 402 1040 l 438 1040 l 478 1030 l 486 986 l 547 986 l 538 1053 l 498 1093 l 445 1101 l 397 1101 l 344 1093 l 304 1054 l 296 986 z "},"Ā":{"ha":803,"x_min":-3,"x_max":806,"o":"m 297 0 q 138 35 205 0 q 34 129 71 70 q -3 258 -3 188 l -3 671 q 34 801 -3 742 q 138 894 71 859 q 297 929 205 929 l 506 929 q 665 894 597 929 q 769 801 732 859 q 806 671 806 742 l 806 258 q 769 129 806 188 q 665 35 732 70 q 506 0 597 0 l 297 0 m 200 307 l 281 307 l 298 514 l 549 514 l 568 307 l 646 307 l 592 812 l 550 854 l 460 868 l 387 868 l 297 854 l 256 812 l 200 307 m 304 579 l 325 786 l 391 796 l 457 796 l 521 786 l 543 579 l 304 579 m 252 877 q 164 958 195 911 q 134 1066 134 1004 q 171 1174 134 1125 q 275 1253 208 1223 q 434 1282 342 1282 q 593 1253 526 1282 q 697 1174 661 1223 q 734 1066 734 1125 q 704 958 734 1004 q 616 877 673 911 l 252 877 m 297 1019 l 552 1019 l 552 1092 l 297 1092 l 297 1019 z "},"Ą":{"ha":803,"x_min":-3,"x_max":806,"o":"m 297 0 q 138 35 205 0 q 34 129 71 70 q -3 258 -3 188 l -3 671 q 34 801 -3 742 q 138 894 71 859 q 297 929 205 929 l 506 929 q 665 894 597 929 q 769 801 732 859 q 806 671 806 742 l 806 258 q 769 129 806 188 q 665 35 732 70 q 506 0 597 0 l 297 0 m 642 89 l 642 150 l 567 157 l 557 197 l 564 221 l 639 307 l 646 307 l 592 812 l 550 854 l 460 868 l 387 868 l 297 854 l 256 812 l 200 307 l 281 307 l 298 514 l 549 514 l 568 307 l 592 307 l 543 281 l 505 241 l 496 191 l 505 138 l 545 97 l 642 89 m 304 579 l 325 786 l 391 796 l 457 796 l 521 786 l 543 579 l 304 579 z "},"Å":{"ha":803,"x_min":-3,"x_max":806,"o":"m 297 0 q 138 35 205 0 q 34 129 71 70 q -3 258 -3 188 l -3 671 q 34 801 -3 742 q 138 894 71 859 q 297 929 205 929 l 506 929 q 665 894 597 929 q 769 801 732 859 q 806 671 806 742 l 806 258 q 769 129 806 188 q 665 35 732 70 q 506 0 597 0 l 297 0 m 200 307 l 281 307 l 298 514 l 549 514 l 568 307 l 646 307 l 592 812 l 550 854 l 460 868 l 387 868 l 297 854 l 256 812 l 200 307 m 304 579 l 325 786 l 391 796 l 457 796 l 521 786 l 543 579 l 304 579 m 219 890 q 174 970 189 925 q 159 1064 159 1015 q 191 1194 159 1135 q 280 1288 222 1253 q 418 1322 338 1322 q 554 1288 496 1322 q 644 1194 612 1253 q 676 1064 676 1135 q 616 890 676 963 l 219 890 m 394 982 l 440 982 l 488 990 l 528 1028 l 533 1086 l 528 1153 l 488 1189 l 440 1199 l 394 1199 l 344 1189 l 308 1153 l 300 1093 l 308 1027 l 344 990 l 394 982 m 397 1036 l 359 1043 l 353 1090 l 359 1138 l 399 1145 l 436 1145 l 473 1135 l 480 1090 l 473 1046 l 433 1036 l 397 1036 z "},"Ã":{"ha":803,"x_min":-3,"x_max":806,"o":"m 297 0 q 138 35 205 0 q 34 129 71 70 q -3 258 -3 188 l -3 671 q 34 801 -3 742 q 138 894 71 859 q 297 929 205 929 l 506 929 q 665 894 597 929 q 769 801 732 859 q 806 671 806 742 l 806 258 q 769 129 806 188 q 665 35 732 70 q 506 0 597 0 l 297 0 m 200 307 l 281 307 l 298 514 l 549 514 l 568 307 l 646 307 l 592 812 l 550 854 l 460 868 l 387 868 l 297 854 l 256 812 l 200 307 m 304 579 l 325 786 l 391 796 l 457 796 l 521 786 l 543 579 l 304 579 m 228 890 q 138 1080 138 964 q 175 1209 138 1150 q 279 1302 212 1267 q 437 1337 346 1337 q 597 1302 530 1337 q 701 1209 664 1267 q 738 1080 738 1150 q 649 890 738 966 l 228 890 m 521 971 q 559 986 547 971 q 574 1023 571 1002 q 578 1060 578 1044 l 578 1082 l 517 1082 q 500 1041 507 1052 q 484 1031 493 1031 q 456 1042 473 1031 q 410 1064 439 1053 q 334 1075 381 1075 q 295 1057 307 1075 q 280 1017 283 1039 q 277 982 277 995 l 277 974 l 338 974 q 350 1009 343 1000 q 367 1019 357 1019 q 400 1007 380 1019 q 449 983 420 995 q 521 971 478 971 z "},"Æ":{"ha":803,"x_min":-3,"x_max":806,"o":"m 297 0 q 138 35 205 0 q 34 129 71 70 q -3 258 -3 188 l -3 671 q 34 801 -3 742 q 138 894 71 859 q 297 929 205 929 l 506 929 q 665 894 597 929 q 769 801 732 859 q 806 671 806 742 l 806 258 q 769 129 806 188 q 665 35 732 70 q 506 0 597 0 l 297 0 m 168 311 l 240 311 l 252 400 l 391 400 l 391 311 l 640 311 l 640 382 l 463 382 l 463 555 l 640 555 l 640 627 l 463 627 l 463 798 l 640 798 l 640 869 l 355 869 l 265 856 l 224 814 l 168 311 m 260 472 l 293 787 q 326 792 312 789 q 358 798 340 795 l 391 798 l 391 472 l 260 472 z "},"B":{"ha":803,"x_min":-3,"x_max":806,"o":"m 297 0 q 138 35 205 0 q 34 129 71 70 q -3 258 -3 188 l -3 671 q 34 801 -3 742 q 138 894 71 859 q 297 929 205 929 l 506 929 q 665 894 597 929 q 769 801 732 859 q 806 671 806 742 l 806 258 q 769 129 806 188 q 665 35 732 70 q 506 0 597 0 l 297 0 m 208 307 l 493 307 l 563 315 l 606 358 l 615 415 l 615 522 l 602 572 l 548 596 l 602 616 l 615 668 l 615 758 l 606 815 l 563 859 l 493 868 l 208 868 l 208 307 m 281 629 l 281 796 l 489 796 l 536 789 l 534 749 l 543 673 l 534 637 l 489 629 l 281 629 m 281 379 l 281 558 l 490 558 l 536 553 l 543 513 l 543 422 l 534 386 l 489 379 l 281 379 z "},"C":{"ha":803,"x_min":-3,"x_max":806,"o":"m 297 0 q 138 35 205 0 q 34 129 71 70 q -3 258 -3 188 l -3 671 q 34 801 -3 742 q 138 894 71 859 q 297 929 205 929 l 506 929 q 665 894 597 929 q 769 801 732 859 q 806 671 806 742 l 806 258 q 769 129 806 188 q 665 35 732 70 q 506 0 597 0 l 297 0 m 334 307 l 497 307 l 576 317 l 559 390 l 496 379 l 338 379 l 293 386 l 283 427 l 283 753 l 290 790 l 338 798 l 493 798 l 563 786 l 576 859 l 497 868 l 334 868 l 264 860 l 221 817 l 211 760 l 211 415 l 221 358 l 265 315 l 334 307 z "},"Ć":{"ha":803,"x_min":-3,"x_max":806,"o":"m 297 0 q 138 35 205 0 q 34 129 71 70 q -3 258 -3 188 l -3 671 q 34 801 -3 742 q 138 894 71 859 q 297 929 205 929 l 506 929 q 665 894 597 929 q 769 801 732 859 q 806 671 806 742 l 806 258 q 769 129 806 188 q 665 35 732 70 q 506 0 597 0 l 297 0 m 334 307 l 497 307 l 576 317 l 559 390 l 496 379 l 338 379 l 293 386 l 283 427 l 283 753 l 290 790 l 338 798 l 493 798 l 563 786 l 576 859 l 497 868 l 334 868 l 264 860 l 221 817 l 211 760 l 211 415 l 221 358 l 265 315 l 334 307 m 348 877 q 291 921 317 890 q 266 992 266 951 q 270 1025 266 1002 q 290 1102 275 1049 q 336 1251 305 1155 q 397 1311 353 1294 q 499 1328 441 1328 q 596 1312 550 1328 q 670 1266 642 1297 q 699 1192 699 1236 q 670 1101 699 1151 l 563 918 q 548 895 555 905 q 534 877 541 884 l 348 877 m 401 983 l 448 983 l 551 1210 l 469 1210 l 401 983 z "},"Č":{"ha":803,"x_min":-3,"x_max":806,"o":"m 297 0 q 138 35 205 0 q 34 129 71 70 q -3 258 -3 188 l -3 671 q 34 801 -3 742 q 138 894 71 859 q 297 929 205 929 l 506 929 q 665 894 597 929 q 769 801 732 859 q 806 671 806 742 l 806 258 q 769 129 806 188 q 665 35 732 70 q 506 0 597 0 l 297 0 m 334 307 l 497 307 l 576 317 l 559 390 l 496 379 l 338 379 l 293 386 l 283 427 l 283 753 l 290 790 l 338 798 l 493 798 l 563 786 l 576 859 l 497 868 l 334 868 l 264 860 l 221 817 l 211 760 l 211 415 l 221 358 l 265 315 l 334 307 m 259 904 q 221 1014 240 958 q 191 1121 203 1071 q 178 1204 178 1171 q 214 1291 178 1252 q 336 1331 249 1331 q 391 1320 370 1331 q 430 1291 412 1309 q 476 1321 451 1310 q 538 1332 501 1332 q 646 1292 613 1332 q 678 1197 678 1252 q 665 1106 678 1160 q 634 998 652 1053 q 600 904 616 943 l 259 904 m 398 982 l 459 982 l 548 1211 l 492 1211 l 429 1013 l 364 1211 l 309 1211 l 398 982 z "},"Ç":{"ha":803,"x_min":-3,"x_max":806,"o":"m 297 0 q 138 35 205 0 q 34 129 71 70 q -3 258 -3 188 l -3 671 q 34 801 -3 742 q 138 894 71 859 q 297 929 205 929 l 506 929 q 665 894 597 929 q 769 801 732 859 q 806 671 806 742 l 806 258 q 769 129 806 188 q 665 35 732 70 q 506 0 597 0 l 297 0 m 451 90 l 451 151 l 376 157 l 366 197 l 373 221 l 448 228 l 448 307 l 497 307 l 576 317 l 559 390 l 496 379 l 338 379 l 293 386 l 283 427 l 283 753 l 290 790 l 338 798 l 493 798 l 563 786 l 576 859 l 497 868 l 334 868 l 264 860 l 221 817 l 211 760 l 211 415 l 221 358 l 265 315 l 334 307 l 401 307 l 401 281 l 353 281 l 313 242 l 305 203 l 305 191 l 313 138 l 354 98 l 451 90 z "},"Ĉ":{"ha":803,"x_min":-3,"x_max":806,"o":"m 297 0 q 138 35 205 0 q 34 129 71 70 q -3 258 -3 188 l -3 671 q 34 801 -3 742 q 138 894 71 859 q 297 929 205 929 l 506 929 q 665 894 597 929 q 769 801 732 859 q 806 671 806 742 l 806 258 q 769 129 806 188 q 665 35 732 70 q 506 0 597 0 l 297 0 m 334 307 l 497 307 l 576 317 l 559 390 l 496 379 l 338 379 l 293 386 l 283 427 l 283 753 l 290 790 l 338 798 l 493 798 l 563 786 l 576 859 l 497 868 l 334 868 l 264 860 l 221 817 l 211 760 l 211 415 l 221 358 l 265 315 l 334 307 m 213 877 q 182 921 192 895 q 172 975 172 947 q 189 1059 172 1008 q 231 1166 205 1109 q 280 1276 256 1223 q 334 1328 300 1310 q 425 1345 368 1345 q 515 1325 481 1345 q 573 1255 549 1305 q 622 1145 601 1197 q 655 1054 640 1099 q 671 983 671 1009 q 625 877 671 913 l 213 877 m 302 983 l 357 983 l 422 1181 l 486 983 l 541 983 l 452 1212 l 391 1212 l 302 983 z "},"Ċ":{"ha":803,"x_min":-3,"x_max":806,"o":"m 297 0 q 138 35 205 0 q 34 129 71 70 q -3 258 -3 188 l -3 671 q 34 801 -3 742 q 138 894 71 859 q 297 929 205 929 l 506 929 q 665 894 597 929 q 769 801 732 859 q 806 671 806 742 l 806 258 q 769 129 806 188 q 665 35 732 70 q 506 0 597 0 l 297 0 m 334 307 l 497 307 l 576 317 l 559 390 l 496 379 l 338 379 l 293 386 l 283 427 l 283 753 l 290 790 l 338 798 l 493 798 l 563 786 l 576 859 l 497 868 l 334 868 l 264 860 l 221 817 l 211 760 l 211 415 l 221 358 l 265 315 l 334 307 m 194 877 q 146 958 163 907 q 129 1054 129 1010 q 166 1162 129 1113 q 270 1241 203 1211 q 429 1270 337 1270 q 588 1241 521 1270 q 692 1162 655 1211 q 729 1054 729 1113 q 713 957 729 1001 q 665 877 696 913 l 194 877 m 382 994 l 471 994 l 471 1081 l 382 1081 l 382 994 z "},"D":{"ha":803,"x_min":-3,"x_max":806,"o":"m 297 0 q 138 35 205 0 q 34 129 71 70 q -3 258 -3 188 l -3 671 q 34 801 -3 742 q 138 894 71 859 q 297 929 205 929 l 506 929 q 665 894 597 929 q 769 801 732 859 q 806 671 806 742 l 806 258 q 769 129 806 188 q 665 35 732 70 q 506 0 597 0 l 297 0 m 222 307 l 525 307 l 595 315 l 637 358 l 647 416 l 647 758 l 637 815 l 595 859 l 525 868 l 222 868 l 222 307 m 293 379 l 293 796 l 521 796 l 568 789 l 575 749 l 575 424 l 566 386 l 521 379 l 293 379 z "},"Ď":{"ha":803,"x_min":-3,"x_max":806,"o":"m 297 0 q 138 35 205 0 q 34 129 71 70 q -3 258 -3 188 l -3 671 q 34 801 -3 742 q 138 894 71 859 q 297 929 205 929 l 506 929 q 665 894 597 929 q 769 801 732 859 q 806 671 806 742 l 806 258 q 769 129 806 188 q 665 35 732 70 q 506 0 597 0 l 297 0 m 222 307 l 525 307 l 595 315 l 637 358 l 647 416 l 647 758 l 637 815 l 595 859 l 525 868 l 222 868 l 222 307 m 293 379 l 293 796 l 521 796 l 568 789 l 575 749 l 575 424 l 566 386 l 521 379 l 293 379 m 259 904 q 221 1014 240 958 q 191 1121 203 1071 q 178 1204 178 1171 q 214 1291 178 1252 q 336 1331 249 1331 q 391 1320 370 1331 q 430 1291 412 1309 q 476 1321 451 1310 q 538 1332 501 1332 q 646 1292 613 1332 q 678 1197 678 1252 q 665 1106 678 1160 q 634 998 652 1053 q 600 904 616 943 l 259 904 m 398 982 l 459 982 l 548 1211 l 492 1211 l 429 1013 l 364 1211 l 309 1211 l 398 982 z "},"Đ":{"ha":803,"x_min":-3,"x_max":806,"o":"m 297 0 q 138 35 205 0 q 34 129 71 70 q -3 258 -3 188 l -3 671 q 34 801 -3 742 q 138 894 71 859 q 297 929 205 929 l 506 929 q 665 894 597 929 q 769 801 732 859 q 806 671 806 742 l 806 258 q 769 129 806 188 q 665 35 732 70 q 506 0 597 0 l 297 0 m 222 307 l 525 307 l 595 315 l 637 358 l 647 416 l 647 758 l 637 815 l 595 859 l 525 868 l 222 868 l 222 615 l 174 615 l 174 571 l 222 571 l 222 307 m 293 379 l 293 571 l 350 571 l 350 615 l 293 615 l 293 796 l 521 796 l 568 789 l 575 749 l 575 424 l 566 386 l 521 379 l 293 379 z "},"Ð":{"ha":803,"x_min":-3,"x_max":806,"o":"m 297 0 q 138 35 205 0 q 34 129 71 70 q -3 258 -3 188 l -3 671 q 34 801 -3 742 q 138 894 71 859 q 297 929 205 929 l 506 929 q 665 894 597 929 q 769 801 732 859 q 806 671 806 742 l 806 258 q 769 129 806 188 q 665 35 732 70 q 506 0 597 0 l 297 0 m 222 307 l 525 307 l 595 315 l 637 358 l 647 416 l 647 758 l 637 815 l 595 859 l 525 868 l 222 868 l 222 615 l 174 615 l 174 571 l 222 571 l 222 307 m 293 379 l 293 571 l 350 571 l 350 615 l 293 615 l 293 796 l 521 796 l 568 789 l 575 749 l 575 424 l 566 386 l 521 379 l 293 379 z "},"E":{"ha":803,"x_min":-3,"x_max":806,"o":"m 297 0 q 138 35 205 0 q 34 129 71 70 q -3 258 -3 188 l -3 671 q 34 801 -3 742 q 138 894 71 859 q 297 929 205 929 l 506 929 q 665 894 597 929 q 769 801 732 859 q 806 671 806 742 l 806 258 q 769 129 806 188 q 665 35 732 70 q 506 0 597 0 l 297 0 m 273 307 l 614 307 l 614 379 l 343 379 l 343 551 l 570 551 l 570 623 l 343 623 l 343 796 l 604 796 l 604 868 l 273 868 l 273 307 z "},"É":{"ha":803,"x_min":-3,"x_max":806,"o":"m 297 0 q 138 35 205 0 q 34 129 71 70 q -3 258 -3 188 l -3 671 q 34 801 -3 742 q 138 894 71 859 q 297 929 205 929 l 506 929 q 665 894 597 929 q 769 801 732 859 q 806 671 806 742 l 806 258 q 769 129 806 188 q 665 35 732 70 q 506 0 597 0 l 297 0 m 273 307 l 614 307 l 614 379 l 343 379 l 343 551 l 570 551 l 570 623 l 343 623 l 343 796 l 604 796 l 604 868 l 273 868 l 273 307 m 348 877 q 291 921 317 890 q 266 992 266 951 q 270 1025 266 1002 q 290 1102 275 1049 q 336 1251 305 1155 q 397 1311 353 1294 q 499 1328 441 1328 q 596 1312 550 1328 q 670 1266 642 1297 q 699 1192 699 1236 q 670 1101 699 1151 l 563 918 q 548 895 555 905 q 534 877 541 884 l 348 877 m 401 983 l 448 983 l 551 1210 l 469 1210 l 401 983 z "},"Ĕ":{"ha":803,"x_min":-3,"x_max":806,"o":"m 297 0 q 138 35 205 0 q 34 129 71 70 q -3 258 -3 188 l -3 671 q 34 801 -3 742 q 138 894 71 859 q 297 929 205 929 l 506 929 q 665 894 597 929 q 769 801 732 859 q 806 671 806 742 l 806 258 q 769 129 806 188 q 665 35 732 70 q 506 0 597 0 l 297 0 m 273 307 l 614 307 l 614 379 l 343 379 l 343 551 l 570 551 l 570 623 l 343 623 l 343 796 l 604 796 l 604 868 l 273 868 l 273 307 m 251 877 q 163 958 193 911 q 133 1066 133 1004 q 170 1174 133 1125 q 274 1253 207 1223 q 433 1282 341 1282 q 592 1253 525 1282 q 696 1174 659 1223 q 733 1066 733 1125 q 703 958 733 1004 q 615 877 672 911 l 251 877 m 410 964 l 458 964 l 511 972 l 551 1013 l 559 1080 l 498 1080 l 491 1035 l 451 1025 l 415 1025 l 377 1032 l 370 1080 l 309 1080 l 317 1012 l 357 972 l 410 964 z "},"Ě":{"ha":803,"x_min":-3,"x_max":806,"o":"m 297 0 q 138 35 205 0 q 34 129 71 70 q -3 258 -3 188 l -3 671 q 34 801 -3 742 q 138 894 71 859 q 297 929 205 929 l 506 929 q 665 894 597 929 q 769 801 732 859 q 806 671 806 742 l 806 258 q 769 129 806 188 q 665 35 732 70 q 506 0 597 0 l 297 0 m 273 307 l 614 307 l 614 379 l 343 379 l 343 551 l 570 551 l 570 623 l 343 623 l 343 796 l 604 796 l 604 868 l 273 868 l 273 307 m 259 904 q 221 1014 240 958 q 191 1121 203 1071 q 178 1204 178 1171 q 214 1291 178 1252 q 336 1331 249 1331 q 391 1320 370 1331 q 430 1291 412 1309 q 476 1321 451 1310 q 538 1332 501 1332 q 646 1292 613 1332 q 678 1197 678 1252 q 665 1106 678 1160 q 634 998 652 1053 q 600 904 616 943 l 259 904 m 398 982 l 459 982 l 548 1211 l 492 1211 l 429 1013 l 364 1211 l 309 1211 l 398 982 z "},"Ê":{"ha":803,"x_min":-3,"x_max":806,"o":"m 297 0 q 138 35 205 0 q 34 129 71 70 q -3 258 -3 188 l -3 671 q 34 801 -3 742 q 138 894 71 859 q 297 929 205 929 l 506 929 q 665 894 597 929 q 769 801 732 859 q 806 671 806 742 l 806 258 q 769 129 806 188 q 665 35 732 70 q 506 0 597 0 l 297 0 m 273 307 l 614 307 l 614 379 l 343 379 l 343 551 l 570 551 l 570 623 l 343 623 l 343 796 l 604 796 l 604 868 l 273 868 l 273 307 m 213 877 q 182 921 192 895 q 172 975 172 947 q 189 1059 172 1008 q 231 1166 205 1109 q 280 1276 256 1223 q 334 1328 300 1310 q 425 1345 368 1345 q 515 1325 481 1345 q 573 1255 549 1305 q 622 1145 601 1197 q 655 1054 640 1099 q 671 983 671 1009 q 625 877 671 913 l 213 877 m 302 983 l 357 983 l 422 1181 l 486 983 l 541 983 l 452 1212 l 391 1212 l 302 983 z "},"Ȅ":{"ha":803,"x_min":-3,"x_max":806,"o":"m 297 0 q 138 35 205 0 q 34 129 71 70 q -3 258 -3 188 l -3 671 q 34 801 -3 742 q 138 894 71 859 q 297 929 205 929 l 506 929 q 665 894 597 929 q 769 801 732 859 q 806 671 806 742 l 806 258 q 769 129 806 188 q 665 35 732 70 q 506 0 597 0 l 297 0 m 273 307 l 614 307 l 614 379 l 343 379 l 343 551 l 570 551 l 570 623 l 343 623 l 343 796 l 604 796 l 604 868 l 273 868 l 273 307 m 231 877 l 60 1131 l 165 1329 l 228 1329 q 276 1320 256 1325 q 311 1306 296 1316 l 322 1329 l 385 1329 q 446 1317 422 1325 q 487 1290 470 1308 q 522 1238 504 1272 l 644 1012 q 648 968 648 989 q 616 877 648 911 l 231 877 m 326 968 l 361 968 l 239 1195 l 176 1195 l 326 968 m 484 968 l 518 968 l 396 1195 l 333 1195 l 484 968 z "},"Ë":{"ha":803,"x_min":-3,"x_max":806,"o":"m 297 0 q 138 35 205 0 q 34 129 71 70 q -3 258 -3 188 l -3 671 q 34 801 -3 742 q 138 894 71 859 q 297 929 205 929 l 506 929 q 665 894 597 929 q 769 801 732 859 q 806 671 806 742 l 806 258 q 769 129 806 188 q 665 35 732 70 q 506 0 597 0 l 297 0 m 273 307 l 614 307 l 614 379 l 343 379 l 343 551 l 570 551 l 570 623 l 343 623 l 343 796 l 604 796 l 604 868 l 273 868 l 273 307 m 239 890 q 172 963 195 920 q 149 1060 149 1007 q 182 1160 149 1114 q 277 1235 216 1206 q 421 1263 338 1263 q 566 1235 505 1263 q 661 1160 627 1206 q 694 1060 694 1114 q 602 890 694 949 l 239 890 m 283 1003 l 372 1003 l 372 1090 l 283 1090 l 283 1003 m 460 1003 l 549 1003 l 549 1090 l 460 1090 l 460 1003 z "},"Ė":{"ha":803,"x_min":-3,"x_max":806,"o":"m 297 0 q 138 35 205 0 q 34 129 71 70 q -3 258 -3 188 l -3 671 q 34 801 -3 742 q 138 894 71 859 q 297 929 205 929 l 506 929 q 665 894 597 929 q 769 801 732 859 q 806 671 806 742 l 806 258 q 769 129 806 188 q 665 35 732 70 q 506 0 597 0 l 297 0 m 273 307 l 614 307 l 614 379 l 343 379 l 343 551 l 570 551 l 570 623 l 343 623 l 343 796 l 604 796 l 604 868 l 273 868 l 273 307 m 194 877 q 146 958 163 907 q 129 1054 129 1010 q 166 1162 129 1113 q 270 1241 203 1211 q 429 1270 337 1270 q 588 1241 521 1270 q 692 1162 655 1211 q 729 1054 729 1113 q 713 957 729 1001 q 665 877 696 913 l 194 877 m 382 994 l 471 994 l 471 1081 l 382 1081 l 382 994 z "},"È":{"ha":803,"x_min":-3,"x_max":806,"o":"m 297 0 q 138 35 205 0 q 34 129 71 70 q -3 258 -3 188 l -3 671 q 34 801 -3 742 q 138 894 71 859 q 297 929 205 929 l 506 929 q 665 894 597 929 q 769 801 732 859 q 806 671 806 742 l 806 258 q 769 129 806 188 q 665 35 732 70 q 506 0 597 0 l 297 0 m 273 307 l 614 307 l 614 379 l 343 379 l 343 551 l 570 551 l 570 623 l 343 623 l 343 796 l 604 796 l 604 868 l 273 868 l 273 307 m 306 877 q 292 895 298 884 q 277 918 285 905 l 170 1101 q 140 1192 139 1153 q 169 1266 140 1236 q 244 1312 198 1297 q 340 1328 290 1328 q 443 1311 398 1328 q 503 1251 487 1294 q 549 1102 534 1155 q 569 1025 564 1049 q 574 992 574 1002 q 549 921 574 951 q 492 877 524 890 l 306 877 m 392 983 l 439 983 l 371 1210 l 289 1210 l 392 983 z "},"Ȇ":{"ha":803,"x_min":-3,"x_max":806,"o":"m 297 0 q 138 35 205 0 q 34 129 71 70 q -3 258 -3 188 l -3 671 q 34 801 -3 742 q 138 894 71 859 q 297 929 205 929 l 506 929 q 665 894 597 929 q 769 801 732 859 q 806 671 806 742 l 806 258 q 769 129 806 188 q 665 35 732 70 q 506 0 597 0 l 297 0 m 273 307 l 614 307 l 614 379 l 343 379 l 343 551 l 570 551 l 570 623 l 343 623 l 343 796 l 604 796 l 604 868 l 273 868 l 273 307 m 239 877 q 152 958 182 911 q 121 1066 121 1004 q 158 1174 121 1125 q 262 1253 195 1223 q 421 1282 330 1282 q 581 1253 513 1282 q 685 1174 648 1223 q 722 1066 722 1125 q 691 958 722 1004 q 604 877 661 911 l 239 877 m 296 986 l 357 986 l 364 1033 l 402 1040 l 438 1040 l 478 1030 l 486 986 l 547 986 l 538 1053 l 498 1093 l 445 1101 l 397 1101 l 344 1093 l 304 1054 l 296 986 z "},"Ē":{"ha":803,"x_min":-3,"x_max":806,"o":"m 297 0 q 138 35 205 0 q 34 129 71 70 q -3 258 -3 188 l -3 671 q 34 801 -3 742 q 138 894 71 859 q 297 929 205 929 l 506 929 q 665 894 597 929 q 769 801 732 859 q 806 671 806 742 l 806 258 q 769 129 806 188 q 665 35 732 70 q 506 0 597 0 l 297 0 m 273 307 l 614 307 l 614 379 l 343 379 l 343 551 l 570 551 l 570 623 l 343 623 l 343 796 l 604 796 l 604 868 l 273 868 l 273 307 m 252 877 q 164 958 195 911 q 134 1066 134 1004 q 171 1174 134 1125 q 275 1253 208 1223 q 434 1282 342 1282 q 593 1253 526 1282 q 697 1174 661 1223 q 734 1066 734 1125 q 704 958 734 1004 q 616 877 673 911 l 252 877 m 297 1019 l 552 1019 l 552 1092 l 297 1092 l 297 1019 z "},"Ę":{"ha":803,"x_min":-3,"x_max":806,"o":"m 297 0 q 138 35 205 0 q 34 129 71 70 q -3 258 -3 188 l -3 671 q 34 801 -3 742 q 138 894 71 859 q 297 929 205 929 l 506 929 q 665 894 597 929 q 769 801 732 859 q 806 671 806 742 l 806 258 q 769 129 806 188 q 665 35 732 70 q 506 0 597 0 l 297 0 m 611 89 l 611 150 l 536 157 l 526 197 l 534 221 l 608 307 l 614 307 l 614 379 l 343 379 l 343 551 l 570 551 l 570 623 l 343 623 l 343 796 l 604 796 l 604 868 l 273 868 l 273 307 l 561 307 l 513 281 l 473 241 l 465 191 l 473 138 l 514 97 l 611 89 z "},"Ẽ":{"ha":803,"x_min":-3,"x_max":806,"o":"m 297 0 q 138 35 205 0 q 34 129 71 70 q -3 258 -3 188 l -3 671 q 34 801 -3 742 q 138 894 71 859 q 297 929 205 929 l 506 929 q 665 894 597 929 q 769 801 732 859 q 806 671 806 742 l 806 258 q 769 129 806 188 q 665 35 732 70 q 506 0 597 0 l 297 0 m 273 307 l 614 307 l 614 379 l 343 379 l 343 551 l 570 551 l 570 623 l 343 623 l 343 796 l 604 796 l 604 868 l 273 868 l 273 307 m 228 890 q 138 1080 138 964 q 175 1209 138 1150 q 279 1302 212 1267 q 437 1337 346 1337 q 597 1302 530 1337 q 701 1209 664 1267 q 738 1080 738 1150 q 649 890 738 966 l 228 890 m 521 971 q 559 986 547 971 q 574 1023 571 1002 q 578 1060 578 1044 l 578 1082 l 517 1082 q 500 1041 507 1052 q 484 1031 493 1031 q 456 1042 473 1031 q 410 1064 439 1053 q 334 1075 381 1075 q 295 1057 307 1075 q 280 1017 283 1039 q 277 982 277 995 l 277 974 l 338 974 q 350 1009 343 1000 q 367 1019 357 1019 q 400 1007 380 1019 q 449 983 420 995 q 521 971 478 971 z "},"ẽ":{"ha":803,"x_min":-3,"x_max":806,"o":"m 297 0 q 138 35 205 0 q 34 129 71 70 q -3 258 -3 188 l -3 671 q 34 801 -3 742 q 138 894 71 859 q 297 929 205 929 l 506 929 q 665 894 597 929 q 769 801 732 859 q 806 671 806 742 l 806 258 q 769 129 806 188 q 665 35 732 70 q 506 0 597 0 l 297 0 m 273 307 l 614 307 l 614 379 l 343 379 l 343 551 l 570 551 l 570 623 l 343 623 l 343 796 l 604 796 l 604 868 l 273 868 l 273 307 m 228 890 q 138 1080 138 964 q 175 1209 138 1150 q 279 1302 212 1267 q 437 1337 346 1337 q 597 1302 530 1337 q 701 1209 664 1267 q 738 1080 738 1150 q 649 890 738 966 l 228 890 m 521 971 q 559 986 547 971 q 574 1023 571 1002 q 578 1060 578 1044 l 578 1082 l 517 1082 q 500 1041 507 1052 q 484 1031 493 1031 q 456 1042 473 1031 q 410 1064 439 1053 q 334 1075 381 1075 q 295 1057 307 1075 q 280 1017 283 1039 q 277 982 277 995 l 277 974 l 338 974 q 350 1009 343 1000 q 367 1019 357 1019 q 400 1007 380 1019 q 449 983 420 995 q 521 971 478 971 z "},"F":{"ha":803,"x_min":-3,"x_max":806,"o":"m 297 0 q 138 35 205 0 q 34 129 71 70 q -3 258 -3 188 l -3 671 q 34 801 -3 742 q 138 894 71 859 q 297 929 205 929 l 506 929 q 665 894 597 929 q 769 801 732 859 q 806 671 806 742 l 806 258 q 769 129 806 188 q 665 35 732 70 q 506 0 597 0 l 297 0 m 269 307 l 342 307 l 342 564 l 568 564 l 568 635 l 342 635 l 342 796 l 607 796 l 607 868 l 269 868 l 269 307 z "},"G":{"ha":803,"x_min":-3,"x_max":806,"o":"m 297 0 q 138 35 205 0 q 34 129 71 70 q -3 258 -3 188 l -3 671 q 34 801 -3 742 q 138 894 71 859 q 297 929 205 929 l 506 929 q 665 894 597 929 q 769 801 732 859 q 806 671 806 742 l 806 258 q 769 129 806 188 q 665 35 732 70 q 506 0 597 0 l 297 0 m 354 307 l 524 307 l 592 315 l 636 358 l 646 416 l 646 595 l 449 595 l 449 522 l 574 522 l 574 427 q 569 406 570 416 q 564 386 568 397 l 519 379 l 355 379 l 314 386 l 304 429 l 304 750 l 311 787 l 355 798 l 532 798 l 602 786 l 615 859 l 536 868 l 354 868 l 285 857 l 241 814 l 232 757 l 232 416 l 241 358 l 286 315 l 354 307 z "},"Ğ":{"ha":803,"x_min":-3,"x_max":806,"o":"m 297 0 q 138 35 205 0 q 34 129 71 70 q -3 258 -3 188 l -3 671 q 34 801 -3 742 q 138 894 71 859 q 297 929 205 929 l 506 929 q 665 894 597 929 q 769 801 732 859 q 806 671 806 742 l 806 258 q 769 129 806 188 q 665 35 732 70 q 506 0 597 0 l 297 0 m 354 307 l 524 307 l 592 315 l 636 358 l 646 416 l 646 595 l 449 595 l 449 522 l 574 522 l 574 427 q 569 406 570 416 q 564 386 568 397 l 519 379 l 355 379 l 314 386 l 304 429 l 304 750 l 311 787 l 355 798 l 532 798 l 602 786 l 615 859 l 536 868 l 354 868 l 285 857 l 241 814 l 232 757 l 232 416 l 241 358 l 286 315 l 354 307 m 251 877 q 163 958 193 911 q 133 1066 133 1004 q 170 1174 133 1125 q 274 1253 207 1223 q 433 1282 341 1282 q 592 1253 525 1282 q 696 1174 659 1223 q 733 1066 733 1125 q 703 958 733 1004 q 615 877 672 911 l 251 877 m 410 964 l 458 964 l 511 972 l 551 1013 l 559 1080 l 498 1080 l 491 1035 l 451 1025 l 415 1025 l 377 1032 l 370 1080 l 309 1080 l 317 1012 l 357 972 l 410 964 z "},"Ĝ":{"ha":803,"x_min":-3,"x_max":806,"o":"m 297 0 q 138 35 205 0 q 34 129 71 70 q -3 258 -3 188 l -3 671 q 34 801 -3 742 q 138 894 71 859 q 297 929 205 929 l 506 929 q 665 894 597 929 q 769 801 732 859 q 806 671 806 742 l 806 258 q 769 129 806 188 q 665 35 732 70 q 506 0 597 0 l 297 0 m 354 307 l 524 307 l 592 315 l 636 358 l 646 416 l 646 595 l 449 595 l 449 522 l 574 522 l 574 427 q 569 406 570 416 q 564 386 568 397 l 519 379 l 355 379 l 314 386 l 304 429 l 304 750 l 311 787 l 355 798 l 532 798 l 602 786 l 615 859 l 536 868 l 354 868 l 285 857 l 241 814 l 232 757 l 232 416 l 241 358 l 286 315 l 354 307 m 213 877 q 182 921 192 895 q 172 975 172 947 q 189 1059 172 1008 q 231 1166 205 1109 q 280 1276 256 1223 q 334 1328 300 1310 q 425 1345 368 1345 q 515 1325 481 1345 q 573 1255 549 1305 q 622 1145 601 1197 q 655 1054 640 1099 q 671 983 671 1009 q 625 877 671 913 l 213 877 m 302 983 l 357 983 l 422 1181 l 486 983 l 541 983 l 452 1212 l 391 1212 l 302 983 z "},"Ģ":{"ha":803,"x_min":-3,"x_max":806,"o":"m 297 0 q 138 35 205 0 q 34 129 71 70 q -3 258 -3 188 l -3 671 q 34 801 -3 742 q 138 894 71 859 q 297 929 205 929 l 506 929 q 665 894 597 929 q 769 801 732 859 q 806 671 806 742 l 806 258 q 769 129 806 188 q 665 35 732 70 q 506 0 597 0 l 297 0 m 354 307 l 524 307 l 592 315 l 636 358 l 646 416 l 646 595 l 449 595 l 449 522 l 574 522 l 574 427 q 569 406 570 416 q 564 386 568 397 l 519 379 l 355 379 l 314 386 l 304 429 l 304 750 l 311 787 l 355 798 l 532 798 l 602 786 l 615 859 l 536 868 l 354 868 l 285 857 l 241 814 l 232 757 l 232 416 l 241 358 l 286 315 l 354 307 m 452 81 l 493 168 l 493 256 l 391 256 l 391 168 l 435 168 l 408 100 l 452 81 z "},"Ġ":{"ha":803,"x_min":-3,"x_max":806,"o":"m 297 0 q 138 35 205 0 q 34 129 71 70 q -3 258 -3 188 l -3 671 q 34 801 -3 742 q 138 894 71 859 q 297 929 205 929 l 506 929 q 665 894 597 929 q 769 801 732 859 q 806 671 806 742 l 806 258 q 769 129 806 188 q 665 35 732 70 q 506 0 597 0 l 297 0 m 354 307 l 524 307 l 592 315 l 636 358 l 646 416 l 646 595 l 449 595 l 449 522 l 574 522 l 574 427 q 569 406 570 416 q 564 386 568 397 l 519 379 l 355 379 l 314 386 l 304 429 l 304 750 l 311 787 l 355 798 l 532 798 l 602 786 l 615 859 l 536 868 l 354 868 l 285 857 l 241 814 l 232 757 l 232 416 l 241 358 l 286 315 l 354 307 m 194 877 q 146 958 163 907 q 129 1054 129 1010 q 166 1162 129 1113 q 270 1241 203 1211 q 429 1270 337 1270 q 588 1241 521 1270 q 692 1162 655 1211 q 729 1054 729 1113 q 713 957 729 1001 q 665 877 696 913 l 194 877 m 382 994 l 471 994 l 471 1081 l 382 1081 l 382 994 z "},"H":{"ha":803,"x_min":-3,"x_max":806,"o":"m 297 0 q 138 35 205 0 q 34 129 71 70 q -3 258 -3 188 l -3 671 q 34 801 -3 742 q 138 894 71 859 q 297 929 205 929 l 506 929 q 665 894 597 929 q 769 801 732 859 q 806 671 806 742 l 806 258 q 769 129 806 188 q 665 35 732 70 q 506 0 597 0 l 297 0 m 222 307 l 294 307 l 294 559 l 576 559 l 576 307 l 647 307 l 647 868 l 576 868 l 576 631 l 294 631 l 294 868 l 222 868 l 222 307 z "},"Ħ":{"ha":803,"x_min":-3,"x_max":806,"o":"m 297 0 q 138 35 205 0 q 34 129 71 70 q -3 258 -3 188 l -3 671 q 34 801 -3 742 q 138 894 71 859 q 297 929 205 929 l 506 929 q 665 894 597 929 q 769 801 732 859 q 806 671 806 742 l 806 258 q 769 129 806 188 q 665 35 732 70 q 506 0 597 0 l 297 0 m 222 307 l 294 307 l 294 559 l 576 559 l 576 307 l 647 307 l 647 724 l 712 724 l 712 789 l 647 789 l 647 868 l 576 868 l 576 789 l 294 789 l 294 868 l 222 868 l 222 789 l 159 789 l 159 724 l 222 724 l 222 307 m 294 631 l 294 724 l 576 724 l 576 631 l 294 631 z "},"Ĥ":{"ha":803,"x_min":-3,"x_max":806,"o":"m 297 0 q 138 35 205 0 q 34 129 71 70 q -3 258 -3 188 l -3 671 q 34 801 -3 742 q 138 894 71 859 q 297 929 205 929 l 506 929 q 665 894 597 929 q 769 801 732 859 q 806 671 806 742 l 806 258 q 769 129 806 188 q 665 35 732 70 q 506 0 597 0 l 297 0 m 222 307 l 294 307 l 294 559 l 576 559 l 576 307 l 647 307 l 647 868 l 576 868 l 576 631 l 294 631 l 294 868 l 222 868 l 222 307 m 213 877 q 182 921 192 895 q 172 975 172 947 q 189 1059 172 1008 q 231 1166 205 1109 q 280 1276 256 1223 q 334 1328 300 1310 q 425 1345 368 1345 q 515 1325 481 1345 q 573 1255 549 1305 q 622 1145 601 1197 q 655 1054 640 1099 q 671 983 671 1009 q 625 877 671 913 l 213 877 m 302 983 l 357 983 l 422 1181 l 486 983 l 541 983 l 452 1212 l 391 1212 l 302 983 z "},"I":{"ha":803,"x_min":-3,"x_max":806,"o":"m 297 0 q 138 35 205 0 q 34 129 71 70 q -3 258 -3 188 l -3 671 q 34 801 -3 742 q 138 894 71 859 q 297 929 205 929 l 506 929 q 665 894 597 929 q 769 801 732 859 q 806 671 806 742 l 806 258 q 769 129 806 188 q 665 35 732 70 q 506 0 597 0 l 297 0 m 243 307 l 635 307 l 635 379 l 475 379 l 475 796 l 635 796 l 635 868 l 243 868 l 243 796 l 403 796 l 403 379 l 243 379 l 243 307 z "},"Ĳ":{"ha":803,"x_min":-3,"x_max":806,"o":"m 297 0 q 138 35 205 0 q 34 129 71 70 q -3 258 -3 188 l -3 671 q 34 801 -3 742 q 138 894 71 859 q 297 929 205 929 l 506 929 q 665 894 597 929 q 769 801 732 859 q 806 671 806 742 l 806 258 q 769 129 806 188 q 665 35 732 70 q 506 0 597 0 l 297 0 m 122 307 l 403 307 l 403 379 l 298 379 l 298 796 l 403 796 l 403 868 l 122 868 l 122 796 l 227 796 l 227 379 l 122 379 l 122 307 m 446 307 l 551 307 l 620 317 l 672 358 l 672 868 l 602 868 l 602 428 l 592 387 l 547 379 l 446 379 l 446 307 z "},"Í":{"ha":803,"x_min":-3,"x_max":806,"o":"m 297 0 q 138 35 205 0 q 34 129 71 70 q -3 258 -3 188 l -3 671 q 34 801 -3 742 q 138 894 71 859 q 297 929 205 929 l 506 929 q 665 894 597 929 q 769 801 732 859 q 806 671 806 742 l 806 258 q 769 129 806 188 q 665 35 732 70 q 506 0 597 0 l 297 0 m 243 307 l 635 307 l 635 379 l 475 379 l 475 796 l 635 796 l 635 868 l 243 868 l 243 796 l 403 796 l 403 379 l 243 379 l 243 307 m 348 877 q 291 921 317 890 q 266 992 266 951 q 270 1025 266 1002 q 290 1102 275 1049 q 336 1251 305 1155 q 397 1311 353 1294 q 499 1328 441 1328 q 596 1312 550 1328 q 670 1266 642 1297 q 699 1192 699 1236 q 670 1101 699 1151 l 563 918 q 548 895 555 905 q 534 877 541 884 l 348 877 m 401 983 l 448 983 l 551 1210 l 469 1210 l 401 983 z "},"Ĭ":{"ha":803,"x_min":-3,"x_max":806,"o":"m 297 0 q 138 35 205 0 q 34 129 71 70 q -3 258 -3 188 l -3 671 q 34 801 -3 742 q 138 894 71 859 q 297 929 205 929 l 506 929 q 665 894 597 929 q 769 801 732 859 q 806 671 806 742 l 806 258 q 769 129 806 188 q 665 35 732 70 q 506 0 597 0 l 297 0 m 243 307 l 635 307 l 635 379 l 475 379 l 475 796 l 635 796 l 635 868 l 243 868 l 243 796 l 403 796 l 403 379 l 243 379 l 243 307 m 251 877 q 163 958 193 911 q 133 1066 133 1004 q 170 1174 133 1125 q 274 1253 207 1223 q 433 1282 341 1282 q 592 1253 525 1282 q 696 1174 659 1223 q 733 1066 733 1125 q 703 958 733 1004 q 615 877 672 911 l 251 877 m 410 964 l 458 964 l 511 972 l 551 1013 l 559 1080 l 498 1080 l 491 1035 l 451 1025 l 415 1025 l 377 1032 l 370 1080 l 309 1080 l 317 1012 l 357 972 l 410 964 z "},"Ǐ":{"ha":803,"x_min":-3,"x_max":806,"o":"m 297 0 q 138 35 205 0 q 34 129 71 70 q -3 258 -3 188 l -3 671 q 34 801 -3 742 q 138 894 71 859 q 297 929 205 929 l 506 929 q 665 894 597 929 q 769 801 732 859 q 806 671 806 742 l 806 258 q 769 129 806 188 q 665 35 732 70 q 506 0 597 0 l 297 0 m 243 307 l 635 307 l 635 379 l 475 379 l 475 796 l 635 796 l 635 868 l 243 868 l 243 796 l 403 796 l 403 379 l 243 379 l 243 307 m 259 904 q 221 1014 240 958 q 191 1121 203 1071 q 178 1204 178 1171 q 214 1291 178 1252 q 336 1331 249 1331 q 391 1320 370 1331 q 430 1291 412 1309 q 476 1321 451 1310 q 538 1332 501 1332 q 646 1292 613 1332 q 678 1197 678 1252 q 665 1106 678 1160 q 634 998 652 1053 q 600 904 616 943 l 259 904 m 398 982 l 459 982 l 548 1211 l 492 1211 l 429 1013 l 364 1211 l 309 1211 l 398 982 z "},"Î":{"ha":803,"x_min":-3,"x_max":806,"o":"m 297 0 q 138 35 205 0 q 34 129 71 70 q -3 258 -3 188 l -3 671 q 34 801 -3 742 q 138 894 71 859 q 297 929 205 929 l 506 929 q 665 894 597 929 q 769 801 732 859 q 806 671 806 742 l 806 258 q 769 129 806 188 q 665 35 732 70 q 506 0 597 0 l 297 0 m 243 307 l 635 307 l 635 379 l 475 379 l 475 796 l 635 796 l 635 868 l 243 868 l 243 796 l 403 796 l 403 379 l 243 379 l 243 307 m 213 877 q 182 921 192 895 q 172 975 172 947 q 189 1059 172 1008 q 231 1166 205 1109 q 280 1276 256 1223 q 334 1328 300 1310 q 425 1345 368 1345 q 515 1325 481 1345 q 573 1255 549 1305 q 622 1145 601 1197 q 655 1054 640 1099 q 671 983 671 1009 q 625 877 671 913 l 213 877 m 302 983 l 357 983 l 422 1181 l 486 983 l 541 983 l 452 1212 l 391 1212 l 302 983 z "},"Ȉ":{"ha":803,"x_min":-3,"x_max":806,"o":"m 297 0 q 138 35 205 0 q 34 129 71 70 q -3 258 -3 188 l -3 671 q 34 801 -3 742 q 138 894 71 859 q 297 929 205 929 l 506 929 q 665 894 597 929 q 769 801 732 859 q 806 671 806 742 l 806 258 q 769 129 806 188 q 665 35 732 70 q 506 0 597 0 l 297 0 m 243 307 l 635 307 l 635 379 l 475 379 l 475 796 l 635 796 l 635 868 l 243 868 l 243 796 l 403 796 l 403 379 l 243 379 l 243 307 m 231 877 l 60 1131 l 165 1329 l 228 1329 q 276 1320 256 1325 q 311 1306 296 1316 l 322 1329 l 385 1329 q 446 1317 422 1325 q 487 1290 470 1308 q 522 1238 504 1272 l 644 1012 q 648 968 648 989 q 616 877 648 911 l 231 877 m 326 968 l 361 968 l 239 1195 l 176 1195 l 326 968 m 484 968 l 518 968 l 396 1195 l 333 1195 l 484 968 z "},"Ï":{"ha":803,"x_min":-3,"x_max":806,"o":"m 297 0 q 138 35 205 0 q 34 129 71 70 q -3 258 -3 188 l -3 671 q 34 801 -3 742 q 138 894 71 859 q 297 929 205 929 l 506 929 q 665 894 597 929 q 769 801 732 859 q 806 671 806 742 l 806 258 q 769 129 806 188 q 665 35 732 70 q 506 0 597 0 l 297 0 m 243 307 l 635 307 l 635 379 l 475 379 l 475 796 l 635 796 l 635 868 l 243 868 l 243 796 l 403 796 l 403 379 l 243 379 l 243 307 m 239 890 q 172 963 195 920 q 149 1060 149 1007 q 182 1160 149 1114 q 277 1235 216 1206 q 421 1263 338 1263 q 566 1235 505 1263 q 661 1160 627 1206 q 694 1060 694 1114 q 602 890 694 949 l 239 890 m 283 1003 l 372 1003 l 372 1090 l 283 1090 l 283 1003 m 460 1003 l 549 1003 l 549 1090 l 460 1090 l 460 1003 z "},"İ":{"ha":803,"x_min":-3,"x_max":806,"o":"m 297 0 q 138 35 205 0 q 34 129 71 70 q -3 258 -3 188 l -3 671 q 34 801 -3 742 q 138 894 71 859 q 297 929 205 929 l 506 929 q 665 894 597 929 q 769 801 732 859 q 806 671 806 742 l 806 258 q 769 129 806 188 q 665 35 732 70 q 506 0 597 0 l 297 0 m 243 307 l 635 307 l 635 379 l 475 379 l 475 796 l 635 796 l 635 868 l 243 868 l 243 796 l 403 796 l 403 379 l 243 379 l 243 307 m 194 877 q 146 958 163 907 q 129 1054 129 1010 q 166 1162 129 1113 q 270 1241 203 1211 q 429 1270 337 1270 q 588 1241 521 1270 q 692 1162 655 1211 q 729 1054 729 1113 q 713 957 729 1001 q 665 877 696 913 l 194 877 m 382 994 l 471 994 l 471 1081 l 382 1081 l 382 994 z "},"Ì":{"ha":803,"x_min":-3,"x_max":806,"o":"m 297 0 q 138 35 205 0 q 34 129 71 70 q -3 258 -3 188 l -3 671 q 34 801 -3 742 q 138 894 71 859 q 297 929 205 929 l 506 929 q 665 894 597 929 q 769 801 732 859 q 806 671 806 742 l 806 258 q 769 129 806 188 q 665 35 732 70 q 506 0 597 0 l 297 0 m 243 307 l 635 307 l 635 379 l 475 379 l 475 796 l 635 796 l 635 868 l 243 868 l 243 796 l 403 796 l 403 379 l 243 379 l 243 307 m 306 877 q 292 895 298 884 q 277 918 285 905 l 170 1101 q 140 1192 139 1153 q 169 1266 140 1236 q 244 1312 198 1297 q 340 1328 290 1328 q 443 1311 398 1328 q 503 1251 487 1294 q 549 1102 534 1155 q 569 1025 564 1049 q 574 992 574 1002 q 549 921 574 951 q 492 877 524 890 l 306 877 m 392 983 l 439 983 l 371 1210 l 289 1210 l 392 983 z "},"Ȋ":{"ha":803,"x_min":-3,"x_max":806,"o":"m 297 0 q 138 35 205 0 q 34 129 71 70 q -3 258 -3 188 l -3 671 q 34 801 -3 742 q 138 894 71 859 q 297 929 205 929 l 506 929 q 665 894 597 929 q 769 801 732 859 q 806 671 806 742 l 806 258 q 769 129 806 188 q 665 35 732 70 q 506 0 597 0 l 297 0 m 243 307 l 635 307 l 635 379 l 475 379 l 475 796 l 635 796 l 635 868 l 243 868 l 243 796 l 403 796 l 403 379 l 243 379 l 243 307 m 239 877 q 152 958 182 911 q 121 1066 121 1004 q 158 1174 121 1125 q 262 1253 195 1223 q 421 1282 330 1282 q 581 1253 513 1282 q 685 1174 648 1223 q 722 1066 722 1125 q 691 958 722 1004 q 604 877 661 911 l 239 877 m 296 986 l 357 986 l 364 1033 l 402 1040 l 438 1040 l 478 1030 l 486 986 l 547 986 l 538 1053 l 498 1093 l 445 1101 l 397 1101 l 344 1093 l 304 1054 l 296 986 z "},"Ī":{"ha":803,"x_min":-3,"x_max":806,"o":"m 297 0 q 138 35 205 0 q 34 129 71 70 q -3 258 -3 188 l -3 671 q 34 801 -3 742 q 138 894 71 859 q 297 929 205 929 l 506 929 q 665 894 597 929 q 769 801 732 859 q 806 671 806 742 l 806 258 q 769 129 806 188 q 665 35 732 70 q 506 0 597 0 l 297 0 m 243 307 l 635 307 l 635 379 l 475 379 l 475 796 l 635 796 l 635 868 l 243 868 l 243 796 l 403 796 l 403 379 l 243 379 l 243 307 m 252 877 q 164 958 195 911 q 134 1066 134 1004 q 171 1174 134 1125 q 275 1253 208 1223 q 434 1282 342 1282 q 593 1253 526 1282 q 697 1174 661 1223 q 734 1066 734 1125 q 704 958 734 1004 q 616 877 673 911 l 252 877 m 297 1019 l 552 1019 l 552 1092 l 297 1092 l 297 1019 z "},"Į":{"ha":803,"x_min":-3,"x_max":806,"o":"m 297 0 q 138 35 205 0 q 34 129 71 70 q -3 258 -3 188 l -3 671 q 34 801 -3 742 q 138 894 71 859 q 297 929 205 929 l 506 929 q 665 894 597 929 q 769 801 732 859 q 806 671 806 742 l 806 258 q 769 129 806 188 q 665 35 732 70 q 506 0 597 0 l 297 0 m 635 89 l 635 150 l 559 157 l 550 197 l 557 221 l 632 307 l 635 307 l 635 379 l 475 379 l 475 796 l 635 796 l 635 868 l 243 868 l 243 796 l 403 796 l 403 379 l 243 379 l 243 307 l 585 307 l 536 281 l 497 241 l 489 191 l 497 138 l 538 97 l 635 89 z "},"Ĩ":{"ha":803,"x_min":-3,"x_max":806,"o":"m 297 0 q 138 35 205 0 q 34 129 71 70 q -3 258 -3 188 l -3 671 q 34 801 -3 742 q 138 894 71 859 q 297 929 205 929 l 506 929 q 665 894 597 929 q 769 801 732 859 q 806 671 806 742 l 806 258 q 769 129 806 188 q 665 35 732 70 q 506 0 597 0 l 297 0 m 243 307 l 635 307 l 635 379 l 475 379 l 475 796 l 635 796 l 635 868 l 243 868 l 243 796 l 403 796 l 403 379 l 243 379 l 243 307 m 228 890 q 138 1080 138 964 q 175 1209 138 1150 q 279 1302 212 1267 q 437 1337 346 1337 q 597 1302 530 1337 q 701 1209 664 1267 q 738 1080 738 1150 q 649 890 738 966 l 228 890 m 521 971 q 559 986 547 971 q 574 1023 571 1002 q 578 1060 578 1044 l 578 1082 l 517 1082 q 500 1041 507 1052 q 484 1031 493 1031 q 456 1042 473 1031 q 410 1064 439 1053 q 334 1075 381 1075 q 295 1057 307 1075 q 280 1017 283 1039 q 277 982 277 995 l 277 974 l 338 974 q 350 1009 343 1000 q 367 1019 357 1019 q 400 1007 380 1019 q 449 983 420 995 q 521 971 478 971 z "},"J":{"ha":803,"x_min":-3,"x_max":806,"o":"m 297 0 q 138 35 205 0 q 34 129 71 70 q -3 258 -3 188 l -3 671 q 34 801 -3 742 q 138 894 71 859 q 297 929 205 929 l 506 929 q 665 894 597 929 q 769 801 732 859 q 806 671 806 742 l 806 258 q 769 129 806 188 q 665 35 732 70 q 506 0 597 0 l 297 0 m 307 307 l 412 307 l 481 317 l 534 358 l 534 868 l 463 868 l 463 428 l 453 387 l 408 379 l 307 379 l 307 307 z "},"Ĵ":{"ha":803,"x_min":-3,"x_max":806,"o":"m 297 0 q 138 35 205 0 q 34 129 71 70 q -3 258 -3 188 l -3 671 q 34 801 -3 742 q 138 894 71 859 q 297 929 205 929 l 506 929 q 665 894 597 929 q 769 801 732 859 q 806 671 806 742 l 806 258 q 769 129 806 188 q 665 35 732 70 q 506 0 597 0 l 297 0 m 307 307 l 412 307 l 481 317 l 534 358 l 534 868 l 463 868 l 463 428 l 453 387 l 408 379 l 307 379 l 307 307 m 288 877 q 256 921 267 895 q 246 975 246 947 q 263 1059 246 1008 q 305 1166 280 1109 q 355 1276 330 1223 q 408 1328 374 1310 q 499 1345 442 1345 q 590 1325 556 1345 q 648 1255 623 1305 q 696 1145 675 1197 q 730 1054 714 1099 q 746 983 746 1009 q 699 877 746 913 l 288 877 m 377 983 l 432 983 l 496 1181 l 560 983 l 616 983 l 527 1212 l 466 1212 l 377 983 z "},"K":{"ha":803,"x_min":-3,"x_max":806,"o":"m 297 0 q 138 35 205 0 q 34 129 71 70 q -3 258 -3 188 l -3 671 q 34 801 -3 742 q 138 894 71 859 q 297 929 205 929 l 506 929 q 665 894 597 929 q 769 801 732 859 q 806 671 806 742 l 806 258 q 769 129 806 188 q 665 35 732 70 q 506 0 597 0 l 297 0 m 610 294 l 668 345 l 444 600 l 677 831 l 628 888 l 349 611 l 349 868 l 277 868 l 277 307 l 349 307 l 349 519 l 388 554 l 610 294 z "},"Ķ":{"ha":803,"x_min":-3,"x_max":806,"o":"m 297 0 q 138 35 205 0 q 34 129 71 70 q -3 258 -3 188 l -3 671 q 34 801 -3 742 q 138 894 71 859 q 297 929 205 929 l 506 929 q 665 894 597 929 q 769 801 732 859 q 806 671 806 742 l 806 258 q 769 129 806 188 q 665 35 732 70 q 506 0 597 0 l 297 0 m 610 294 l 668 345 l 444 600 l 677 831 l 628 888 l 349 611 l 349 868 l 277 868 l 277 307 l 349 307 l 349 519 l 388 554 l 610 294 m 452 81 l 493 168 l 493 256 l 391 256 l 391 168 l 435 168 l 408 100 l 452 81 z "},"L":{"ha":803,"x_min":-3,"x_max":806,"o":"m 297 0 q 138 35 205 0 q 34 129 71 70 q -3 258 -3 188 l -3 671 q 34 801 -3 742 q 138 894 71 859 q 297 929 205 929 l 506 929 q 665 894 597 929 q 769 801 732 859 q 806 671 806 742 l 806 258 q 769 129 806 188 q 665 35 732 70 q 506 0 597 0 l 297 0 m 304 307 l 585 307 l 585 379 l 376 379 l 376 868 l 304 868 l 304 307 z "},"Ĺ":{"ha":803,"x_min":-3,"x_max":806,"o":"m 297 0 q 138 35 205 0 q 34 129 71 70 q -3 258 -3 188 l -3 671 q 34 801 -3 742 q 138 894 71 859 q 297 929 205 929 l 506 929 q 665 894 597 929 q 769 801 732 859 q 806 671 806 742 l 806 258 q 769 129 806 188 q 665 35 732 70 q 506 0 597 0 l 297 0 m 304 307 l 585 307 l 585 379 l 376 379 l 376 868 l 304 868 l 304 307 m 275 877 q 218 921 243 890 q 193 992 193 951 q 197 1025 193 1002 q 217 1102 201 1049 q 263 1251 232 1155 q 324 1311 279 1294 q 426 1328 368 1328 q 523 1312 477 1328 q 597 1266 568 1297 q 626 1192 626 1236 q 597 1101 626 1151 l 490 918 q 475 895 481 905 q 460 877 468 884 l 275 877 m 328 983 l 374 983 l 477 1210 l 395 1210 l 328 983 z "},"Ľ":{"ha":803,"x_min":-3,"x_max":806,"o":"m 297 0 q 138 35 205 0 q 34 129 71 70 q -3 258 -3 188 l -3 671 q 34 801 -3 742 q 138 894 71 859 q 297 929 205 929 l 506 929 q 665 894 597 929 q 769 801 732 859 q 806 671 806 742 l 806 258 q 769 129 806 188 q 665 35 732 70 q 506 0 597 0 l 297 0 m 304 307 l 585 307 l 585 379 l 376 379 l 376 868 l 304 868 l 304 307 m 529 693 l 571 781 l 571 868 l 468 868 l 468 781 l 513 781 l 486 713 l 529 693 z "},"Ļ":{"ha":803,"x_min":-3,"x_max":806,"o":"m 297 0 q 138 35 205 0 q 34 129 71 70 q -3 258 -3 188 l -3 671 q 34 801 -3 742 q 138 894 71 859 q 297 929 205 929 l 506 929 q 665 894 597 929 q 769 801 732 859 q 806 671 806 742 l 806 258 q 769 129 806 188 q 665 35 732 70 q 506 0 597 0 l 297 0 m 304 307 l 585 307 l 585 379 l 376 379 l 376 868 l 304 868 l 304 307 m 452 81 l 493 168 l 493 256 l 391 256 l 391 168 l 435 168 l 408 100 l 452 81 z "},"Ŀ":{"ha":803,"x_min":-3,"x_max":806,"o":"m 297 0 q 138 35 205 0 q 34 129 71 70 q -3 258 -3 188 l -3 671 q 34 801 -3 742 q 138 894 71 859 q 297 929 205 929 l 506 929 q 665 894 597 929 q 769 801 732 859 q 806 671 806 742 l 806 258 q 769 129 806 188 q 665 35 732 70 q 506 0 597 0 l 297 0 m 304 307 l 585 307 l 585 379 l 376 379 l 376 868 l 304 868 l 304 307 m 479 608 l 568 608 l 568 696 l 479 696 l 479 608 z "},"Ł":{"ha":803,"x_min":-3,"x_max":806,"o":"m 297 0 q 138 35 205 0 q 34 129 71 70 q -3 258 -3 188 l -3 671 q 34 801 -3 742 q 138 894 71 859 q 297 929 205 929 l 506 929 q 665 894 597 929 q 769 801 732 859 q 806 671 806 742 l 806 258 q 769 129 806 188 q 665 35 732 70 q 506 0 597 0 l 297 0 m 304 307 l 585 307 l 585 379 l 376 379 l 376 607 l 461 656 l 439 694 l 376 659 l 376 868 l 304 868 l 304 616 l 220 570 l 241 530 l 304 566 l 304 307 z "},"M":{"ha":803,"x_min":-3,"x_max":806,"o":"m 297 0 q 138 35 205 0 q 34 129 71 70 q -3 258 -3 188 l -3 671 q 34 801 -3 742 q 138 894 71 859 q 297 929 205 929 l 506 929 q 665 894 597 929 q 769 801 732 859 q 806 671 806 742 l 806 258 q 769 129 806 188 q 665 35 732 70 q 506 0 597 0 l 297 0 m 174 307 l 246 307 l 246 790 l 279 796 l 357 796 l 386 790 l 386 503 l 458 503 l 458 790 l 488 796 l 566 796 l 599 790 l 599 307 l 671 307 l 671 815 l 628 859 l 571 868 l 482 868 l 446 857 l 422 810 l 400 857 l 363 868 l 274 868 l 217 859 l 174 815 l 174 307 z "},"N":{"ha":803,"x_min":-3,"x_max":806,"o":"m 297 0 q 138 35 205 0 q 34 129 71 70 q -3 258 -3 188 l -3 671 q 34 801 -3 742 q 138 894 71 859 q 297 929 205 929 l 506 929 q 665 894 597 929 q 769 801 732 859 q 806 671 806 742 l 806 258 q 769 129 806 188 q 665 35 732 70 q 506 0 597 0 l 297 0 m 218 307 l 290 307 l 290 789 l 343 798 l 506 798 l 553 790 l 559 750 l 559 307 l 632 307 l 632 760 l 623 817 l 579 860 l 510 868 l 340 868 l 218 851 l 218 307 z "},"Ń":{"ha":803,"x_min":-3,"x_max":806,"o":"m 297 0 q 138 35 205 0 q 34 129 71 70 q -3 258 -3 188 l -3 671 q 34 801 -3 742 q 138 894 71 859 q 297 929 205 929 l 506 929 q 665 894 597 929 q 769 801 732 859 q 806 671 806 742 l 806 258 q 769 129 806 188 q 665 35 732 70 q 506 0 597 0 l 297 0 m 218 307 l 290 307 l 290 789 l 343 798 l 506 798 l 553 790 l 559 750 l 559 307 l 632 307 l 632 760 l 623 817 l 579 860 l 510 868 l 340 868 l 218 851 l 218 307 m 348 877 q 291 921 317 890 q 266 992 266 951 q 270 1025 266 1002 q 290 1102 275 1049 q 336 1251 305 1155 q 397 1311 353 1294 q 499 1328 441 1328 q 596 1312 550 1328 q 670 1266 642 1297 q 699 1192 699 1236 q 670 1101 699 1151 l 563 918 q 548 895 555 905 q 534 877 541 884 l 348 877 m 401 983 l 448 983 l 551 1210 l 469 1210 l 401 983 z "},"Ň":{"ha":803,"x_min":-3,"x_max":806,"o":"m 297 0 q 138 35 205 0 q 34 129 71 70 q -3 258 -3 188 l -3 671 q 34 801 -3 742 q 138 894 71 859 q 297 929 205 929 l 506 929 q 665 894 597 929 q 769 801 732 859 q 806 671 806 742 l 806 258 q 769 129 806 188 q 665 35 732 70 q 506 0 597 0 l 297 0 m 218 307 l 290 307 l 290 789 l 343 798 l 506 798 l 553 790 l 559 750 l 559 307 l 632 307 l 632 760 l 623 817 l 579 860 l 510 868 l 340 868 l 218 851 l 218 307 m 259 904 q 221 1014 240 958 q 191 1121 203 1071 q 178 1204 178 1171 q 214 1291 178 1252 q 336 1331 249 1331 q 391 1320 370 1331 q 430 1291 412 1309 q 476 1321 451 1310 q 538 1332 501 1332 q 646 1292 613 1332 q 678 1197 678 1252 q 665 1106 678 1160 q 634 998 652 1053 q 600 904 616 943 l 259 904 m 398 982 l 459 982 l 548 1211 l 492 1211 l 429 1013 l 364 1211 l 309 1211 l 398 982 z "},"Ņ":{"ha":803,"x_min":-3,"x_max":806,"o":"m 297 0 q 138 35 205 0 q 34 129 71 70 q -3 258 -3 188 l -3 671 q 34 801 -3 742 q 138 894 71 859 q 297 929 205 929 l 506 929 q 665 894 597 929 q 769 801 732 859 q 806 671 806 742 l 806 258 q 769 129 806 188 q 665 35 732 70 q 506 0 597 0 l 297 0 m 218 307 l 290 307 l 290 789 l 343 798 l 506 798 l 553 790 l 559 750 l 559 307 l 632 307 l 632 760 l 623 817 l 579 860 l 510 868 l 340 868 l 218 851 l 218 307 m 452 81 l 493 168 l 493 256 l 391 256 l 391 168 l 435 168 l 408 100 l 452 81 z "},"Ñ":{"ha":803,"x_min":-3,"x_max":806,"o":"m 297 0 q 138 35 205 0 q 34 129 71 70 q -3 258 -3 188 l -3 671 q 34 801 -3 742 q 138 894 71 859 q 297 929 205 929 l 506 929 q 665 894 597 929 q 769 801 732 859 q 806 671 806 742 l 806 258 q 769 129 806 188 q 665 35 732 70 q 506 0 597 0 l 297 0 m 218 307 l 290 307 l 290 789 l 343 798 l 506 798 l 553 790 l 559 750 l 559 307 l 632 307 l 632 760 l 623 817 l 579 860 l 510 868 l 340 868 l 218 851 l 218 307 m 228 890 q 138 1080 138 964 q 175 1209 138 1150 q 279 1302 212 1267 q 437 1337 346 1337 q 597 1302 530 1337 q 701 1209 664 1267 q 738 1080 738 1150 q 649 890 738 966 l 228 890 m 521 971 q 559 986 547 971 q 574 1023 571 1002 q 578 1060 578 1044 l 578 1082 l 517 1082 q 500 1041 507 1052 q 484 1031 493 1031 q 456 1042 473 1031 q 410 1064 439 1053 q 334 1075 381 1075 q 295 1057 307 1075 q 280 1017 283 1039 q 277 982 277 995 l 277 974 l 338 974 q 350 1009 343 1000 q 367 1019 357 1019 q 400 1007 380 1019 q 449 983 420 995 q 521 971 478 971 z "},"Ŋ":{"ha":803,"x_min":-3,"x_max":806,"o":"m 297 0 q 138 35 205 0 q 34 129 71 70 q -3 258 -3 188 l -3 671 q 34 801 -3 742 q 138 894 71 859 q 297 929 205 929 l 506 929 q 665 894 597 929 q 769 801 732 859 q 806 671 806 742 l 806 258 q 769 129 806 188 q 665 35 732 70 q 506 0 597 0 l 297 0 m 406 109 l 511 109 l 579 118 l 632 160 l 632 760 l 623 817 l 579 860 l 510 868 l 340 868 l 218 851 l 218 307 l 290 307 l 290 789 l 343 798 l 506 798 l 553 790 l 559 750 l 559 229 l 551 189 l 507 180 l 406 180 l 406 109 z "},"O":{"ha":803,"x_min":-3,"x_max":806,"o":"m 297 0 q 138 35 205 0 q 34 129 71 70 q -3 258 -3 188 l -3 671 q 34 801 -3 742 q 138 894 71 859 q 297 929 205 929 l 506 929 q 665 894 597 929 q 769 801 732 859 q 806 671 806 742 l 806 258 q 769 129 806 188 q 665 35 732 70 q 506 0 597 0 l 297 0 m 342 307 l 524 307 l 593 315 l 636 358 l 646 416 l 646 758 l 636 815 l 593 859 l 524 868 l 342 868 l 273 859 l 229 815 l 221 758 l 221 416 l 229 358 l 274 315 l 342 307 m 346 379 l 302 386 l 292 427 l 292 751 l 298 789 l 346 796 l 519 796 l 567 789 l 574 749 l 574 424 l 564 386 l 519 379 l 346 379 z "},"Ó":{"ha":803,"x_min":-3,"x_max":806,"o":"m 297 0 q 138 35 205 0 q 34 129 71 70 q -3 258 -3 188 l -3 671 q 34 801 -3 742 q 138 894 71 859 q 297 929 205 929 l 506 929 q 665 894 597 929 q 769 801 732 859 q 806 671 806 742 l 806 258 q 769 129 806 188 q 665 35 732 70 q 506 0 597 0 l 297 0 m 342 307 l 524 307 l 593 315 l 636 358 l 646 416 l 646 758 l 636 815 l 593 859 l 524 868 l 342 868 l 273 859 l 229 815 l 221 758 l 221 416 l 229 358 l 274 315 l 342 307 m 346 379 l 302 386 l 292 427 l 292 751 l 298 789 l 346 796 l 519 796 l 567 789 l 574 749 l 574 424 l 564 386 l 519 379 l 346 379 m 348 877 q 291 921 317 890 q 266 992 266 951 q 270 1025 266 1002 q 290 1102 275 1049 q 336 1251 305 1155 q 397 1311 353 1294 q 499 1328 441 1328 q 596 1312 550 1328 q 670 1266 642 1297 q 699 1192 699 1236 q 670 1101 699 1151 l 563 918 q 548 895 555 905 q 534 877 541 884 l 348 877 m 401 983 l 448 983 l 551 1210 l 469 1210 l 401 983 z "},"Ŏ":{"ha":803,"x_min":-3,"x_max":806,"o":"m 297 0 q 138 35 205 0 q 34 129 71 70 q -3 258 -3 188 l -3 671 q 34 801 -3 742 q 138 894 71 859 q 297 929 205 929 l 506 929 q 665 894 597 929 q 769 801 732 859 q 806 671 806 742 l 806 258 q 769 129 806 188 q 665 35 732 70 q 506 0 597 0 l 297 0 m 342 307 l 524 307 l 593 315 l 636 358 l 646 416 l 646 758 l 636 815 l 593 859 l 524 868 l 342 868 l 273 859 l 229 815 l 221 758 l 221 416 l 229 358 l 274 315 l 342 307 m 346 379 l 302 386 l 292 427 l 292 751 l 298 789 l 346 796 l 519 796 l 567 789 l 574 749 l 574 424 l 564 386 l 519 379 l 346 379 m 251 877 q 163 958 193 911 q 133 1066 133 1004 q 170 1174 133 1125 q 274 1253 207 1223 q 433 1282 341 1282 q 592 1253 525 1282 q 696 1174 659 1223 q 733 1066 733 1125 q 703 958 733 1004 q 615 877 672 911 l 251 877 m 410 964 l 458 964 l 511 972 l 551 1013 l 559 1080 l 498 1080 l 491 1035 l 451 1025 l 415 1025 l 377 1032 l 370 1080 l 309 1080 l 317 1012 l 357 972 l 410 964 z "},"Ǒ":{"ha":803,"x_min":-3,"x_max":806,"o":"m 297 0 q 138 35 205 0 q 34 129 71 70 q -3 258 -3 188 l -3 671 q 34 801 -3 742 q 138 894 71 859 q 297 929 205 929 l 506 929 q 665 894 597 929 q 769 801 732 859 q 806 671 806 742 l 806 258 q 769 129 806 188 q 665 35 732 70 q 506 0 597 0 l 297 0 m 342 307 l 524 307 l 593 315 l 636 358 l 646 416 l 646 758 l 636 815 l 593 859 l 524 868 l 342 868 l 273 859 l 229 815 l 221 758 l 221 416 l 229 358 l 274 315 l 342 307 m 346 379 l 302 386 l 292 427 l 292 751 l 298 789 l 346 796 l 519 796 l 567 789 l 574 749 l 574 424 l 564 386 l 519 379 l 346 379 m 259 904 q 221 1014 240 958 q 191 1121 203 1071 q 178 1204 178 1171 q 214 1291 178 1252 q 336 1331 249 1331 q 391 1320 370 1331 q 430 1291 412 1309 q 476 1321 451 1310 q 538 1332 501 1332 q 646 1292 613 1332 q 678 1197 678 1252 q 665 1106 678 1160 q 634 998 652 1053 q 600 904 616 943 l 259 904 m 398 982 l 459 982 l 548 1211 l 492 1211 l 429 1013 l 364 1211 l 309 1211 l 398 982 z "},"ǒ":{"ha":803,"x_min":-3,"x_max":806,"o":"m 297 0 q 138 35 205 0 q 34 129 71 70 q -3 258 -3 188 l -3 671 q 34 801 -3 742 q 138 894 71 859 q 297 929 205 929 l 506 929 q 665 894 597 929 q 769 801 732 859 q 806 671 806 742 l 806 258 q 769 129 806 188 q 665 35 732 70 q 506 0 597 0 l 297 0 m 342 307 l 524 307 l 593 315 l 636 358 l 646 416 l 646 758 l 636 815 l 593 859 l 524 868 l 342 868 l 273 859 l 229 815 l 221 758 l 221 416 l 229 358 l 274 315 l 342 307 m 346 379 l 302 386 l 292 427 l 292 751 l 298 789 l 346 796 l 519 796 l 567 789 l 574 749 l 574 424 l 564 386 l 519 379 l 346 379 m 259 904 q 221 1014 240 958 q 191 1121 203 1071 q 178 1204 178 1171 q 214 1291 178 1252 q 336 1331 249 1331 q 391 1320 370 1331 q 430 1291 412 1309 q 476 1321 451 1310 q 538 1332 501 1332 q 646 1292 613 1332 q 678 1197 678 1252 q 665 1106 678 1160 q 634 998 652 1053 q 600 904 616 943 l 259 904 m 398 982 l 459 982 l 548 1211 l 492 1211 l 429 1013 l 364 1211 l 309 1211 l 398 982 z "},"Ô":{"ha":803,"x_min":-3,"x_max":806,"o":"m 297 0 q 138 35 205 0 q 34 129 71 70 q -3 258 -3 188 l -3 671 q 34 801 -3 742 q 138 894 71 859 q 297 929 205 929 l 506 929 q 665 894 597 929 q 769 801 732 859 q 806 671 806 742 l 806 258 q 769 129 806 188 q 665 35 732 70 q 506 0 597 0 l 297 0 m 342 307 l 524 307 l 593 315 l 636 358 l 646 416 l 646 758 l 636 815 l 593 859 l 524 868 l 342 868 l 273 859 l 229 815 l 221 758 l 221 416 l 229 358 l 274 315 l 342 307 m 346 379 l 302 386 l 292 427 l 292 751 l 298 789 l 346 796 l 519 796 l 567 789 l 574 749 l 574 424 l 564 386 l 519 379 l 346 379 m 213 877 q 182 921 192 895 q 172 975 172 947 q 189 1059 172 1008 q 231 1166 205 1109 q 280 1276 256 1223 q 334 1328 300 1310 q 425 1345 368 1345 q 515 1325 481 1345 q 573 1255 549 1305 q 622 1145 601 1197 q 655 1054 640 1099 q 671 983 671 1009 q 625 877 671 913 l 213 877 m 302 983 l 357 983 l 422 1181 l 486 983 l 541 983 l 452 1212 l 391 1212 l 302 983 z "},"Ȍ":{"ha":803,"x_min":-3,"x_max":806,"o":"m 297 0 q 138 35 205 0 q 34 129 71 70 q -3 258 -3 188 l -3 671 q 34 801 -3 742 q 138 894 71 859 q 297 929 205 929 l 506 929 q 665 894 597 929 q 769 801 732 859 q 806 671 806 742 l 806 258 q 769 129 806 188 q 665 35 732 70 q 506 0 597 0 l 297 0 m 342 307 l 524 307 l 593 315 l 636 358 l 646 416 l 646 758 l 636 815 l 593 859 l 524 868 l 342 868 l 273 859 l 229 815 l 221 758 l 221 416 l 229 358 l 274 315 l 342 307 m 346 379 l 302 386 l 292 427 l 292 751 l 298 789 l 346 796 l 519 796 l 567 789 l 574 749 l 574 424 l 564 386 l 519 379 l 346 379 m 231 877 l 60 1131 l 165 1329 l 228 1329 q 276 1320 256 1325 q 311 1306 296 1316 l 322 1329 l 385 1329 q 446 1317 422 1325 q 487 1290 470 1308 q 522 1238 504 1272 l 644 1012 q 648 968 648 989 q 616 877 648 911 l 231 877 m 326 968 l 361 968 l 239 1195 l 176 1195 l 326 968 m 484 968 l 518 968 l 396 1195 l 333 1195 l 484 968 z "},"Ö":{"ha":803,"x_min":-3,"x_max":806,"o":"m 297 0 q 138 35 205 0 q 34 129 71 70 q -3 258 -3 188 l -3 671 q 34 801 -3 742 q 138 894 71 859 q 297 929 205 929 l 506 929 q 665 894 597 929 q 769 801 732 859 q 806 671 806 742 l 806 258 q 769 129 806 188 q 665 35 732 70 q 506 0 597 0 l 297 0 m 342 307 l 524 307 l 593 315 l 636 358 l 646 416 l 646 758 l 636 815 l 593 859 l 524 868 l 342 868 l 273 859 l 229 815 l 221 758 l 221 416 l 229 358 l 274 315 l 342 307 m 346 379 l 302 386 l 292 427 l 292 751 l 298 789 l 346 796 l 519 796 l 567 789 l 574 749 l 574 424 l 564 386 l 519 379 l 346 379 m 239 890 q 172 963 195 920 q 149 1060 149 1007 q 182 1160 149 1114 q 277 1235 216 1206 q 421 1263 338 1263 q 566 1235 505 1263 q 661 1160 627 1206 q 694 1060 694 1114 q 602 890 694 949 l 239 890 m 283 1003 l 372 1003 l 372 1090 l 283 1090 l 283 1003 m 460 1003 l 549 1003 l 549 1090 l 460 1090 l 460 1003 z "},"Ò":{"ha":803,"x_min":-3,"x_max":806,"o":"m 297 0 q 138 35 205 0 q 34 129 71 70 q -3 258 -3 188 l -3 671 q 34 801 -3 742 q 138 894 71 859 q 297 929 205 929 l 506 929 q 665 894 597 929 q 769 801 732 859 q 806 671 806 742 l 806 258 q 769 129 806 188 q 665 35 732 70 q 506 0 597 0 l 297 0 m 342 307 l 524 307 l 593 315 l 636 358 l 646 416 l 646 758 l 636 815 l 593 859 l 524 868 l 342 868 l 273 859 l 229 815 l 221 758 l 221 416 l 229 358 l 274 315 l 342 307 m 346 379 l 302 386 l 292 427 l 292 751 l 298 789 l 346 796 l 519 796 l 567 789 l 574 749 l 574 424 l 564 386 l 519 379 l 346 379 m 306 877 q 292 895 298 884 q 277 918 285 905 l 170 1101 q 140 1192 139 1153 q 169 1266 140 1236 q 244 1312 198 1297 q 340 1328 290 1328 q 443 1311 398 1328 q 503 1251 487 1294 q 549 1102 534 1155 q 569 1025 564 1049 q 574 992 574 1002 q 549 921 574 951 q 492 877 524 890 l 306 877 m 392 983 l 439 983 l 371 1210 l 289 1210 l 392 983 z "},"Ő":{"ha":803,"x_min":-3,"x_max":806,"o":"m 297 0 q 138 35 205 0 q 34 129 71 70 q -3 258 -3 188 l -3 671 q 34 801 -3 742 q 138 894 71 859 q 297 929 205 929 l 506 929 q 665 894 597 929 q 769 801 732 859 q 806 671 806 742 l 806 258 q 769 129 806 188 q 665 35 732 70 q 506 0 597 0 l 297 0 m 342 307 l 524 307 l 593 315 l 636 358 l 646 416 l 646 758 l 636 815 l 593 859 l 524 868 l 342 868 l 273 859 l 229 815 l 221 758 l 221 416 l 229 358 l 274 315 l 342 307 m 346 379 l 302 386 l 292 427 l 292 751 l 298 789 l 346 796 l 519 796 l 567 789 l 574 749 l 574 424 l 564 386 l 519 379 l 346 379 m 247 877 q 215 968 215 911 q 219 1012 215 989 l 341 1238 q 395 1305 368 1288 q 479 1329 422 1323 l 541 1329 l 553 1306 q 588 1320 568 1316 q 636 1329 608 1325 l 699 1329 l 804 1131 l 633 877 l 247 877 m 346 968 l 380 968 l 530 1195 l 468 1195 l 346 968 m 503 968 l 537 968 l 687 1195 l 625 1195 l 503 968 z "},"Ȏ":{"ha":803,"x_min":-3,"x_max":806,"o":"m 297 0 q 138 35 205 0 q 34 129 71 70 q -3 258 -3 188 l -3 671 q 34 801 -3 742 q 138 894 71 859 q 297 929 205 929 l 506 929 q 665 894 597 929 q 769 801 732 859 q 806 671 806 742 l 806 258 q 769 129 806 188 q 665 35 732 70 q 506 0 597 0 l 297 0 m 342 307 l 524 307 l 593 315 l 636 358 l 646 416 l 646 758 l 636 815 l 593 859 l 524 868 l 342 868 l 273 859 l 229 815 l 221 758 l 221 416 l 229 358 l 274 315 l 342 307 m 346 379 l 302 386 l 292 427 l 292 751 l 298 789 l 346 796 l 519 796 l 567 789 l 574 749 l 574 424 l 564 386 l 519 379 l 346 379 m 239 877 q 152 958 182 911 q 121 1066 121 1004 q 158 1174 121 1125 q 262 1253 195 1223 q 421 1282 330 1282 q 581 1253 513 1282 q 685 1174 648 1223 q 722 1066 722 1125 q 691 958 722 1004 q 604 877 661 911 l 239 877 m 296 986 l 357 986 l 364 1033 l 402 1040 l 438 1040 l 478 1030 l 486 986 l 547 986 l 538 1053 l 498 1093 l 445 1101 l 397 1101 l 344 1093 l 304 1054 l 296 986 z "},"Ō":{"ha":803,"x_min":-3,"x_max":806,"o":"m 297 0 q 138 35 205 0 q 34 129 71 70 q -3 258 -3 188 l -3 671 q 34 801 -3 742 q 138 894 71 859 q 297 929 205 929 l 506 929 q 665 894 597 929 q 769 801 732 859 q 806 671 806 742 l 806 258 q 769 129 806 188 q 665 35 732 70 q 506 0 597 0 l 297 0 m 342 307 l 524 307 l 593 315 l 636 358 l 646 416 l 646 758 l 636 815 l 593 859 l 524 868 l 342 868 l 273 859 l 229 815 l 221 758 l 221 416 l 229 358 l 274 315 l 342 307 m 346 379 l 302 386 l 292 427 l 292 751 l 298 789 l 346 796 l 519 796 l 567 789 l 574 749 l 574 424 l 564 386 l 519 379 l 346 379 m 252 877 q 164 958 195 911 q 134 1066 134 1004 q 171 1174 134 1125 q 275 1253 208 1223 q 434 1282 342 1282 q 593 1253 526 1282 q 697 1174 661 1223 q 734 1066 734 1125 q 704 958 734 1004 q 616 877 673 911 l 252 877 m 297 1019 l 552 1019 l 552 1092 l 297 1092 l 297 1019 z "},"Ø":{"ha":803,"x_min":-3,"x_max":806,"o":"m 297 0 q 138 35 205 0 q 34 129 71 70 q -3 258 -3 188 l -3 671 q 34 801 -3 742 q 138 894 71 859 q 297 929 205 929 l 506 929 q 665 894 597 929 q 769 801 732 859 q 806 671 806 742 l 806 258 q 769 129 806 188 q 665 35 732 70 q 506 0 597 0 l 297 0 m 334 311 l 516 311 l 586 319 l 629 362 l 638 420 l 638 760 l 629 816 l 586 859 l 516 869 l 334 869 l 264 859 l 222 816 l 212 760 l 212 420 l 222 362 l 266 319 l 334 311 m 284 434 l 284 752 l 291 790 l 338 797 l 513 797 q 519 796 515 797 q 524 795 522 795 l 284 434 m 336 383 q 332 384 334 383 q 329 385 330 385 l 566 752 l 566 427 l 557 390 l 512 383 l 336 383 z "},"Õ":{"ha":803,"x_min":-3,"x_max":806,"o":"m 297 0 q 138 35 205 0 q 34 129 71 70 q -3 258 -3 188 l -3 671 q 34 801 -3 742 q 138 894 71 859 q 297 929 205 929 l 506 929 q 665 894 597 929 q 769 801 732 859 q 806 671 806 742 l 806 258 q 769 129 806 188 q 665 35 732 70 q 506 0 597 0 l 297 0 m 342 307 l 524 307 l 593 315 l 636 358 l 646 416 l 646 758 l 636 815 l 593 859 l 524 868 l 342 868 l 273 859 l 229 815 l 221 758 l 221 416 l 229 358 l 274 315 l 342 307 m 346 379 l 302 386 l 292 427 l 292 751 l 298 789 l 346 796 l 519 796 l 567 789 l 574 749 l 574 424 l 564 386 l 519 379 l 346 379 m 228 890 q 138 1080 138 964 q 175 1209 138 1150 q 279 1302 212 1267 q 437 1337 346 1337 q 597 1302 530 1337 q 701 1209 664 1267 q 738 1080 738 1150 q 649 890 738 966 l 228 890 m 521 971 q 559 986 547 971 q 574 1023 571 1002 q 578 1060 578 1044 l 578 1082 l 517 1082 q 500 1041 507 1052 q 484 1031 493 1031 q 456 1042 473 1031 q 410 1064 439 1053 q 334 1075 381 1075 q 295 1057 307 1075 q 280 1017 283 1039 q 277 982 277 995 l 277 974 l 338 974 q 350 1009 343 1000 q 367 1019 357 1019 q 400 1007 380 1019 q 449 983 420 995 q 521 971 478 971 z "},"Œ":{"ha":803,"x_min":-3,"x_max":806,"o":"m 297 0 q 138 35 205 0 q 34 129 71 70 q -3 258 -3 188 l -3 671 q 34 801 -3 742 q 138 894 71 859 q 297 929 205 929 l 506 929 q 665 894 597 929 q 769 801 732 859 q 806 671 806 742 l 806 258 q 769 129 806 188 q 665 35 732 70 q 506 0 597 0 l 297 0 m 275 307 l 351 307 l 421 315 l 443 338 l 443 307 l 667 307 l 667 379 l 473 379 l 473 551 l 635 551 l 635 623 l 472 623 l 472 796 l 657 796 l 657 868 l 443 868 l 443 836 l 421 859 l 351 868 l 275 868 l 205 859 l 163 815 l 154 758 l 154 416 l 163 358 l 207 315 l 275 307 m 279 379 l 235 386 l 225 427 l 225 751 l 232 789 l 279 796 l 347 796 l 395 789 l 401 749 l 401 424 l 392 386 l 347 379 l 279 379 z "},"P":{"ha":803,"x_min":-3,"x_max":806,"o":"m 297 0 q 138 35 205 0 q 34 129 71 70 q -3 258 -3 188 l -3 671 q 34 801 -3 742 q 138 894 71 859 q 297 929 205 929 l 506 929 q 665 894 597 929 q 769 801 732 859 q 806 671 806 742 l 806 258 q 769 129 806 188 q 665 35 732 70 q 506 0 597 0 l 297 0 m 256 307 l 326 307 l 326 507 l 509 507 l 578 515 l 621 558 l 631 616 l 631 758 l 621 815 l 578 859 l 509 868 l 256 868 l 256 307 m 326 579 l 326 796 l 505 796 l 551 789 l 558 749 l 558 624 l 549 586 l 505 579 l 326 579 z "},"Þ":{"ha":803,"x_min":-3,"x_max":806,"o":"m 297 0 q 138 35 205 0 q 34 129 71 70 q -3 258 -3 188 l -3 671 q 34 801 -3 742 q 138 894 71 859 q 297 929 205 929 l 506 929 q 665 894 597 929 q 769 801 732 859 q 806 671 806 742 l 806 258 q 769 129 806 188 q 665 35 732 70 q 506 0 597 0 l 297 0 m 256 307 l 326 307 l 326 464 l 509 464 l 578 472 l 621 515 l 631 574 l 631 660 l 621 717 l 578 760 l 509 770 l 326 770 l 326 889 l 256 889 l 256 307 m 326 536 l 326 697 l 505 697 l 551 690 l 558 650 l 558 581 l 549 543 l 505 536 l 326 536 z "},"Q":{"ha":803,"x_min":-3,"x_max":806,"o":"m 297 0 q 138 35 205 0 q 34 129 71 70 q -3 258 -3 188 l -3 671 q 34 801 -3 742 q 138 894 71 859 q 297 929 205 929 l 506 929 q 665 894 597 929 q 769 801 732 859 q 806 671 806 742 l 806 258 q 769 129 806 188 q 665 35 732 70 q 506 0 597 0 l 297 0 m 517 203 l 581 233 l 543 310 l 595 315 l 637 358 l 647 416 l 647 758 l 637 815 l 595 859 l 525 868 l 343 868 l 274 859 l 231 815 l 222 758 l 222 416 l 231 358 l 275 315 l 343 307 l 464 307 l 517 203 m 347 379 l 303 386 l 293 427 l 293 751 l 300 789 l 347 796 l 521 796 l 568 789 l 575 749 l 575 424 l 566 386 l 521 379 l 507 379 l 467 458 l 404 424 l 425 379 l 347 379 z "},"R":{"ha":803,"x_min":-3,"x_max":806,"o":"m 297 0 q 138 35 205 0 q 34 129 71 70 q -3 258 -3 188 l -3 671 q 34 801 -3 742 q 138 894 71 859 q 297 929 205 929 l 506 929 q 665 894 597 929 q 769 801 732 859 q 806 671 806 742 l 806 258 q 769 129 806 188 q 665 35 732 70 q 506 0 597 0 l 297 0 m 233 307 l 306 307 l 306 533 l 482 533 l 530 511 l 541 475 l 541 307 l 612 307 l 612 482 l 589 545 l 511 572 l 586 608 l 607 669 l 607 745 l 599 802 l 554 859 l 486 868 l 233 868 l 233 307 m 306 606 l 306 796 l 482 796 l 530 775 l 535 736 l 535 664 l 525 627 l 482 606 l 306 606 z "},"Ŕ":{"ha":803,"x_min":-3,"x_max":806,"o":"m 297 0 q 138 35 205 0 q 34 129 71 70 q -3 258 -3 188 l -3 671 q 34 801 -3 742 q 138 894 71 859 q 297 929 205 929 l 506 929 q 665 894 597 929 q 769 801 732 859 q 806 671 806 742 l 806 258 q 769 129 806 188 q 665 35 732 70 q 506 0 597 0 l 297 0 m 233 307 l 306 307 l 306 533 l 482 533 l 530 511 l 541 475 l 541 307 l 612 307 l 612 482 l 589 545 l 511 572 l 586 608 l 607 669 l 607 745 l 599 802 l 554 859 l 486 868 l 233 868 l 233 307 m 306 606 l 306 796 l 482 796 l 530 775 l 535 736 l 535 664 l 525 627 l 482 606 l 306 606 m 348 877 q 291 921 317 890 q 266 992 266 951 q 270 1025 266 1002 q 290 1102 275 1049 q 336 1251 305 1155 q 397 1311 353 1294 q 499 1328 441 1328 q 596 1312 550 1328 q 670 1266 642 1297 q 699 1192 699 1236 q 670 1101 699 1151 l 563 918 q 548 895 555 905 q 534 877 541 884 l 348 877 m 401 983 l 448 983 l 551 1210 l 469 1210 l 401 983 z "},"Ř":{"ha":803,"x_min":-3,"x_max":806,"o":"m 297 0 q 138 35 205 0 q 34 129 71 70 q -3 258 -3 188 l -3 671 q 34 801 -3 742 q 138 894 71 859 q 297 929 205 929 l 506 929 q 665 894 597 929 q 769 801 732 859 q 806 671 806 742 l 806 258 q 769 129 806 188 q 665 35 732 70 q 506 0 597 0 l 297 0 m 233 307 l 306 307 l 306 533 l 482 533 l 530 511 l 541 475 l 541 307 l 612 307 l 612 482 l 589 545 l 511 572 l 586 608 l 607 669 l 607 745 l 599 802 l 554 859 l 486 868 l 233 868 l 233 307 m 306 606 l 306 796 l 482 796 l 530 775 l 535 736 l 535 664 l 525 627 l 482 606 l 306 606 m 259 904 q 221 1014 240 958 q 191 1121 203 1071 q 178 1204 178 1171 q 214 1291 178 1252 q 336 1331 249 1331 q 391 1320 370 1331 q 430 1291 412 1309 q 476 1321 451 1310 q 538 1332 501 1332 q 646 1292 613 1332 q 678 1197 678 1252 q 665 1106 678 1160 q 634 998 652 1053 q 600 904 616 943 l 259 904 m 398 982 l 459 982 l 548 1211 l 492 1211 l 429 1013 l 364 1211 l 309 1211 l 398 982 z "},"Ŗ":{"ha":803,"x_min":-3,"x_max":806,"o":"m 297 0 q 138 35 205 0 q 34 129 71 70 q -3 258 -3 188 l -3 671 q 34 801 -3 742 q 138 894 71 859 q 297 929 205 929 l 506 929 q 665 894 597 929 q 769 801 732 859 q 806 671 806 742 l 806 258 q 769 129 806 188 q 665 35 732 70 q 506 0 597 0 l 297 0 m 233 307 l 306 307 l 306 533 l 482 533 l 530 511 l 541 475 l 541 307 l 612 307 l 612 482 l 589 545 l 511 572 l 586 608 l 607 669 l 607 745 l 599 802 l 554 859 l 486 868 l 233 868 l 233 307 m 306 606 l 306 796 l 482 796 l 530 775 l 535 736 l 535 664 l 525 627 l 482 606 l 306 606 m 452 81 l 493 168 l 493 256 l 391 256 l 391 168 l 435 168 l 408 100 l 452 81 z "},"Ȑ":{"ha":803,"x_min":-3,"x_max":806,"o":"m 297 0 q 138 35 205 0 q 34 129 71 70 q -3 258 -3 188 l -3 671 q 34 801 -3 742 q 138 894 71 859 q 297 929 205 929 l 506 929 q 665 894 597 929 q 769 801 732 859 q 806 671 806 742 l 806 258 q 769 129 806 188 q 665 35 732 70 q 506 0 597 0 l 297 0 m 233 307 l 306 307 l 306 533 l 482 533 l 530 511 l 541 475 l 541 307 l 612 307 l 612 482 l 589 545 l 511 572 l 586 608 l 607 669 l 607 745 l 599 802 l 554 859 l 486 868 l 233 868 l 233 307 m 306 606 l 306 796 l 482 796 l 530 775 l 535 736 l 535 664 l 525 627 l 482 606 l 306 606 m 231 877 l 60 1131 l 165 1329 l 228 1329 q 276 1320 256 1325 q 311 1306 296 1316 l 322 1329 l 385 1329 q 446 1317 422 1325 q 487 1290 470 1308 q 522 1238 504 1272 l 644 1012 q 648 968 648 989 q 616 877 648 911 l 231 877 m 326 968 l 361 968 l 239 1195 l 176 1195 l 326 968 m 484 968 l 518 968 l 396 1195 l 333 1195 l 484 968 z "},"Ȓ":{"ha":803,"x_min":-3,"x_max":806,"o":"m 297 0 q 138 35 205 0 q 34 129 71 70 q -3 258 -3 188 l -3 671 q 34 801 -3 742 q 138 894 71 859 q 297 929 205 929 l 506 929 q 665 894 597 929 q 769 801 732 859 q 806 671 806 742 l 806 258 q 769 129 806 188 q 665 35 732 70 q 506 0 597 0 l 297 0 m 233 307 l 306 307 l 306 533 l 482 533 l 530 511 l 541 475 l 541 307 l 612 307 l 612 482 l 589 545 l 511 572 l 586 608 l 607 669 l 607 745 l 599 802 l 554 859 l 486 868 l 233 868 l 233 307 m 306 606 l 306 796 l 482 796 l 530 775 l 535 736 l 535 664 l 525 627 l 482 606 l 306 606 m 239 877 q 152 958 182 911 q 121 1066 121 1004 q 158 1174 121 1125 q 262 1253 195 1223 q 421 1282 330 1282 q 581 1253 513 1282 q 685 1174 648 1223 q 722 1066 722 1125 q 691 958 722 1004 q 604 877 661 911 l 239 877 m 296 986 l 357 986 l 364 1033 l 402 1040 l 438 1040 l 478 1030 l 486 986 l 547 986 l 538 1053 l 498 1093 l 445 1101 l 397 1101 l 344 1093 l 304 1054 l 296 986 z "},"S":{"ha":803,"x_min":-3,"x_max":806,"o":"m 297 0 q 138 35 205 0 q 34 129 71 70 q -3 258 -3 188 l -3 671 q 34 801 -3 742 q 138 894 71 859 q 297 929 205 929 l 506 929 q 665 894 597 929 q 769 801 732 859 q 806 671 806 742 l 806 258 q 769 129 806 188 q 665 35 732 70 q 506 0 597 0 l 297 0 m 335 307 l 511 307 l 581 315 l 624 358 l 633 416 l 633 519 l 624 578 l 581 621 l 510 628 l 358 628 l 317 636 l 307 676 l 307 747 l 317 787 l 361 796 l 534 796 l 597 783 l 614 857 l 535 868 l 357 868 l 289 859 l 245 815 l 236 758 l 236 665 l 245 608 l 289 566 l 357 557 l 510 557 l 551 550 l 561 513 l 561 424 l 551 386 l 507 379 l 339 379 l 273 390 l 256 317 l 335 307 z "},"Ś":{"ha":803,"x_min":-3,"x_max":806,"o":"m 297 0 q 138 35 205 0 q 34 129 71 70 q -3 258 -3 188 l -3 671 q 34 801 -3 742 q 138 894 71 859 q 297 929 205 929 l 506 929 q 665 894 597 929 q 769 801 732 859 q 806 671 806 742 l 806 258 q 769 129 806 188 q 665 35 732 70 q 506 0 597 0 l 297 0 m 335 307 l 511 307 l 581 315 l 624 358 l 633 416 l 633 519 l 624 578 l 581 621 l 510 628 l 358 628 l 317 636 l 307 676 l 307 747 l 317 787 l 361 796 l 534 796 l 597 783 l 614 857 l 535 868 l 357 868 l 289 859 l 245 815 l 236 758 l 236 665 l 245 608 l 289 566 l 357 557 l 510 557 l 551 550 l 561 513 l 561 424 l 551 386 l 507 379 l 339 379 l 273 390 l 256 317 l 335 307 m 348 877 q 291 921 317 890 q 266 992 266 951 q 270 1025 266 1002 q 290 1102 275 1049 q 336 1251 305 1155 q 397 1311 353 1294 q 499 1328 441 1328 q 596 1312 550 1328 q 670 1266 642 1297 q 699 1192 699 1236 q 670 1101 699 1151 l 563 918 q 548 895 555 905 q 534 877 541 884 l 348 877 m 401 983 l 448 983 l 551 1210 l 469 1210 l 401 983 z "},"Š":{"ha":803,"x_min":-3,"x_max":806,"o":"m 297 0 q 138 35 205 0 q 34 129 71 70 q -3 258 -3 188 l -3 671 q 34 801 -3 742 q 138 894 71 859 q 297 929 205 929 l 506 929 q 665 894 597 929 q 769 801 732 859 q 806 671 806 742 l 806 258 q 769 129 806 188 q 665 35 732 70 q 506 0 597 0 l 297 0 m 335 307 l 511 307 l 581 315 l 624 358 l 633 416 l 633 519 l 624 578 l 581 621 l 510 628 l 358 628 l 317 636 l 307 676 l 307 747 l 317 787 l 361 796 l 534 796 l 597 783 l 614 857 l 535 868 l 357 868 l 289 859 l 245 815 l 236 758 l 236 665 l 245 608 l 289 566 l 357 557 l 510 557 l 551 550 l 561 513 l 561 424 l 551 386 l 507 379 l 339 379 l 273 390 l 256 317 l 335 307 m 259 904 q 221 1014 240 958 q 191 1121 203 1071 q 178 1204 178 1171 q 214 1291 178 1252 q 336 1331 249 1331 q 391 1320 370 1331 q 430 1291 412 1309 q 476 1321 451 1310 q 538 1332 501 1332 q 646 1292 613 1332 q 678 1197 678 1252 q 665 1106 678 1160 q 634 998 652 1053 q 600 904 616 943 l 259 904 m 398 982 l 459 982 l 548 1211 l 492 1211 l 429 1013 l 364 1211 l 309 1211 l 398 982 z "},"Ş":{"ha":803,"x_min":-3,"x_max":806,"o":"m 297 0 q 138 35 205 0 q 34 129 71 70 q -3 258 -3 188 l -3 671 q 34 801 -3 742 q 138 894 71 859 q 297 929 205 929 l 506 929 q 665 894 597 929 q 769 801 732 859 q 806 671 806 742 l 806 258 q 769 129 806 188 q 665 35 732 70 q 506 0 597 0 l 297 0 m 335 307 l 421 307 l 421 281 l 373 281 l 334 242 l 326 203 l 326 191 l 334 138 l 374 98 l 471 90 l 471 151 l 396 157 l 387 197 l 393 221 l 469 228 l 469 307 l 511 307 l 581 315 l 624 358 l 633 416 l 633 519 l 624 578 l 581 621 l 510 628 l 358 628 l 317 636 l 307 676 l 307 747 l 317 787 l 361 796 l 534 796 l 597 783 l 614 857 l 535 868 l 357 868 l 289 859 l 245 815 l 236 758 l 236 665 l 245 608 l 289 566 l 357 557 l 510 557 l 551 550 l 561 513 l 561 424 l 551 386 l 507 379 l 339 379 l 273 390 l 256 317 l 335 307 z "},"Ŝ":{"ha":803,"x_min":-3,"x_max":806,"o":"m 297 0 q 138 35 205 0 q 34 129 71 70 q -3 258 -3 188 l -3 671 q 34 801 -3 742 q 138 894 71 859 q 297 929 205 929 l 506 929 q 665 894 597 929 q 769 801 732 859 q 806 671 806 742 l 806 258 q 769 129 806 188 q 665 35 732 70 q 506 0 597 0 l 297 0 m 335 307 l 511 307 l 581 315 l 624 358 l 633 416 l 633 519 l 624 578 l 581 621 l 510 628 l 358 628 l 317 636 l 307 676 l 307 747 l 317 787 l 361 796 l 534 796 l 597 783 l 614 857 l 535 868 l 357 868 l 289 859 l 245 815 l 236 758 l 236 665 l 245 608 l 289 566 l 357 557 l 510 557 l 551 550 l 561 513 l 561 424 l 551 386 l 507 379 l 339 379 l 273 390 l 256 317 l 335 307 m 213 877 q 182 921 192 895 q 172 975 172 947 q 189 1059 172 1008 q 231 1166 205 1109 q 280 1276 256 1223 q 334 1328 300 1310 q 425 1345 368 1345 q 515 1325 481 1345 q 573 1255 549 1305 q 622 1145 601 1197 q 655 1054 640 1099 q 671 983 671 1009 q 625 877 671 913 l 213 877 m 302 983 l 357 983 l 422 1181 l 486 983 l 541 983 l 452 1212 l 391 1212 l 302 983 z "},"Ș":{"ha":803,"x_min":-3,"x_max":806,"o":"m 297 0 q 138 35 205 0 q 34 129 71 70 q -3 258 -3 188 l -3 671 q 34 801 -3 742 q 138 894 71 859 q 297 929 205 929 l 506 929 q 665 894 597 929 q 769 801 732 859 q 806 671 806 742 l 806 258 q 769 129 806 188 q 665 35 732 70 q 506 0 597 0 l 297 0 m 335 307 l 511 307 l 581 315 l 624 358 l 633 416 l 633 519 l 624 578 l 581 621 l 510 628 l 358 628 l 317 636 l 307 676 l 307 747 l 317 787 l 361 796 l 534 796 l 597 783 l 614 857 l 535 868 l 357 868 l 289 859 l 245 815 l 236 758 l 236 665 l 245 608 l 289 566 l 357 557 l 510 557 l 551 550 l 561 513 l 561 424 l 551 386 l 507 379 l 339 379 l 273 390 l 256 317 l 335 307 m 443 85 l 484 173 l 484 260 l 382 260 l 382 173 l 426 173 l 399 104 l 443 85 z "},"Ṡ":{"ha":803,"x_min":-3,"x_max":806,"o":"m 297 0 q 138 35 205 0 q 34 129 71 70 q -3 258 -3 188 l -3 671 q 34 801 -3 742 q 138 894 71 859 q 297 929 205 929 l 506 929 q 665 894 597 929 q 769 801 732 859 q 806 671 806 742 l 806 258 q 769 129 806 188 q 665 35 732 70 q 506 0 597 0 l 297 0 m 335 307 l 511 307 l 581 315 l 624 358 l 633 416 l 633 519 l 624 578 l 581 621 l 510 628 l 358 628 l 317 636 l 307 676 l 307 747 l 317 787 l 361 796 l 534 796 l 597 783 l 614 857 l 535 868 l 357 868 l 289 859 l 245 815 l 236 758 l 236 665 l 245 608 l 289 566 l 357 557 l 510 557 l 551 550 l 561 513 l 561 424 l 551 386 l 507 379 l 339 379 l 273 390 l 256 317 l 335 307 m 194 877 q 146 958 163 907 q 129 1054 129 1010 q 166 1162 129 1113 q 270 1241 203 1211 q 429 1270 337 1270 q 588 1241 521 1270 q 692 1162 655 1211 q 729 1054 729 1113 q 713 957 729 1001 q 665 877 696 913 l 194 877 m 382 994 l 471 994 l 471 1081 l 382 1081 l 382 994 z "},"ṡ":{"ha":803,"x_min":-3,"x_max":806,"o":"m 297 0 q 138 35 205 0 q 34 129 71 70 q -3 258 -3 188 l -3 671 q 34 801 -3 742 q 138 894 71 859 q 297 929 205 929 l 506 929 q 665 894 597 929 q 769 801 732 859 q 806 671 806 742 l 806 258 q 769 129 806 188 q 665 35 732 70 q 506 0 597 0 l 297 0 m 335 307 l 511 307 l 581 315 l 624 358 l 633 416 l 633 519 l 624 578 l 581 621 l 510 628 l 358 628 l 317 636 l 307 676 l 307 747 l 317 787 l 361 796 l 534 796 l 597 783 l 614 857 l 535 868 l 357 868 l 289 859 l 245 815 l 236 758 l 236 665 l 245 608 l 289 566 l 357 557 l 510 557 l 551 550 l 561 513 l 561 424 l 551 386 l 507 379 l 339 379 l 273 390 l 256 317 l 335 307 m 194 877 q 146 958 163 907 q 129 1054 129 1010 q 166 1162 129 1113 q 270 1241 203 1211 q 429 1270 337 1270 q 588 1241 521 1270 q 692 1162 655 1211 q 729 1054 729 1113 q 713 957 729 1001 q 665 877 696 913 l 194 877 m 382 994 l 471 994 l 471 1081 l 382 1081 l 382 994 z "},"ẞ":{"ha":803,"x_min":-3,"x_max":806,"o":"m 297 0 q 138 35 205 0 q 34 129 71 70 q -3 258 -3 188 l -3 671 q 34 801 -3 742 q 138 894 71 859 q 297 929 205 929 l 506 929 q 665 894 597 929 q 769 801 732 859 q 806 671 806 742 l 806 258 q 769 129 806 188 q 665 35 732 70 q 506 0 597 0 l 297 0 z "},"T":{"ha":803,"x_min":-3,"x_max":806,"o":"m 297 0 q 138 35 205 0 q 34 129 71 70 q -3 258 -3 188 l -3 671 q 34 801 -3 742 q 138 894 71 859 q 297 929 205 929 l 506 929 q 665 894 597 929 q 769 801 732 859 q 806 671 806 742 l 806 258 q 769 129 806 188 q 665 35 732 70 q 506 0 597 0 l 297 0 m 403 307 l 475 307 l 475 796 l 635 796 l 635 868 l 243 868 l 243 796 l 403 796 l 403 307 z "},"Ŧ":{"ha":803,"x_min":-3,"x_max":806,"o":"m 297 0 q 138 35 205 0 q 34 129 71 70 q -3 258 -3 188 l -3 671 q 34 801 -3 742 q 138 894 71 859 q 297 929 205 929 l 506 929 q 665 894 597 929 q 769 801 732 859 q 806 671 806 742 l 806 258 q 769 129 806 188 q 665 35 732 70 q 506 0 597 0 l 297 0 m 403 307 l 475 307 l 475 546 l 564 546 l 564 608 l 475 608 l 475 796 l 635 796 l 635 868 l 243 868 l 243 796 l 403 796 l 403 608 l 309 608 l 309 546 l 403 546 l 403 307 z "},"Ť":{"ha":803,"x_min":-3,"x_max":806,"o":"m 297 0 q 138 35 205 0 q 34 129 71 70 q -3 258 -3 188 l -3 671 q 34 801 -3 742 q 138 894 71 859 q 297 929 205 929 l 506 929 q 665 894 597 929 q 769 801 732 859 q 806 671 806 742 l 806 258 q 769 129 806 188 q 665 35 732 70 q 506 0 597 0 l 297 0 m 403 307 l 475 307 l 475 796 l 635 796 l 635 868 l 243 868 l 243 796 l 403 796 l 403 307 m 259 904 q 221 1014 240 958 q 191 1121 203 1071 q 178 1204 178 1171 q 214 1291 178 1252 q 336 1331 249 1331 q 391 1320 370 1331 q 430 1291 412 1309 q 476 1321 451 1310 q 538 1332 501 1332 q 646 1292 613 1332 q 678 1197 678 1252 q 665 1106 678 1160 q 634 998 652 1053 q 600 904 616 943 l 259 904 m 398 982 l 459 982 l 548 1211 l 492 1211 l 429 1013 l 364 1211 l 309 1211 l 398 982 z "},"Ţ":{"ha":803,"x_min":-3,"x_max":806,"o":"m 297 0 q 138 35 205 0 q 34 129 71 70 q -3 258 -3 188 l -3 671 q 34 801 -3 742 q 138 894 71 859 q 297 929 205 929 l 506 929 q 665 894 597 929 q 769 801 732 859 q 806 671 806 742 l 806 258 q 769 129 806 188 q 665 35 732 70 q 506 0 597 0 l 297 0 m 388 281 l 356 281 l 317 242 l 309 203 l 309 191 l 317 138 l 357 98 l 454 90 l 454 151 l 379 157 l 370 197 l 376 221 l 460 228 l 460 796 l 635 796 l 635 868 l 243 868 l 243 796 l 388 796 l 388 281 z "},"Ț":{"ha":803,"x_min":-3,"x_max":806,"o":"m 297 0 q 138 35 205 0 q 34 129 71 70 q -3 258 -3 188 l -3 671 q 34 801 -3 742 q 138 894 71 859 q 297 929 205 929 l 506 929 q 665 894 597 929 q 769 801 732 859 q 806 671 806 742 l 806 258 q 769 129 806 188 q 665 35 732 70 q 506 0 597 0 l 297 0 m 403 307 l 452 307 l 452 796 l 635 796 l 635 868 l 243 868 l 243 796 l 403 796 l 403 307 m 452 81 l 493 168 l 493 256 l 391 256 l 391 168 l 435 168 l 408 100 l 452 81 z "},"U":{"ha":803,"x_min":-3,"x_max":806,"o":"m 297 0 q 138 35 205 0 q 34 129 71 70 q -3 258 -3 188 l -3 671 q 34 801 -3 742 q 138 894 71 859 q 297 929 205 929 l 506 929 q 665 894 597 929 q 769 801 732 859 q 806 671 806 742 l 806 258 q 769 129 806 188 q 665 35 732 70 q 506 0 597 0 l 297 0 m 338 307 l 519 307 l 589 315 l 632 358 l 642 416 l 642 868 l 570 868 l 570 424 l 559 386 l 515 379 l 342 379 l 297 386 l 288 427 l 288 868 l 217 868 l 217 416 l 225 358 l 269 315 l 338 307 z "},"Ú":{"ha":803,"x_min":-3,"x_max":806,"o":"m 297 0 q 138 35 205 0 q 34 129 71 70 q -3 258 -3 188 l -3 671 q 34 801 -3 742 q 138 894 71 859 q 297 929 205 929 l 506 929 q 665 894 597 929 q 769 801 732 859 q 806 671 806 742 l 806 258 q 769 129 806 188 q 665 35 732 70 q 506 0 597 0 l 297 0 m 338 307 l 519 307 l 589 315 l 632 358 l 642 416 l 642 868 l 570 868 l 570 424 l 559 386 l 515 379 l 342 379 l 297 386 l 288 427 l 288 868 l 217 868 l 217 416 l 225 358 l 269 315 l 338 307 m 348 877 q 291 921 317 890 q 266 992 266 951 q 270 1025 266 1002 q 290 1102 275 1049 q 336 1251 305 1155 q 397 1311 353 1294 q 499 1328 441 1328 q 596 1312 550 1328 q 670 1266 642 1297 q 699 1192 699 1236 q 670 1101 699 1151 l 563 918 q 548 895 555 905 q 534 877 541 884 l 348 877 m 401 983 l 448 983 l 551 1210 l 469 1210 l 401 983 z "},"Ŭ":{"ha":803,"x_min":-3,"x_max":806,"o":"m 297 0 q 138 35 205 0 q 34 129 71 70 q -3 258 -3 188 l -3 671 q 34 801 -3 742 q 138 894 71 859 q 297 929 205 929 l 506 929 q 665 894 597 929 q 769 801 732 859 q 806 671 806 742 l 806 258 q 769 129 806 188 q 665 35 732 70 q 506 0 597 0 l 297 0 m 338 307 l 519 307 l 589 315 l 632 358 l 642 416 l 642 868 l 570 868 l 570 424 l 559 386 l 515 379 l 342 379 l 297 386 l 288 427 l 288 868 l 217 868 l 217 416 l 225 358 l 269 315 l 338 307 m 251 877 q 163 958 193 911 q 133 1066 133 1004 q 170 1174 133 1125 q 274 1253 207 1223 q 433 1282 341 1282 q 592 1253 525 1282 q 696 1174 659 1223 q 733 1066 733 1125 q 703 958 733 1004 q 615 877 672 911 l 251 877 m 410 964 l 458 964 l 511 972 l 551 1013 l 559 1080 l 498 1080 l 491 1035 l 451 1025 l 415 1025 l 377 1032 l 370 1080 l 309 1080 l 317 1012 l 357 972 l 410 964 z "},"Ǔ":{"ha":803,"x_min":-3,"x_max":806,"o":"m 297 0 q 138 35 205 0 q 34 129 71 70 q -3 258 -3 188 l -3 671 q 34 801 -3 742 q 138 894 71 859 q 297 929 205 929 l 506 929 q 665 894 597 929 q 769 801 732 859 q 806 671 806 742 l 806 258 q 769 129 806 188 q 665 35 732 70 q 506 0 597 0 l 297 0 m 338 307 l 519 307 l 589 315 l 632 358 l 642 416 l 642 868 l 570 868 l 570 424 l 559 386 l 515 379 l 342 379 l 297 386 l 288 427 l 288 868 l 217 868 l 217 416 l 225 358 l 269 315 l 338 307 m 259 904 q 221 1014 240 958 q 191 1121 203 1071 q 178 1204 178 1171 q 214 1291 178 1252 q 336 1331 249 1331 q 391 1320 370 1331 q 430 1291 412 1309 q 476 1321 451 1310 q 538 1332 501 1332 q 646 1292 613 1332 q 678 1197 678 1252 q 665 1106 678 1160 q 634 998 652 1053 q 600 904 616 943 l 259 904 m 398 982 l 459 982 l 548 1211 l 492 1211 l 429 1013 l 364 1211 l 309 1211 l 398 982 z "},"Û":{"ha":803,"x_min":-3,"x_max":806,"o":"m 297 0 q 138 35 205 0 q 34 129 71 70 q -3 258 -3 188 l -3 671 q 34 801 -3 742 q 138 894 71 859 q 297 929 205 929 l 506 929 q 665 894 597 929 q 769 801 732 859 q 806 671 806 742 l 806 258 q 769 129 806 188 q 665 35 732 70 q 506 0 597 0 l 297 0 m 338 307 l 519 307 l 589 315 l 632 358 l 642 416 l 642 868 l 570 868 l 570 424 l 559 386 l 515 379 l 342 379 l 297 386 l 288 427 l 288 868 l 217 868 l 217 416 l 225 358 l 269 315 l 338 307 m 213 877 q 182 921 192 895 q 172 975 172 947 q 189 1059 172 1008 q 231 1166 205 1109 q 280 1276 256 1223 q 334 1328 300 1310 q 425 1345 368 1345 q 515 1325 481 1345 q 573 1255 549 1305 q 622 1145 601 1197 q 655 1054 640 1099 q 671 983 671 1009 q 625 877 671 913 l 213 877 m 302 983 l 357 983 l 422 1181 l 486 983 l 541 983 l 452 1212 l 391 1212 l 302 983 z "},"Ȕ":{"ha":803,"x_min":-3,"x_max":806,"o":"m 297 0 q 138 35 205 0 q 34 129 71 70 q -3 258 -3 188 l -3 671 q 34 801 -3 742 q 138 894 71 859 q 297 929 205 929 l 506 929 q 665 894 597 929 q 769 801 732 859 q 806 671 806 742 l 806 258 q 769 129 806 188 q 665 35 732 70 q 506 0 597 0 l 297 0 m 338 307 l 519 307 l 589 315 l 632 358 l 642 416 l 642 868 l 570 868 l 570 424 l 559 386 l 515 379 l 342 379 l 297 386 l 288 427 l 288 868 l 217 868 l 217 416 l 225 358 l 269 315 l 338 307 m 231 877 l 60 1131 l 165 1329 l 228 1329 q 276 1320 256 1325 q 311 1306 296 1316 l 322 1329 l 385 1329 q 446 1317 422 1325 q 487 1290 470 1308 q 522 1238 504 1272 l 644 1012 q 648 968 648 989 q 616 877 648 911 l 231 877 m 326 968 l 361 968 l 239 1195 l 176 1195 l 326 968 m 484 968 l 518 968 l 396 1195 l 333 1195 l 484 968 z "},"Ü":{"ha":803,"x_min":-3,"x_max":806,"o":"m 297 0 q 138 35 205 0 q 34 129 71 70 q -3 258 -3 188 l -3 671 q 34 801 -3 742 q 138 894 71 859 q 297 929 205 929 l 506 929 q 665 894 597 929 q 769 801 732 859 q 806 671 806 742 l 806 258 q 769 129 806 188 q 665 35 732 70 q 506 0 597 0 l 297 0 m 338 307 l 519 307 l 589 315 l 632 358 l 642 416 l 642 868 l 570 868 l 570 424 l 559 386 l 515 379 l 342 379 l 297 386 l 288 427 l 288 868 l 217 868 l 217 416 l 225 358 l 269 315 l 338 307 m 239 890 q 172 963 195 920 q 149 1060 149 1007 q 182 1160 149 1114 q 277 1235 216 1206 q 421 1263 338 1263 q 566 1235 505 1263 q 661 1160 627 1206 q 694 1060 694 1114 q 602 890 694 949 l 239 890 m 283 1003 l 372 1003 l 372 1090 l 283 1090 l 283 1003 m 460 1003 l 549 1003 l 549 1090 l 460 1090 l 460 1003 z "},"Ù":{"ha":803,"x_min":-3,"x_max":806,"o":"m 297 0 q 138 35 205 0 q 34 129 71 70 q -3 258 -3 188 l -3 671 q 34 801 -3 742 q 138 894 71 859 q 297 929 205 929 l 506 929 q 665 894 597 929 q 769 801 732 859 q 806 671 806 742 l 806 258 q 769 129 806 188 q 665 35 732 70 q 506 0 597 0 l 297 0 m 338 307 l 519 307 l 589 315 l 632 358 l 642 416 l 642 868 l 570 868 l 570 424 l 559 386 l 515 379 l 342 379 l 297 386 l 288 427 l 288 868 l 217 868 l 217 416 l 225 358 l 269 315 l 338 307 m 306 877 q 292 895 298 884 q 277 918 285 905 l 170 1101 q 140 1192 139 1153 q 169 1266 140 1236 q 244 1312 198 1297 q 340 1328 290 1328 q 443 1311 398 1328 q 503 1251 487 1294 q 549 1102 534 1155 q 569 1025 564 1049 q 574 992 574 1002 q 549 921 574 951 q 492 877 524 890 l 306 877 m 392 983 l 439 983 l 371 1210 l 289 1210 l 392 983 z "},"Ű":{"ha":803,"x_min":-3,"x_max":806,"o":"m 297 0 q 138 35 205 0 q 34 129 71 70 q -3 258 -3 188 l -3 671 q 34 801 -3 742 q 138 894 71 859 q 297 929 205 929 l 506 929 q 665 894 597 929 q 769 801 732 859 q 806 671 806 742 l 806 258 q 769 129 806 188 q 665 35 732 70 q 506 0 597 0 l 297 0 m 338 307 l 519 307 l 589 315 l 632 358 l 642 416 l 642 868 l 570 868 l 570 424 l 559 386 l 515 379 l 342 379 l 297 386 l 288 427 l 288 868 l 217 868 l 217 416 l 225 358 l 269 315 l 338 307 m 247 877 q 215 968 215 911 q 219 1012 215 989 l 341 1238 q 395 1305 368 1288 q 479 1329 422 1323 l 541 1329 l 553 1306 q 588 1320 568 1316 q 636 1329 608 1325 l 699 1329 l 804 1131 l 633 877 l 247 877 m 346 968 l 380 968 l 530 1195 l 468 1195 l 346 968 m 503 968 l 537 968 l 687 1195 l 625 1195 l 503 968 z "},"Ȗ":{"ha":803,"x_min":-3,"x_max":806,"o":"m 297 0 q 138 35 205 0 q 34 129 71 70 q -3 258 -3 188 l -3 671 q 34 801 -3 742 q 138 894 71 859 q 297 929 205 929 l 506 929 q 665 894 597 929 q 769 801 732 859 q 806 671 806 742 l 806 258 q 769 129 806 188 q 665 35 732 70 q 506 0 597 0 l 297 0 m 338 307 l 519 307 l 589 315 l 632 358 l 642 416 l 642 868 l 570 868 l 570 424 l 559 386 l 515 379 l 342 379 l 297 386 l 288 427 l 288 868 l 217 868 l 217 416 l 225 358 l 269 315 l 338 307 m 239 877 q 152 958 182 911 q 121 1066 121 1004 q 158 1174 121 1125 q 262 1253 195 1223 q 421 1282 330 1282 q 581 1253 513 1282 q 685 1174 648 1223 q 722 1066 722 1125 q 691 958 722 1004 q 604 877 661 911 l 239 877 m 296 986 l 357 986 l 364 1033 l 402 1040 l 438 1040 l 478 1030 l 486 986 l 547 986 l 538 1053 l 498 1093 l 445 1101 l 397 1101 l 344 1093 l 304 1054 l 296 986 z "},"Ū":{"ha":803,"x_min":-3,"x_max":806,"o":"m 297 0 q 138 35 205 0 q 34 129 71 70 q -3 258 -3 188 l -3 671 q 34 801 -3 742 q 138 894 71 859 q 297 929 205 929 l 506 929 q 665 894 597 929 q 769 801 732 859 q 806 671 806 742 l 806 258 q 769 129 806 188 q 665 35 732 70 q 506 0 597 0 l 297 0 m 338 307 l 519 307 l 589 315 l 632 358 l 642 416 l 642 868 l 570 868 l 570 424 l 559 386 l 515 379 l 342 379 l 297 386 l 288 427 l 288 868 l 217 868 l 217 416 l 225 358 l 269 315 l 338 307 m 252 877 q 164 958 195 911 q 134 1066 134 1004 q 171 1174 134 1125 q 275 1253 208 1223 q 434 1282 342 1282 q 593 1253 526 1282 q 697 1174 661 1223 q 734 1066 734 1125 q 704 958 734 1004 q 616 877 673 911 l 252 877 m 297 1019 l 552 1019 l 552 1092 l 297 1092 l 297 1019 z "},"Ų":{"ha":803,"x_min":-3,"x_max":806,"o":"m 297 0 q 138 35 205 0 q 34 129 71 70 q -3 258 -3 188 l -3 671 q 34 801 -3 742 q 138 894 71 859 q 297 929 205 929 l 506 929 q 665 894 597 929 q 769 801 732 859 q 806 671 806 742 l 806 258 q 769 129 806 188 q 665 35 732 70 q 506 0 597 0 l 297 0 m 514 89 l 514 150 l 439 157 l 429 197 l 436 221 l 511 307 l 519 307 l 589 315 l 632 358 l 642 416 l 642 868 l 570 868 l 570 424 q 565 405 568 415 q 559 386 562 395 l 515 379 l 342 379 l 297 386 l 288 427 l 288 868 l 217 868 l 217 416 l 225 358 l 269 315 l 338 307 l 464 307 l 415 281 l 376 241 l 368 191 l 376 138 l 416 97 l 514 89 z "},"Ů":{"ha":803,"x_min":-3,"x_max":806,"o":"m 297 0 q 138 35 205 0 q 34 129 71 70 q -3 258 -3 188 l -3 671 q 34 801 -3 742 q 138 894 71 859 q 297 929 205 929 l 506 929 q 665 894 597 929 q 769 801 732 859 q 806 671 806 742 l 806 258 q 769 129 806 188 q 665 35 732 70 q 506 0 597 0 l 297 0 m 338 307 l 519 307 l 589 315 l 632 358 l 642 416 l 642 868 l 570 868 l 570 424 l 559 386 l 515 379 l 342 379 l 297 386 l 288 427 l 288 868 l 217 868 l 217 416 l 225 358 l 269 315 l 338 307 m 219 890 q 174 970 189 925 q 159 1064 159 1015 q 191 1194 159 1135 q 280 1288 222 1253 q 418 1322 338 1322 q 554 1288 496 1322 q 644 1194 612 1253 q 676 1064 676 1135 q 616 890 676 963 l 219 890 m 394 982 l 440 982 l 488 990 l 528 1028 l 533 1086 l 528 1153 l 488 1189 l 440 1199 l 394 1199 l 344 1189 l 308 1153 l 300 1093 l 308 1027 l 344 990 l 394 982 m 397 1036 l 359 1043 l 353 1090 l 359 1138 l 399 1145 l 436 1145 l 473 1135 l 480 1090 l 473 1046 l 433 1036 l 397 1036 z "},"Ũ":{"ha":803,"x_min":-3,"x_max":806,"o":"m 297 0 q 138 35 205 0 q 34 129 71 70 q -3 258 -3 188 l -3 671 q 34 801 -3 742 q 138 894 71 859 q 297 929 205 929 l 506 929 q 665 894 597 929 q 769 801 732 859 q 806 671 806 742 l 806 258 q 769 129 806 188 q 665 35 732 70 q 506 0 597 0 l 297 0 m 338 307 l 519 307 l 589 315 l 632 358 l 642 416 l 642 868 l 570 868 l 570 424 l 559 386 l 515 379 l 342 379 l 297 386 l 288 427 l 288 868 l 217 868 l 217 416 l 225 358 l 269 315 l 338 307 m 228 890 q 138 1080 138 964 q 175 1209 138 1150 q 279 1302 212 1267 q 437 1337 346 1337 q 597 1302 530 1337 q 701 1209 664 1267 q 738 1080 738 1150 q 649 890 738 966 l 228 890 m 521 971 q 559 986 547 971 q 574 1023 571 1002 q 578 1060 578 1044 l 578 1082 l 517 1082 q 500 1041 507 1052 q 484 1031 493 1031 q 456 1042 473 1031 q 410 1064 439 1053 q 334 1075 381 1075 q 295 1057 307 1075 q 280 1017 283 1039 q 277 982 277 995 l 277 974 l 338 974 q 350 1009 343 1000 q 367 1019 357 1019 q 400 1007 380 1019 q 449 983 420 995 q 521 971 478 971 z "},"V":{"ha":803,"x_min":-3,"x_max":806,"o":"m 297 0 q 138 35 205 0 q 34 129 71 70 q -3 258 -3 188 l -3 671 q 34 801 -3 742 q 138 894 71 859 q 297 929 205 929 l 506 929 q 665 894 597 929 q 769 801 732 859 q 806 671 806 742 l 806 258 q 769 129 806 188 q 665 35 732 70 q 506 0 597 0 l 297 0 m 427 302 l 472 315 l 513 355 l 646 854 l 567 868 l 444 383 l 429 378 l 411 382 l 289 868 l 210 854 l 343 355 l 383 315 l 427 302 z "},"W":{"ha":803,"x_min":-3,"x_max":806,"o":"m 297 0 q 138 35 205 0 q 34 129 71 70 q -3 258 -3 188 l -3 671 q 34 801 -3 742 q 138 894 71 859 q 297 929 205 929 l 506 929 q 665 894 597 929 q 769 801 732 859 q 806 671 806 742 l 806 258 q 769 129 806 188 q 665 35 732 70 q 506 0 597 0 l 297 0 m 289 304 l 334 315 l 375 357 l 420 656 l 464 357 l 506 315 l 550 304 l 595 315 l 636 357 l 690 854 l 612 868 l 567 382 l 549 378 l 534 383 l 453 846 l 386 846 l 306 383 l 290 378 l 273 382 l 227 868 l 149 854 l 203 357 l 245 315 l 289 304 z "},"Ẃ":{"ha":803,"x_min":-3,"x_max":806,"o":"m 297 0 q 138 35 205 0 q 34 129 71 70 q -3 258 -3 188 l -3 671 q 34 801 -3 742 q 138 894 71 859 q 297 929 205 929 l 506 929 q 665 894 597 929 q 769 801 732 859 q 806 671 806 742 l 806 258 q 769 129 806 188 q 665 35 732 70 q 506 0 597 0 l 297 0 m 289 304 l 334 315 l 375 357 l 420 656 l 464 357 l 506 315 l 550 304 l 595 315 l 636 357 l 690 854 l 612 868 l 567 382 l 549 378 l 534 383 l 453 846 l 386 846 l 306 383 l 290 378 l 273 382 l 227 868 l 149 854 l 203 357 l 245 315 l 289 304 m 348 877 q 291 921 317 890 q 266 992 266 951 q 270 1025 266 1002 q 290 1102 275 1049 q 336 1251 305 1155 q 397 1311 353 1294 q 499 1328 441 1328 q 596 1312 550 1328 q 670 1266 642 1297 q 699 1192 699 1236 q 670 1101 699 1151 l 563 918 q 548 895 555 905 q 534 877 541 884 l 348 877 m 401 983 l 448 983 l 551 1210 l 469 1210 l 401 983 z "},"Ŵ":{"ha":803,"x_min":-3,"x_max":806,"o":"m 297 0 q 138 35 205 0 q 34 129 71 70 q -3 258 -3 188 l -3 671 q 34 801 -3 742 q 138 894 71 859 q 297 929 205 929 l 506 929 q 665 894 597 929 q 769 801 732 859 q 806 671 806 742 l 806 258 q 769 129 806 188 q 665 35 732 70 q 506 0 597 0 l 297 0 m 289 304 l 334 315 l 375 357 l 420 656 l 464 357 l 506 315 l 550 304 l 595 315 l 636 357 l 690 854 l 612 868 l 567 382 l 549 378 l 534 383 l 453 846 l 386 846 l 306 383 l 290 378 l 273 382 l 227 868 l 149 854 l 203 357 l 245 315 l 289 304 m 213 877 q 182 921 192 895 q 172 975 172 947 q 189 1059 172 1008 q 231 1166 205 1109 q 280 1276 256 1223 q 334 1328 300 1310 q 425 1345 368 1345 q 515 1325 481 1345 q 573 1255 549 1305 q 622 1145 601 1197 q 655 1054 640 1099 q 671 983 671 1009 q 625 877 671 913 l 213 877 m 302 983 l 357 983 l 422 1181 l 486 983 l 541 983 l 452 1212 l 391 1212 l 302 983 z "},"Ẅ":{"ha":803,"x_min":-3,"x_max":806,"o":"m 297 0 q 138 35 205 0 q 34 129 71 70 q -3 258 -3 188 l -3 671 q 34 801 -3 742 q 138 894 71 859 q 297 929 205 929 l 506 929 q 665 894 597 929 q 769 801 732 859 q 806 671 806 742 l 806 258 q 769 129 806 188 q 665 35 732 70 q 506 0 597 0 l 297 0 m 289 304 l 334 315 l 375 357 l 420 656 l 464 357 l 506 315 l 550 304 l 595 315 l 636 357 l 690 854 l 612 868 l 567 382 l 549 378 l 534 383 l 453 846 l 386 846 l 306 383 l 290 378 l 273 382 l 227 868 l 149 854 l 203 357 l 245 315 l 289 304 m 239 890 q 172 963 195 920 q 149 1060 149 1007 q 182 1160 149 1114 q 277 1235 216 1206 q 421 1263 338 1263 q 566 1235 505 1263 q 661 1160 627 1206 q 694 1060 694 1114 q 602 890 694 949 l 239 890 m 283 1003 l 372 1003 l 372 1090 l 283 1090 l 283 1003 m 460 1003 l 549 1003 l 549 1090 l 460 1090 l 460 1003 z "},"Ẁ":{"ha":803,"x_min":-3,"x_max":806,"o":"m 297 0 q 138 35 205 0 q 34 129 71 70 q -3 258 -3 188 l -3 671 q 34 801 -3 742 q 138 894 71 859 q 297 929 205 929 l 506 929 q 665 894 597 929 q 769 801 732 859 q 806 671 806 742 l 806 258 q 769 129 806 188 q 665 35 732 70 q 506 0 597 0 l 297 0 m 289 304 l 334 315 l 375 357 l 420 656 l 464 357 l 506 315 l 550 304 l 595 315 l 636 357 l 690 854 l 612 868 l 567 382 l 549 378 l 534 383 l 453 846 l 386 846 l 306 383 l 290 378 l 273 382 l 227 868 l 149 854 l 203 357 l 245 315 l 289 304 m 306 877 q 292 895 298 884 q 277 918 285 905 l 170 1101 q 140 1192 139 1153 q 169 1266 140 1236 q 244 1312 198 1297 q 340 1328 290 1328 q 443 1311 398 1328 q 503 1251 487 1294 q 549 1102 534 1155 q 569 1025 564 1049 q 574 992 574 1002 q 549 921 574 951 q 492 877 524 890 l 306 877 m 392 983 l 439 983 l 371 1210 l 289 1210 l 392 983 z "},"X":{"ha":803,"x_min":-3,"x_max":806,"o":"m 297 0 q 138 35 205 0 q 34 129 71 70 q -3 258 -3 188 l -3 671 q 34 801 -3 742 q 138 894 71 859 q 297 929 205 929 l 506 929 q 665 894 597 929 q 769 801 732 859 q 806 671 806 742 l 806 258 q 769 129 806 188 q 665 35 732 70 q 506 0 597 0 l 297 0 m 285 306 l 435 542 l 589 306 l 653 332 l 496 586 l 656 844 l 589 869 l 435 625 l 285 869 l 220 842 l 378 586 l 221 332 l 285 306 z "},"Y":{"ha":803,"x_min":-3,"x_max":806,"o":"m 297 0 q 138 35 205 0 q 34 129 71 70 q -3 258 -3 188 l -3 671 q 34 801 -3 742 q 138 894 71 859 q 297 929 205 929 l 506 929 q 665 894 597 929 q 769 801 732 859 q 806 671 806 742 l 806 258 q 769 129 806 188 q 665 35 732 70 q 506 0 597 0 l 297 0 m 396 307 l 468 307 l 468 464 l 640 868 l 555 868 l 432 564 l 311 868 l 227 868 l 396 465 l 396 307 z "},"Ý":{"ha":803,"x_min":-3,"x_max":806,"o":"m 297 0 q 138 35 205 0 q 34 129 71 70 q -3 258 -3 188 l -3 671 q 34 801 -3 742 q 138 894 71 859 q 297 929 205 929 l 506 929 q 665 894 597 929 q 769 801 732 859 q 806 671 806 742 l 806 258 q 769 129 806 188 q 665 35 732 70 q 506 0 597 0 l 297 0 m 396 307 l 468 307 l 468 464 l 640 868 l 555 868 l 432 564 l 311 868 l 227 868 l 396 465 l 396 307 m 348 877 q 291 921 317 890 q 266 992 266 951 q 270 1025 266 1002 q 290 1102 275 1049 q 336 1251 305 1155 q 397 1311 353 1294 q 499 1328 441 1328 q 596 1312 550 1328 q 670 1266 642 1297 q 699 1192 699 1236 q 670 1101 699 1151 l 563 918 q 548 895 555 905 q 534 877 541 884 l 348 877 m 401 983 l 448 983 l 551 1210 l 469 1210 l 401 983 z "},"Ŷ":{"ha":803,"x_min":-3,"x_max":806,"o":"m 297 0 q 138 35 205 0 q 34 129 71 70 q -3 258 -3 188 l -3 671 q 34 801 -3 742 q 138 894 71 859 q 297 929 205 929 l 506 929 q 665 894 597 929 q 769 801 732 859 q 806 671 806 742 l 806 258 q 769 129 806 188 q 665 35 732 70 q 506 0 597 0 l 297 0 m 396 307 l 468 307 l 468 464 l 640 868 l 555 868 l 432 564 l 311 868 l 227 868 l 396 465 l 396 307 m 213 877 q 182 921 192 895 q 172 975 172 947 q 189 1059 172 1008 q 231 1166 205 1109 q 280 1276 256 1223 q 334 1328 300 1310 q 425 1345 368 1345 q 515 1325 481 1345 q 573 1255 549 1305 q 622 1145 601 1197 q 655 1054 640 1099 q 671 983 671 1009 q 625 877 671 913 l 213 877 m 302 983 l 357 983 l 422 1181 l 486 983 l 541 983 l 452 1212 l 391 1212 l 302 983 z "},"Ÿ":{"ha":803,"x_min":-3,"x_max":806,"o":"m 297 0 q 138 35 205 0 q 34 129 71 70 q -3 258 -3 188 l -3 671 q 34 801 -3 742 q 138 894 71 859 q 297 929 205 929 l 506 929 q 665 894 597 929 q 769 801 732 859 q 806 671 806 742 l 806 258 q 769 129 806 188 q 665 35 732 70 q 506 0 597 0 l 297 0 m 396 307 l 468 307 l 468 464 l 640 868 l 555 868 l 432 564 l 311 868 l 227 868 l 396 465 l 396 307 m 239 890 q 172 963 195 920 q 149 1060 149 1007 q 182 1160 149 1114 q 277 1235 216 1206 q 421 1263 338 1263 q 566 1235 505 1263 q 661 1160 627 1206 q 694 1060 694 1114 q 602 890 694 949 l 239 890 m 283 1003 l 372 1003 l 372 1090 l 283 1090 l 283 1003 m 460 1003 l 549 1003 l 549 1090 l 460 1090 l 460 1003 z "},"Ẏ":{"ha":803,"x_min":-3,"x_max":806,"o":"m 297 0 q 138 35 205 0 q 34 129 71 70 q -3 258 -3 188 l -3 671 q 34 801 -3 742 q 138 894 71 859 q 297 929 205 929 l 506 929 q 665 894 597 929 q 769 801 732 859 q 806 671 806 742 l 806 258 q 769 129 806 188 q 665 35 732 70 q 506 0 597 0 l 297 0 m 396 307 l 468 307 l 468 464 l 640 868 l 555 868 l 432 564 l 311 868 l 227 868 l 396 465 l 396 307 m 194 877 q 146 958 163 907 q 129 1054 129 1010 q 166 1162 129 1113 q 270 1241 203 1211 q 429 1270 337 1270 q 588 1241 521 1270 q 692 1162 655 1211 q 729 1054 729 1113 q 713 957 729 1001 q 665 877 696 913 l 194 877 m 382 994 l 471 994 l 471 1081 l 382 1081 l 382 994 z "},"Ỳ":{"ha":803,"x_min":-3,"x_max":806,"o":"m 297 0 q 138 35 205 0 q 34 129 71 70 q -3 258 -3 188 l -3 671 q 34 801 -3 742 q 138 894 71 859 q 297 929 205 929 l 506 929 q 665 894 597 929 q 769 801 732 859 q 806 671 806 742 l 806 258 q 769 129 806 188 q 665 35 732 70 q 506 0 597 0 l 297 0 m 396 307 l 468 307 l 468 464 l 640 868 l 555 868 l 432 564 l 311 868 l 227 868 l 396 465 l 396 307 m 306 877 q 292 895 298 884 q 277 918 285 905 l 170 1101 q 140 1192 139 1153 q 169 1266 140 1236 q 244 1312 198 1297 q 340 1328 290 1328 q 443 1311 398 1328 q 503 1251 487 1294 q 549 1102 534 1155 q 569 1025 564 1049 q 574 992 574 1002 q 549 921 574 951 q 492 877 524 890 l 306 877 m 392 983 l 439 983 l 371 1210 l 289 1210 l 392 983 z "},"Ỹ":{"ha":803,"x_min":-3,"x_max":806,"o":"m 297 0 q 138 35 205 0 q 34 129 71 70 q -3 258 -3 188 l -3 671 q 34 801 -3 742 q 138 894 71 859 q 297 929 205 929 l 506 929 q 665 894 597 929 q 769 801 732 859 q 806 671 806 742 l 806 258 q 769 129 806 188 q 665 35 732 70 q 506 0 597 0 l 297 0 m 396 307 l 468 307 l 468 464 l 640 868 l 555 868 l 432 564 l 311 868 l 227 868 l 396 465 l 396 307 m 228 890 q 138 1080 138 964 q 175 1209 138 1150 q 279 1302 212 1267 q 437 1337 346 1337 q 597 1302 530 1337 q 701 1209 664 1267 q 738 1080 738 1150 q 649 890 738 966 l 228 890 m 521 971 q 559 986 547 971 q 574 1023 571 1002 q 578 1060 578 1044 l 578 1082 l 517 1082 q 500 1041 507 1052 q 484 1031 493 1031 q 456 1042 473 1031 q 410 1064 439 1053 q 334 1075 381 1075 q 295 1057 307 1075 q 280 1017 283 1039 q 277 982 277 995 l 277 974 l 338 974 q 350 1009 343 1000 q 367 1019 357 1019 q 400 1007 380 1019 q 449 983 420 995 q 521 971 478 971 z "},"Z":{"ha":803,"x_min":-3,"x_max":806,"o":"m 297 0 q 138 35 205 0 q 34 129 71 70 q -3 258 -3 188 l -3 671 q 34 801 -3 742 q 138 894 71 859 q 297 929 205 929 l 506 929 q 665 894 597 929 q 769 801 732 859 q 806 671 806 742 l 806 258 q 769 129 806 188 q 665 35 732 70 q 506 0 597 0 l 297 0 m 278 307 l 600 307 l 600 378 l 345 378 l 585 808 l 557 868 l 267 868 l 267 796 l 496 796 l 256 366 l 278 307 z "},"Ź":{"ha":803,"x_min":-3,"x_max":806,"o":"m 297 0 q 138 35 205 0 q 34 129 71 70 q -3 258 -3 188 l -3 671 q 34 801 -3 742 q 138 894 71 859 q 297 929 205 929 l 506 929 q 665 894 597 929 q 769 801 732 859 q 806 671 806 742 l 806 258 q 769 129 806 188 q 665 35 732 70 q 506 0 597 0 l 297 0 m 278 307 l 600 307 l 600 378 l 345 378 l 585 808 l 557 868 l 267 868 l 267 796 l 496 796 l 256 366 l 278 307 m 348 877 q 291 921 317 890 q 266 992 266 951 q 270 1025 266 1002 q 290 1102 275 1049 q 336 1251 305 1155 q 397 1311 353 1294 q 499 1328 441 1328 q 596 1312 550 1328 q 670 1266 642 1297 q 699 1192 699 1236 q 670 1101 699 1151 l 563 918 q 548 895 555 905 q 534 877 541 884 l 348 877 m 401 983 l 448 983 l 551 1210 l 469 1210 l 401 983 z "},"Ž":{"ha":803,"x_min":-3,"x_max":806,"o":"m 297 0 q 138 35 205 0 q 34 129 71 70 q -3 258 -3 188 l -3 671 q 34 801 -3 742 q 138 894 71 859 q 297 929 205 929 l 506 929 q 665 894 597 929 q 769 801 732 859 q 806 671 806 742 l 806 258 q 769 129 806 188 q 665 35 732 70 q 506 0 597 0 l 297 0 m 278 307 l 600 307 l 600 378 l 345 378 l 585 808 l 557 868 l 267 868 l 267 796 l 496 796 l 256 366 l 278 307 m 259 904 q 221 1014 240 958 q 191 1121 203 1071 q 178 1204 178 1171 q 214 1291 178 1252 q 336 1331 249 1331 q 391 1320 370 1331 q 430 1291 412 1309 q 476 1321 451 1310 q 538 1332 501 1332 q 646 1292 613 1332 q 678 1197 678 1252 q 665 1106 678 1160 q 634 998 652 1053 q 600 904 616 943 l 259 904 m 398 982 l 459 982 l 548 1211 l 492 1211 l 429 1013 l 364 1211 l 309 1211 l 398 982 z "},"Ż":{"ha":803,"x_min":-3,"x_max":806,"o":"m 297 0 q 138 35 205 0 q 34 129 71 70 q -3 258 -3 188 l -3 671 q 34 801 -3 742 q 138 894 71 859 q 297 929 205 929 l 506 929 q 665 894 597 929 q 769 801 732 859 q 806 671 806 742 l 806 258 q 769 129 806 188 q 665 35 732 70 q 506 0 597 0 l 297 0 m 278 307 l 600 307 l 600 378 l 345 378 l 585 808 l 557 868 l 267 868 l 267 796 l 496 796 l 256 366 l 278 307 m 194 877 q 146 958 163 907 q 129 1054 129 1010 q 166 1162 129 1113 q 270 1241 203 1211 q 429 1270 337 1270 q 588 1241 521 1270 q 692 1162 655 1211 q 729 1054 729 1113 q 713 957 729 1001 q 665 877 696 913 l 194 877 m 382 994 l 471 994 l 471 1081 l 382 1081 l 382 994 z "},"a":{"ha":803,"x_min":-3,"x_max":806,"o":"m 297 0 q 138 35 205 0 q 34 129 71 70 q -3 258 -3 188 l -3 671 q 34 801 -3 742 q 138 894 71 859 q 297 929 205 929 l 506 929 q 665 894 597 929 q 769 801 732 859 q 806 671 806 742 l 806 258 q 769 129 806 188 q 665 35 732 70 q 506 0 597 0 l 297 0 m 321 307 l 469 307 l 522 315 l 589 308 l 589 817 l 543 860 l 475 868 l 321 868 l 241 859 l 258 785 l 322 798 l 473 798 l 514 789 l 524 753 l 524 595 l 475 603 l 321 603 l 253 593 l 210 550 l 200 494 l 200 415 l 210 358 l 253 315 l 321 307 m 325 379 l 282 386 l 273 427 l 273 485 l 278 524 l 325 530 l 472 530 l 524 525 l 524 386 l 471 379 l 325 379 z "},"á":{"ha":803,"x_min":-3,"x_max":806,"o":"m 297 0 q 138 35 205 0 q 34 129 71 70 q -3 258 -3 188 l -3 671 q 34 801 -3 742 q 138 894 71 859 q 297 929 205 929 l 506 929 q 665 894 597 929 q 769 801 732 859 q 806 671 806 742 l 806 258 q 769 129 806 188 q 665 35 732 70 q 506 0 597 0 l 297 0 m 321 307 l 469 307 l 522 315 l 589 308 l 589 817 l 543 860 l 475 868 l 321 868 l 241 859 l 258 785 l 322 798 l 473 798 l 514 789 l 524 753 l 524 595 l 475 603 l 321 603 l 253 593 l 210 550 l 200 494 l 200 415 l 210 358 l 253 315 l 321 307 m 325 379 l 282 386 l 273 427 l 273 485 l 278 524 l 325 530 l 472 530 l 524 525 l 524 386 l 471 379 l 325 379 m 348 877 q 291 921 317 890 q 266 992 266 951 q 270 1025 266 1002 q 290 1102 275 1049 q 336 1251 305 1155 q 397 1311 353 1294 q 499 1328 441 1328 q 596 1312 550 1328 q 670 1266 642 1297 q 699 1192 699 1236 q 670 1101 699 1151 l 563 918 q 548 895 555 905 q 534 877 541 884 l 348 877 m 401 983 l 448 983 l 551 1210 l 469 1210 l 401 983 z "},"ă":{"ha":803,"x_min":-3,"x_max":806,"o":"m 297 0 q 138 35 205 0 q 34 129 71 70 q -3 258 -3 188 l -3 671 q 34 801 -3 742 q 138 894 71 859 q 297 929 205 929 l 506 929 q 665 894 597 929 q 769 801 732 859 q 806 671 806 742 l 806 258 q 769 129 806 188 q 665 35 732 70 q 506 0 597 0 l 297 0 m 321 307 l 469 307 l 522 315 l 589 308 l 589 817 l 543 860 l 475 868 l 321 868 l 241 859 l 258 785 l 322 798 l 473 798 l 514 789 l 524 753 l 524 595 l 475 603 l 321 603 l 253 593 l 210 550 l 200 494 l 200 415 l 210 358 l 253 315 l 321 307 m 325 379 l 282 386 l 273 427 l 273 485 l 278 524 l 325 530 l 472 530 l 524 525 l 524 386 l 471 379 l 325 379 m 251 877 q 163 958 193 911 q 133 1066 133 1004 q 170 1174 133 1125 q 274 1253 207 1223 q 433 1282 341 1282 q 592 1253 525 1282 q 696 1174 659 1223 q 733 1066 733 1125 q 703 958 733 1004 q 615 877 672 911 l 251 877 m 410 964 l 458 964 l 511 972 l 551 1013 l 559 1080 l 498 1080 l 491 1035 l 451 1025 l 415 1025 l 377 1032 l 370 1080 l 309 1080 l 317 1012 l 357 972 l 410 964 z "},"ǎ":{"ha":803,"x_min":-3,"x_max":806,"o":"m 297 0 q 138 35 205 0 q 34 129 71 70 q -3 258 -3 188 l -3 671 q 34 801 -3 742 q 138 894 71 859 q 297 929 205 929 l 506 929 q 665 894 597 929 q 769 801 732 859 q 806 671 806 742 l 806 258 q 769 129 806 188 q 665 35 732 70 q 506 0 597 0 l 297 0 m 321 307 l 469 307 l 522 315 l 589 308 l 589 817 l 543 860 l 475 868 l 321 868 l 241 859 l 258 785 l 322 798 l 473 798 l 514 789 l 524 753 l 524 595 l 475 603 l 321 603 l 253 593 l 210 550 l 200 494 l 200 415 l 210 358 l 253 315 l 321 307 m 325 379 l 282 386 l 273 427 l 273 485 l 278 524 l 325 530 l 472 530 l 524 525 l 524 386 l 471 379 l 325 379 m 259 904 q 221 1014 240 958 q 191 1121 203 1071 q 178 1204 178 1171 q 214 1291 178 1252 q 336 1331 249 1331 q 391 1320 370 1331 q 430 1291 412 1309 q 476 1321 451 1310 q 538 1332 501 1332 q 646 1292 613 1332 q 678 1197 678 1252 q 665 1106 678 1160 q 634 998 652 1053 q 600 904 616 943 l 259 904 m 398 982 l 459 982 l 548 1211 l 492 1211 l 429 1013 l 364 1211 l 309 1211 l 398 982 z "},"â":{"ha":803,"x_min":-3,"x_max":806,"o":"m 297 0 q 138 35 205 0 q 34 129 71 70 q -3 258 -3 188 l -3 671 q 34 801 -3 742 q 138 894 71 859 q 297 929 205 929 l 506 929 q 665 894 597 929 q 769 801 732 859 q 806 671 806 742 l 806 258 q 769 129 806 188 q 665 35 732 70 q 506 0 597 0 l 297 0 m 321 307 l 469 307 l 522 315 l 589 308 l 589 817 l 543 860 l 475 868 l 321 868 l 241 859 l 258 785 l 322 798 l 473 798 l 514 789 l 524 753 l 524 595 l 475 603 l 321 603 l 253 593 l 210 550 l 200 494 l 200 415 l 210 358 l 253 315 l 321 307 m 325 379 l 282 386 l 273 427 l 273 485 l 278 524 l 325 530 l 472 530 l 524 525 l 524 386 l 471 379 l 325 379 m 213 877 q 182 921 192 895 q 172 975 172 947 q 189 1059 172 1008 q 231 1166 205 1109 q 280 1276 256 1223 q 334 1328 300 1310 q 425 1345 368 1345 q 515 1325 481 1345 q 573 1255 549 1305 q 622 1145 601 1197 q 655 1054 640 1099 q 671 983 671 1009 q 625 877 671 913 l 213 877 m 302 983 l 357 983 l 422 1181 l 486 983 l 541 983 l 452 1212 l 391 1212 l 302 983 z "},"ȁ":{"ha":803,"x_min":-3,"x_max":806,"o":"m 297 0 q 138 35 205 0 q 34 129 71 70 q -3 258 -3 188 l -3 671 q 34 801 -3 742 q 138 894 71 859 q 297 929 205 929 l 506 929 q 665 894 597 929 q 769 801 732 859 q 806 671 806 742 l 806 258 q 769 129 806 188 q 665 35 732 70 q 506 0 597 0 l 297 0 m 321 307 l 469 307 l 522 315 l 589 308 l 589 817 l 543 860 l 475 868 l 321 868 l 241 859 l 258 785 l 322 798 l 473 798 l 514 789 l 524 753 l 524 595 l 475 603 l 321 603 l 253 593 l 210 550 l 200 494 l 200 415 l 210 358 l 253 315 l 321 307 m 325 379 l 282 386 l 273 427 l 273 485 l 278 524 l 325 530 l 472 530 l 524 525 l 524 386 l 471 379 l 325 379 m 231 877 l 60 1131 l 165 1329 l 228 1329 q 276 1320 256 1325 q 311 1306 296 1316 l 322 1329 l 385 1329 q 446 1317 422 1325 q 487 1290 470 1308 q 522 1238 504 1272 l 644 1012 q 648 968 648 989 q 616 877 648 911 l 231 877 m 326 968 l 361 968 l 239 1195 l 176 1195 l 326 968 m 484 968 l 518 968 l 396 1195 l 333 1195 l 484 968 z "},"ä":{"ha":803,"x_min":-3,"x_max":806,"o":"m 297 0 q 138 35 205 0 q 34 129 71 70 q -3 258 -3 188 l -3 671 q 34 801 -3 742 q 138 894 71 859 q 297 929 205 929 l 506 929 q 665 894 597 929 q 769 801 732 859 q 806 671 806 742 l 806 258 q 769 129 806 188 q 665 35 732 70 q 506 0 597 0 l 297 0 m 321 307 l 469 307 l 522 315 l 589 308 l 589 817 l 543 860 l 475 868 l 321 868 l 241 859 l 258 785 l 322 798 l 473 798 l 514 789 l 524 753 l 524 595 l 475 603 l 321 603 l 253 593 l 210 550 l 200 494 l 200 415 l 210 358 l 253 315 l 321 307 m 325 379 l 282 386 l 273 427 l 273 485 l 278 524 l 325 530 l 472 530 l 524 525 l 524 386 l 471 379 l 325 379 m 239 890 q 172 963 195 920 q 149 1060 149 1007 q 182 1160 149 1114 q 277 1235 216 1206 q 421 1263 338 1263 q 566 1235 505 1263 q 661 1160 627 1206 q 694 1060 694 1114 q 602 890 694 949 l 239 890 m 283 1003 l 372 1003 l 372 1090 l 283 1090 l 283 1003 m 460 1003 l 549 1003 l 549 1090 l 460 1090 l 460 1003 z "},"à":{"ha":803,"x_min":-3,"x_max":806,"o":"m 297 0 q 138 35 205 0 q 34 129 71 70 q -3 258 -3 188 l -3 671 q 34 801 -3 742 q 138 894 71 859 q 297 929 205 929 l 506 929 q 665 894 597 929 q 769 801 732 859 q 806 671 806 742 l 806 258 q 769 129 806 188 q 665 35 732 70 q 506 0 597 0 l 297 0 m 321 307 l 469 307 l 522 315 l 589 308 l 589 817 l 543 860 l 475 868 l 321 868 l 241 859 l 258 785 l 322 798 l 473 798 l 514 789 l 524 753 l 524 595 l 475 603 l 321 603 l 253 593 l 210 550 l 200 494 l 200 415 l 210 358 l 253 315 l 321 307 m 325 379 l 282 386 l 273 427 l 273 485 l 278 524 l 325 530 l 472 530 l 524 525 l 524 386 l 471 379 l 325 379 m 306 877 q 292 895 298 884 q 277 918 285 905 l 170 1101 q 140 1192 139 1153 q 169 1266 140 1236 q 244 1312 198 1297 q 340 1328 290 1328 q 443 1311 398 1328 q 503 1251 487 1294 q 549 1102 534 1155 q 569 1025 564 1049 q 574 992 574 1002 q 549 921 574 951 q 492 877 524 890 l 306 877 m 392 983 l 439 983 l 371 1210 l 289 1210 l 392 983 z "},"ȃ":{"ha":803,"x_min":-3,"x_max":806,"o":"m 297 0 q 138 35 205 0 q 34 129 71 70 q -3 258 -3 188 l -3 671 q 34 801 -3 742 q 138 894 71 859 q 297 929 205 929 l 506 929 q 665 894 597 929 q 769 801 732 859 q 806 671 806 742 l 806 258 q 769 129 806 188 q 665 35 732 70 q 506 0 597 0 l 297 0 m 321 307 l 469 307 l 522 315 l 589 308 l 589 817 l 543 860 l 475 868 l 321 868 l 241 859 l 258 785 l 322 798 l 473 798 l 514 789 l 524 753 l 524 595 l 475 603 l 321 603 l 253 593 l 210 550 l 200 494 l 200 415 l 210 358 l 253 315 l 321 307 m 325 379 l 282 386 l 273 427 l 273 485 l 278 524 l 325 530 l 472 530 l 524 525 l 524 386 l 471 379 l 325 379 m 239 877 q 152 958 182 911 q 121 1066 121 1004 q 158 1174 121 1125 q 262 1253 195 1223 q 421 1282 330 1282 q 581 1253 513 1282 q 685 1174 648 1223 q 722 1066 722 1125 q 691 958 722 1004 q 604 877 661 911 l 239 877 m 296 986 l 357 986 l 364 1033 l 402 1040 l 438 1040 l 478 1030 l 486 986 l 547 986 l 538 1053 l 498 1093 l 445 1101 l 397 1101 l 344 1093 l 304 1054 l 296 986 z "},"ā":{"ha":803,"x_min":-3,"x_max":806,"o":"m 297 0 q 138 35 205 0 q 34 129 71 70 q -3 258 -3 188 l -3 671 q 34 801 -3 742 q 138 894 71 859 q 297 929 205 929 l 506 929 q 665 894 597 929 q 769 801 732 859 q 806 671 806 742 l 806 258 q 769 129 806 188 q 665 35 732 70 q 506 0 597 0 l 297 0 m 321 307 l 469 307 l 522 315 l 589 308 l 589 817 l 543 860 l 475 868 l 321 868 l 241 859 l 258 785 l 322 798 l 473 798 l 514 789 l 524 753 l 524 595 l 475 603 l 321 603 l 253 593 l 210 550 l 200 494 l 200 415 l 210 358 l 253 315 l 321 307 m 325 379 l 282 386 l 273 427 l 273 485 l 278 524 l 325 530 l 472 530 l 524 525 l 524 386 l 471 379 l 325 379 m 252 877 q 164 958 195 911 q 134 1066 134 1004 q 171 1174 134 1125 q 275 1253 208 1223 q 434 1282 342 1282 q 593 1253 526 1282 q 697 1174 661 1223 q 734 1066 734 1125 q 704 958 734 1004 q 616 877 673 911 l 252 877 m 297 1019 l 552 1019 l 552 1092 l 297 1092 l 297 1019 z "},"ą":{"ha":803,"x_min":-3,"x_max":806,"o":"m 297 0 q 138 35 205 0 q 34 129 71 70 q -3 258 -3 188 l -3 671 q 34 801 -3 742 q 138 894 71 859 q 297 929 205 929 l 506 929 q 665 894 597 929 q 769 801 732 859 q 806 671 806 742 l 806 258 q 769 129 806 188 q 665 35 732 70 q 506 0 597 0 l 297 0 m 478 89 l 478 151 l 403 157 l 393 197 l 400 221 l 475 307 l 596 315 l 596 760 l 586 817 l 543 860 l 475 868 l 321 868 l 241 859 l 258 785 l 322 798 l 473 798 l 514 789 l 524 753 l 524 595 l 475 603 l 321 603 l 253 593 l 210 550 l 200 494 l 200 415 l 210 358 l 253 315 l 321 307 l 428 307 l 380 281 l 340 242 l 332 191 l 340 138 l 381 98 l 478 89 m 325 379 l 282 386 l 273 427 l 273 485 l 278 524 l 325 530 l 472 530 l 524 525 l 524 386 l 471 379 l 325 379 z "},"å":{"ha":803,"x_min":-3,"x_max":806,"o":"m 297 0 q 138 35 205 0 q 34 129 71 70 q -3 258 -3 188 l -3 671 q 34 801 -3 742 q 138 894 71 859 q 297 929 205 929 l 506 929 q 665 894 597 929 q 769 801 732 859 q 806 671 806 742 l 806 258 q 769 129 806 188 q 665 35 732 70 q 506 0 597 0 l 297 0 m 321 307 l 469 307 l 522 315 l 589 308 l 589 817 l 543 860 l 475 868 l 321 868 l 241 859 l 258 785 l 322 798 l 473 798 l 514 789 l 524 753 l 524 595 l 475 603 l 321 603 l 253 593 l 210 550 l 200 494 l 200 415 l 210 358 l 253 315 l 321 307 m 325 379 l 282 386 l 273 427 l 273 485 l 278 524 l 325 530 l 472 530 l 524 525 l 524 386 l 471 379 l 325 379 m 219 890 q 174 970 189 925 q 159 1064 159 1015 q 191 1194 159 1135 q 280 1288 222 1253 q 418 1322 338 1322 q 554 1288 496 1322 q 644 1194 612 1253 q 676 1064 676 1135 q 616 890 676 963 l 219 890 m 394 982 l 440 982 l 488 990 l 528 1028 l 533 1086 l 528 1153 l 488 1189 l 440 1199 l 394 1199 l 344 1189 l 308 1153 l 300 1093 l 308 1027 l 344 990 l 394 982 m 397 1036 l 359 1043 l 353 1090 l 359 1138 l 399 1145 l 436 1145 l 473 1135 l 480 1090 l 473 1046 l 433 1036 l 397 1036 z "},"ã":{"ha":803,"x_min":-3,"x_max":806,"o":"m 297 0 q 138 35 205 0 q 34 129 71 70 q -3 258 -3 188 l -3 671 q 34 801 -3 742 q 138 894 71 859 q 297 929 205 929 l 506 929 q 665 894 597 929 q 769 801 732 859 q 806 671 806 742 l 806 258 q 769 129 806 188 q 665 35 732 70 q 506 0 597 0 l 297 0 m 321 307 l 469 307 l 522 315 l 589 308 l 589 817 l 543 860 l 475 868 l 321 868 l 241 859 l 258 785 l 322 798 l 473 798 l 514 789 l 524 753 l 524 595 l 475 603 l 321 603 l 253 593 l 210 550 l 200 494 l 200 415 l 210 358 l 253 315 l 321 307 m 325 379 l 282 386 l 273 427 l 273 485 l 278 524 l 325 530 l 472 530 l 524 525 l 524 386 l 471 379 l 325 379 m 228 890 q 138 1080 138 964 q 175 1209 138 1150 q 279 1302 212 1267 q 437 1337 346 1337 q 597 1302 530 1337 q 701 1209 664 1267 q 738 1080 738 1150 q 649 890 738 966 l 228 890 m 521 971 q 559 986 547 971 q 574 1023 571 1002 q 578 1060 578 1044 l 578 1082 l 517 1082 q 500 1041 507 1052 q 484 1031 493 1031 q 456 1042 473 1031 q 410 1064 439 1053 q 334 1075 381 1075 q 295 1057 307 1075 q 280 1017 283 1039 q 277 982 277 995 l 277 974 l 338 974 q 350 1009 343 1000 q 367 1019 357 1019 q 400 1007 380 1019 q 449 983 420 995 q 521 971 478 971 z "},"æ":{"ha":803,"x_min":-3,"x_max":806,"o":"m 297 0 q 138 35 205 0 q 34 129 71 70 q -3 258 -3 188 l -3 671 q 34 801 -3 742 q 138 894 71 859 q 297 929 205 929 l 506 929 q 665 894 597 929 q 769 801 732 859 q 806 671 806 742 l 806 258 q 769 129 806 188 q 665 35 732 70 q 506 0 597 0 l 297 0 m 168 311 l 240 311 l 252 400 l 391 400 l 391 311 l 640 311 l 640 382 l 463 382 l 463 555 l 640 555 l 640 627 l 463 627 l 463 798 l 640 798 l 640 869 l 355 869 l 265 856 l 224 814 l 168 311 m 260 472 l 293 787 q 326 792 312 789 q 358 798 340 795 l 391 798 l 391 472 l 260 472 z "},"b":{"ha":803,"x_min":-3,"x_max":806,"o":"m 297 0 q 138 35 205 0 q 34 129 71 70 q -3 258 -3 188 l -3 671 q 34 801 -3 742 q 138 894 71 859 q 297 929 205 929 l 506 929 q 665 894 597 929 q 769 801 732 859 q 806 671 806 742 l 806 258 q 769 129 806 188 q 665 35 732 70 q 506 0 597 0 l 297 0 m 208 307 l 493 307 l 563 315 l 606 358 l 615 415 l 615 522 l 602 572 l 548 596 l 602 616 l 615 668 l 615 758 l 606 815 l 563 859 l 493 868 l 208 868 l 208 307 m 281 629 l 281 796 l 489 796 l 536 789 l 534 749 l 543 673 l 534 637 l 489 629 l 281 629 m 281 379 l 281 558 l 490 558 l 536 553 l 543 513 l 543 422 l 534 386 l 489 379 l 281 379 z "},"c":{"ha":803,"x_min":-3,"x_max":806,"o":"m 297 0 q 138 35 205 0 q 34 129 71 70 q -3 258 -3 188 l -3 671 q 34 801 -3 742 q 138 894 71 859 q 297 929 205 929 l 506 929 q 665 894 597 929 q 769 801 732 859 q 806 671 806 742 l 806 258 q 769 129 806 188 q 665 35 732 70 q 506 0 597 0 l 297 0 m 334 307 l 497 307 l 576 317 l 559 390 l 496 379 l 338 379 l 293 386 l 283 427 l 283 753 l 290 790 l 338 798 l 493 798 l 563 786 l 576 859 l 497 868 l 334 868 l 264 860 l 221 817 l 211 760 l 211 415 l 221 358 l 265 315 l 334 307 z "},"ć":{"ha":803,"x_min":-3,"x_max":806,"o":"m 297 0 q 138 35 205 0 q 34 129 71 70 q -3 258 -3 188 l -3 671 q 34 801 -3 742 q 138 894 71 859 q 297 929 205 929 l 506 929 q 665 894 597 929 q 769 801 732 859 q 806 671 806 742 l 806 258 q 769 129 806 188 q 665 35 732 70 q 506 0 597 0 l 297 0 m 334 307 l 497 307 l 576 317 l 559 390 l 496 379 l 338 379 l 293 386 l 283 427 l 283 753 l 290 790 l 338 798 l 493 798 l 563 786 l 576 859 l 497 868 l 334 868 l 264 860 l 221 817 l 211 760 l 211 415 l 221 358 l 265 315 l 334 307 m 348 877 q 291 921 317 890 q 266 992 266 951 q 270 1025 266 1002 q 290 1102 275 1049 q 336 1251 305 1155 q 397 1311 353 1294 q 499 1328 441 1328 q 596 1312 550 1328 q 670 1266 642 1297 q 699 1192 699 1236 q 670 1101 699 1151 l 563 918 q 548 895 555 905 q 534 877 541 884 l 348 877 m 401 983 l 448 983 l 551 1210 l 469 1210 l 401 983 z "},"č":{"ha":803,"x_min":-3,"x_max":806,"o":"m 297 0 q 138 35 205 0 q 34 129 71 70 q -3 258 -3 188 l -3 671 q 34 801 -3 742 q 138 894 71 859 q 297 929 205 929 l 506 929 q 665 894 597 929 q 769 801 732 859 q 806 671 806 742 l 806 258 q 769 129 806 188 q 665 35 732 70 q 506 0 597 0 l 297 0 m 334 307 l 497 307 l 576 317 l 559 390 l 496 379 l 338 379 l 293 386 l 283 427 l 283 753 l 290 790 l 338 798 l 493 798 l 563 786 l 576 859 l 497 868 l 334 868 l 264 860 l 221 817 l 211 760 l 211 415 l 221 358 l 265 315 l 334 307 m 259 904 q 221 1014 240 958 q 191 1121 203 1071 q 178 1204 178 1171 q 214 1291 178 1252 q 336 1331 249 1331 q 391 1320 370 1331 q 430 1291 412 1309 q 476 1321 451 1310 q 538 1332 501 1332 q 646 1292 613 1332 q 678 1197 678 1252 q 665 1106 678 1160 q 634 998 652 1053 q 600 904 616 943 l 259 904 m 398 982 l 459 982 l 548 1211 l 492 1211 l 429 1013 l 364 1211 l 309 1211 l 398 982 z "},"ç":{"ha":803,"x_min":-3,"x_max":806,"o":"m 506 929 q 665 894 597 929 q 769 801 732 859 q 806 671 806 742 l 806 258 q 769 129 806 188 q 665 35 732 70 q 506 0 597 0 l 297 0 q 138 35 205 0 q 34 129 71 70 q -3 258 -3 188 l -3 671 q 34 801 -3 742 q 138 894 71 859 q 297 929 205 929 l 506 929 m 497 868 l 372 868 l 264 860 l 221 817 l 211 760 l 211 415 l 221 358 l 265 315 l 334 307 l 397 307 l 397 283 l 349 283 l 310 242 l 302 203 l 302 191 l 310 138 l 351 98 l 448 90 l 448 151 l 372 157 l 363 197 l 370 221 l 445 228 l 445 307 l 497 307 l 576 317 l 559 390 l 496 379 l 338 379 l 293 386 l 283 427 l 283 753 l 290 790 l 338 798 l 493 798 l 563 786 l 576 859 l 497 868 z "},"ĉ":{"ha":803,"x_min":-3,"x_max":806,"o":"m 297 0 q 138 35 205 0 q 34 129 71 70 q -3 258 -3 188 l -3 671 q 34 801 -3 742 q 138 894 71 859 q 297 929 205 929 l 506 929 q 665 894 597 929 q 769 801 732 859 q 806 671 806 742 l 806 258 q 769 129 806 188 q 665 35 732 70 q 506 0 597 0 l 297 0 m 334 307 l 497 307 l 576 317 l 559 390 l 496 379 l 338 379 l 293 386 l 283 427 l 283 753 l 290 790 l 338 798 l 493 798 l 563 786 l 576 859 l 497 868 l 334 868 l 264 860 l 221 817 l 211 760 l 211 415 l 221 358 l 265 315 l 334 307 m 213 877 q 182 921 192 895 q 172 975 172 947 q 189 1059 172 1008 q 231 1166 205 1109 q 280 1276 256 1223 q 334 1328 300 1310 q 425 1345 368 1345 q 515 1325 481 1345 q 573 1255 549 1305 q 622 1145 601 1197 q 655 1054 640 1099 q 671 983 671 1009 q 625 877 671 913 l 213 877 m 302 983 l 357 983 l 422 1181 l 486 983 l 541 983 l 452 1212 l 391 1212 l 302 983 z "},"ċ":{"ha":803,"x_min":-3,"x_max":806,"o":"m 297 0 q 138 35 205 0 q 34 129 71 70 q -3 258 -3 188 l -3 671 q 34 801 -3 742 q 138 894 71 859 q 297 929 205 929 l 506 929 q 665 894 597 929 q 769 801 732 859 q 806 671 806 742 l 806 258 q 769 129 806 188 q 665 35 732 70 q 506 0 597 0 l 297 0 m 334 307 l 497 307 l 576 317 l 559 390 l 496 379 l 338 379 l 293 386 l 283 427 l 283 753 l 290 790 l 338 798 l 493 798 l 563 786 l 576 859 l 497 868 l 334 868 l 264 860 l 221 817 l 211 760 l 211 415 l 221 358 l 265 315 l 334 307 m 194 877 q 146 958 163 907 q 129 1054 129 1010 q 166 1162 129 1113 q 270 1241 203 1211 q 429 1270 337 1270 q 588 1241 521 1270 q 692 1162 655 1211 q 729 1054 729 1113 q 713 957 729 1001 q 665 877 696 913 l 194 877 m 382 994 l 471 994 l 471 1081 l 382 1081 l 382 994 z "},"d":{"ha":803,"x_min":-3,"x_max":806,"o":"m 297 0 q 138 35 205 0 q 34 129 71 70 q -3 258 -3 188 l -3 671 q 34 801 -3 742 q 138 894 71 859 q 297 929 205 929 l 506 929 q 665 894 597 929 q 769 801 732 859 q 806 671 806 742 l 806 258 q 769 129 806 188 q 665 35 732 70 q 506 0 597 0 l 297 0 m 222 307 l 525 307 l 595 315 l 637 358 l 647 416 l 647 758 l 637 815 l 595 859 l 525 868 l 222 868 l 222 307 m 293 379 l 293 796 l 521 796 l 568 789 l 575 749 l 575 424 l 566 386 l 521 379 l 293 379 z "},"ď":{"ha":803,"x_min":-3,"x_max":806,"o":"m 297 0 q 138 35 205 0 q 34 129 71 70 q -3 258 -3 188 l -3 671 q 34 801 -3 742 q 138 894 71 859 q 297 929 205 929 l 506 929 q 665 894 597 929 q 769 801 732 859 q 806 671 806 742 l 806 258 q 769 129 806 188 q 665 35 732 70 q 506 0 597 0 l 297 0 m 222 307 l 525 307 l 595 315 l 637 358 l 647 416 l 647 758 l 637 815 l 595 859 l 525 868 l 222 868 l 222 307 m 293 379 l 293 796 l 521 796 l 568 789 l 575 749 l 575 424 l 566 386 l 521 379 l 293 379 m 259 904 q 221 1014 240 958 q 191 1121 203 1071 q 178 1204 178 1171 q 214 1291 178 1252 q 336 1331 249 1331 q 391 1320 370 1331 q 430 1291 412 1309 q 476 1321 451 1310 q 538 1332 501 1332 q 646 1292 613 1332 q 678 1197 678 1252 q 665 1106 678 1160 q 634 998 652 1053 q 600 904 616 943 l 259 904 m 398 982 l 459 982 l 548 1211 l 492 1211 l 429 1013 l 364 1211 l 309 1211 l 398 982 z "},"đ":{"ha":803,"x_min":-3,"x_max":806,"o":"m 297 0 q 138 35 205 0 q 34 129 71 70 q -3 258 -3 188 l -3 671 q 34 801 -3 742 q 138 894 71 859 q 297 929 205 929 l 506 929 q 665 894 597 929 q 769 801 732 859 q 806 671 806 742 l 806 258 q 769 129 806 188 q 665 35 732 70 q 506 0 597 0 l 297 0 m 222 307 l 525 307 l 595 315 l 637 358 l 647 416 l 647 758 l 637 815 l 595 859 l 525 868 l 222 868 l 222 615 l 174 615 l 174 571 l 222 571 l 222 307 m 293 379 l 293 571 l 350 571 l 350 615 l 293 615 l 293 796 l 521 796 l 568 789 l 575 749 l 575 424 l 566 386 l 521 379 l 293 379 z "},"ð":{"ha":803,"x_min":-3,"x_max":806,"o":"m 297 0 q 138 35 205 0 q 34 129 71 70 q -3 258 -3 188 l -3 671 q 34 801 -3 742 q 138 894 71 859 q 297 929 205 929 l 506 929 q 665 894 597 929 q 769 801 732 859 q 806 671 806 742 l 806 258 q 769 129 806 188 q 665 35 732 70 q 506 0 597 0 l 297 0 m 222 307 l 525 307 l 595 315 l 637 358 l 647 416 l 647 758 l 637 815 l 595 859 l 525 868 l 222 868 l 222 615 l 174 615 l 174 571 l 222 571 l 222 307 m 293 379 l 293 571 l 350 571 l 350 615 l 293 615 l 293 796 l 521 796 l 568 789 l 575 749 l 575 424 l 566 386 l 521 379 l 293 379 z "},"e":{"ha":803,"x_min":-3,"x_max":806,"o":"m 297 0 q 138 35 205 0 q 34 129 71 70 q -3 258 -3 188 l -3 671 q 34 801 -3 742 q 138 894 71 859 q 297 929 205 929 l 506 929 q 665 894 597 929 q 769 801 732 859 q 806 671 806 742 l 806 258 q 769 129 806 188 q 665 35 732 70 q 506 0 597 0 l 297 0 m 326 329 l 497 329 l 576 339 l 559 412 l 496 401 l 331 401 l 288 408 l 278 449 l 278 589 l 595 589 l 595 760 l 585 817 l 542 860 l 473 868 l 326 868 l 258 860 l 216 817 l 205 760 l 205 437 l 216 380 l 258 338 l 326 329 m 278 660 l 278 751 l 283 790 l 331 798 l 469 798 l 515 790 l 522 750 l 522 660 l 278 660 z "},"é":{"ha":803,"x_min":-3,"x_max":806,"o":"m 297 0 q 138 35 205 0 q 34 129 71 70 q -3 258 -3 188 l -3 671 q 34 801 -3 742 q 138 894 71 859 q 297 929 205 929 l 506 929 q 665 894 597 929 q 769 801 732 859 q 806 671 806 742 l 806 258 q 769 129 806 188 q 665 35 732 70 q 506 0 597 0 l 297 0 m 326 329 l 497 329 l 576 339 l 559 412 l 496 401 l 331 401 l 288 408 l 278 449 l 278 589 l 595 589 l 595 760 l 585 817 l 542 860 l 473 868 l 326 868 l 258 860 l 216 817 l 205 760 l 205 437 l 216 380 l 258 338 l 326 329 m 278 660 l 278 751 l 283 790 l 331 798 l 469 798 l 515 790 l 522 750 l 522 660 l 278 660 m 328 877 q 271 921 296 890 q 245 992 245 951 q 250 1025 245 1002 q 270 1102 254 1049 q 316 1251 285 1155 q 377 1311 332 1294 q 479 1328 421 1328 q 575 1312 530 1328 q 650 1266 621 1297 q 679 1192 679 1236 q 650 1101 679 1151 l 543 918 q 528 895 534 905 q 513 877 521 884 l 328 877 m 380 983 l 427 983 l 530 1210 l 448 1210 l 380 983 z "},"ĕ":{"ha":803,"x_min":-3,"x_max":806,"o":"m 297 0 q 138 35 205 0 q 34 129 71 70 q -3 258 -3 188 l -3 671 q 34 801 -3 742 q 138 894 71 859 q 297 929 205 929 l 506 929 q 665 894 597 929 q 769 801 732 859 q 806 671 806 742 l 806 258 q 769 129 806 188 q 665 35 732 70 q 506 0 597 0 l 297 0 m 326 329 l 497 329 l 576 339 l 559 412 l 496 401 l 331 401 l 288 408 l 278 449 l 278 589 l 595 589 l 595 760 l 585 817 l 542 860 l 473 868 l 326 868 l 258 860 l 216 817 l 205 760 l 205 437 l 216 380 l 258 338 l 326 329 m 278 660 l 278 751 l 283 790 l 331 798 l 469 798 l 515 790 l 522 750 l 522 660 l 278 660 m 231 877 q 143 958 173 911 q 113 1066 113 1004 q 150 1174 113 1125 q 254 1253 186 1223 q 412 1282 321 1282 q 572 1253 505 1282 q 676 1174 639 1223 q 713 1066 713 1125 q 682 958 713 1004 q 595 877 652 911 l 231 877 m 389 964 l 437 964 l 490 972 l 530 1013 l 539 1080 l 478 1080 l 471 1035 l 431 1025 l 395 1025 l 357 1032 l 350 1080 l 289 1080 l 297 1012 l 336 972 l 389 964 z "},"ě":{"ha":803,"x_min":-3,"x_max":806,"o":"m 297 0 q 138 35 205 0 q 34 129 71 70 q -3 258 -3 188 l -3 671 q 34 801 -3 742 q 138 894 71 859 q 297 929 205 929 l 506 929 q 665 894 597 929 q 769 801 732 859 q 806 671 806 742 l 806 258 q 769 129 806 188 q 665 35 732 70 q 506 0 597 0 l 297 0 m 326 329 l 497 329 l 576 339 l 559 412 l 496 401 l 331 401 l 288 408 l 278 449 l 278 589 l 595 589 l 595 760 l 585 817 l 542 860 l 473 868 l 326 868 l 258 860 l 216 817 l 205 760 l 205 437 l 216 380 l 258 338 l 326 329 m 278 660 l 278 751 l 283 790 l 331 798 l 469 798 l 515 790 l 522 750 l 522 660 l 278 660 m 239 904 q 201 1014 220 958 q 170 1121 182 1071 q 158 1204 158 1171 q 193 1291 158 1252 q 316 1331 229 1331 q 371 1320 350 1331 q 410 1291 392 1309 q 456 1321 431 1310 q 517 1332 481 1332 q 625 1292 593 1332 q 658 1197 658 1252 q 645 1106 658 1160 q 614 998 632 1053 q 579 904 595 943 l 239 904 m 378 982 l 439 982 l 528 1211 l 472 1211 l 408 1013 l 344 1211 l 289 1211 l 378 982 z "},"ê":{"ha":803,"x_min":-3,"x_max":806,"o":"m 297 0 q 138 35 205 0 q 34 129 71 70 q -3 258 -3 188 l -3 671 q 34 801 -3 742 q 138 894 71 859 q 297 929 205 929 l 506 929 q 665 894 597 929 q 769 801 732 859 q 806 671 806 742 l 806 258 q 769 129 806 188 q 665 35 732 70 q 506 0 597 0 l 297 0 m 326 329 l 497 329 l 576 339 l 559 412 l 496 401 l 331 401 l 288 408 l 278 449 l 278 589 l 595 589 l 595 760 l 585 817 l 542 860 l 473 868 l 326 868 l 258 860 l 216 817 l 205 760 l 205 437 l 216 380 l 258 338 l 326 329 m 278 660 l 278 751 l 283 790 l 331 798 l 469 798 l 515 790 l 522 750 l 522 660 l 278 660 m 193 877 q 161 921 172 895 q 151 975 151 947 q 168 1059 151 1008 q 210 1166 185 1109 q 260 1276 235 1223 q 313 1328 279 1310 q 404 1345 347 1345 q 495 1325 461 1345 q 553 1255 528 1305 q 602 1145 581 1197 q 635 1054 619 1099 q 651 983 651 1009 q 604 877 651 913 l 193 877 m 282 983 l 337 983 l 401 1181 l 465 983 l 521 983 l 432 1212 l 371 1212 l 282 983 z "},"ȅ":{"ha":803,"x_min":-3,"x_max":806,"o":"m 297 0 q 138 35 205 0 q 34 129 71 70 q -3 258 -3 188 l -3 671 q 34 801 -3 742 q 138 894 71 859 q 297 929 205 929 l 506 929 q 665 894 597 929 q 769 801 732 859 q 806 671 806 742 l 806 258 q 769 129 806 188 q 665 35 732 70 q 506 0 597 0 l 297 0 m 326 329 l 497 329 l 576 339 l 559 412 l 496 401 l 331 401 l 288 408 l 278 449 l 278 589 l 595 589 l 595 760 l 585 817 l 542 860 l 473 868 l 326 868 l 258 860 l 216 817 l 205 760 l 205 437 l 216 380 l 258 338 l 326 329 m 278 660 l 278 751 l 283 790 l 331 798 l 469 798 l 515 790 l 522 750 l 522 660 l 278 660 m 210 877 l 39 1131 l 145 1329 l 208 1329 q 256 1320 236 1325 q 291 1306 275 1316 l 302 1329 l 364 1329 q 426 1317 402 1325 q 467 1290 450 1308 q 502 1238 484 1272 l 624 1012 q 628 968 628 989 q 596 877 628 911 l 210 877 m 306 968 l 340 968 l 218 1195 l 156 1195 l 306 968 m 463 968 l 498 968 l 376 1195 l 313 1195 l 463 968 z "},"ë":{"ha":803,"x_min":-3,"x_max":806,"o":"m 297 0 q 138 35 205 0 q 34 129 71 70 q -3 258 -3 188 l -3 671 q 34 801 -3 742 q 138 894 71 859 q 297 929 205 929 l 506 929 q 665 894 597 929 q 769 801 732 859 q 806 671 806 742 l 806 258 q 769 129 806 188 q 665 35 732 70 q 506 0 597 0 l 297 0 m 326 329 l 497 329 l 576 339 l 559 412 l 496 401 l 331 401 l 288 408 l 278 449 l 278 589 l 595 589 l 595 760 l 585 817 l 542 860 l 473 868 l 326 868 l 258 860 l 216 817 l 205 760 l 205 437 l 216 380 l 258 338 l 326 329 m 278 660 l 278 751 l 283 790 l 331 798 l 469 798 l 515 790 l 522 750 l 522 660 l 278 660 m 219 890 q 152 963 174 920 q 129 1060 129 1007 q 162 1160 129 1114 q 257 1235 195 1206 q 401 1263 318 1263 q 546 1235 484 1263 q 640 1160 607 1206 q 673 1060 673 1114 q 582 890 673 949 l 219 890 m 262 1003 l 351 1003 l 351 1090 l 262 1090 l 262 1003 m 440 1003 l 529 1003 l 529 1090 l 440 1090 l 440 1003 z "},"ė":{"ha":803,"x_min":-3,"x_max":806,"o":"m 297 0 q 138 35 205 0 q 34 129 71 70 q -3 258 -3 188 l -3 671 q 34 801 -3 742 q 138 894 71 859 q 297 929 205 929 l 506 929 q 665 894 597 929 q 769 801 732 859 q 806 671 806 742 l 806 258 q 769 129 806 188 q 665 35 732 70 q 506 0 597 0 l 297 0 m 326 329 l 497 329 l 576 339 l 559 412 l 496 401 l 331 401 l 288 408 l 278 449 l 278 589 l 595 589 l 595 760 l 585 817 l 542 860 l 473 868 l 326 868 l 258 860 l 216 817 l 205 760 l 205 437 l 216 380 l 258 338 l 326 329 m 278 660 l 278 751 l 283 790 l 331 798 l 469 798 l 515 790 l 522 750 l 522 660 l 278 660 m 174 877 q 125 958 142 907 q 109 1054 109 1010 q 145 1162 109 1113 q 250 1241 182 1211 q 408 1270 317 1270 q 568 1241 500 1270 q 672 1162 635 1211 q 709 1054 709 1113 q 692 957 709 1001 q 645 877 676 913 l 174 877 m 361 994 l 450 994 l 450 1081 l 361 1081 l 361 994 z "},"è":{"ha":803,"x_min":-3,"x_max":806,"o":"m 297 0 q 138 35 205 0 q 34 129 71 70 q -3 258 -3 188 l -3 671 q 34 801 -3 742 q 138 894 71 859 q 297 929 205 929 l 506 929 q 665 894 597 929 q 769 801 732 859 q 806 671 806 742 l 806 258 q 769 129 806 188 q 665 35 732 70 q 506 0 597 0 l 297 0 m 326 329 l 497 329 l 576 339 l 559 412 l 496 401 l 331 401 l 288 408 l 278 449 l 278 589 l 595 589 l 595 760 l 585 817 l 542 860 l 473 868 l 326 868 l 258 860 l 216 817 l 205 760 l 205 437 l 216 380 l 258 338 l 326 329 m 278 660 l 278 751 l 283 790 l 331 798 l 469 798 l 515 790 l 522 750 l 522 660 l 278 660 m 286 877 q 271 895 278 884 q 256 918 264 905 l 149 1101 q 120 1192 119 1153 q 149 1266 120 1236 q 223 1312 178 1297 q 320 1328 269 1328 q 422 1311 378 1328 q 483 1251 467 1294 q 529 1102 513 1155 q 549 1025 544 1049 q 553 992 553 1002 q 528 921 553 951 q 471 877 503 890 l 286 877 m 372 983 l 418 983 l 351 1210 l 269 1210 l 372 983 z "},"ȇ":{"ha":803,"x_min":-3,"x_max":806,"o":"m 297 0 q 138 35 205 0 q 34 129 71 70 q -3 258 -3 188 l -3 671 q 34 801 -3 742 q 138 894 71 859 q 297 929 205 929 l 506 929 q 665 894 597 929 q 769 801 732 859 q 806 671 806 742 l 806 258 q 769 129 806 188 q 665 35 732 70 q 506 0 597 0 l 297 0 m 326 329 l 497 329 l 576 339 l 559 412 l 496 401 l 331 401 l 288 408 l 278 449 l 278 589 l 595 589 l 595 760 l 585 817 l 542 860 l 473 868 l 326 868 l 258 860 l 216 817 l 205 760 l 205 437 l 216 380 l 258 338 l 326 329 m 278 660 l 278 751 l 283 790 l 331 798 l 469 798 l 515 790 l 522 750 l 522 660 l 278 660 m 219 877 q 131 958 161 911 q 101 1066 101 1004 q 138 1174 101 1125 q 242 1253 175 1223 q 401 1282 309 1282 q 560 1253 493 1282 q 664 1174 627 1223 q 701 1066 701 1125 q 671 958 701 1004 q 583 877 640 911 l 219 877 m 276 986 l 337 986 l 344 1033 l 382 1040 l 418 1040 l 458 1030 l 465 986 l 526 986 l 517 1053 l 477 1093 l 425 1101 l 376 1101 l 323 1093 l 284 1054 l 276 986 z "},"ē":{"ha":803,"x_min":-3,"x_max":806,"o":"m 297 0 q 138 35 205 0 q 34 129 71 70 q -3 258 -3 188 l -3 671 q 34 801 -3 742 q 138 894 71 859 q 297 929 205 929 l 506 929 q 665 894 597 929 q 769 801 732 859 q 806 671 806 742 l 806 258 q 769 129 806 188 q 665 35 732 70 q 506 0 597 0 l 297 0 m 326 329 l 497 329 l 576 339 l 559 412 l 496 401 l 331 401 l 288 408 l 278 449 l 278 589 l 595 589 l 595 760 l 585 817 l 542 860 l 473 868 l 326 868 l 258 860 l 216 817 l 205 760 l 205 437 l 216 380 l 258 338 l 326 329 m 278 660 l 278 751 l 283 790 l 331 798 l 469 798 l 515 790 l 522 750 l 522 660 l 278 660 m 232 877 q 144 958 174 911 q 114 1066 114 1004 q 151 1174 114 1125 q 255 1253 188 1223 q 414 1282 322 1282 q 573 1253 506 1282 q 677 1174 640 1223 q 714 1066 714 1125 q 684 958 714 1004 q 596 877 653 911 l 232 877 m 277 1019 l 532 1019 l 532 1092 l 277 1092 l 277 1019 z "},"ę":{"ha":803,"x_min":-3,"x_max":806,"o":"m 297 0 q 138 35 205 0 q 34 129 71 70 q -3 258 -3 188 l -3 671 q 34 801 -3 742 q 138 894 71 859 q 297 929 205 929 l 506 929 q 665 894 597 929 q 769 801 732 859 q 806 671 806 742 l 806 258 q 769 129 806 188 q 665 35 732 70 q 506 0 597 0 l 297 0 m 506 111 l 506 172 l 431 179 l 421 220 l 428 243 l 503 329 l 576 339 l 559 412 l 496 401 l 331 401 l 288 408 l 278 449 l 278 589 l 595 589 l 595 760 l 585 817 l 542 860 l 473 868 l 326 868 l 258 860 l 216 817 l 205 760 l 205 437 l 216 380 l 258 338 l 326 329 l 456 329 l 407 302 l 368 264 l 360 212 l 368 160 l 408 119 l 506 111 m 278 660 l 278 751 l 283 790 l 331 798 l 469 798 l 515 790 l 522 750 l 522 660 l 278 660 z "},"f":{"ha":803,"x_min":-3,"x_max":806,"o":"m 297 0 q 138 35 205 0 q 34 129 71 70 q -3 258 -3 188 l -3 671 q 34 801 -3 742 q 138 894 71 859 q 297 929 205 929 l 506 929 q 665 894 597 929 q 769 801 732 859 q 806 671 806 742 l 806 258 q 769 129 806 188 q 665 35 732 70 q 506 0 597 0 l 297 0 m 269 307 l 342 307 l 342 564 l 568 564 l 568 635 l 342 635 l 342 796 l 607 796 l 607 868 l 269 868 l 269 307 z "},"g":{"ha":803,"x_min":-3,"x_max":806,"o":"m 297 0 q 138 35 205 0 q 34 129 71 70 q -3 258 -3 188 l -3 671 q 34 801 -3 742 q 138 894 71 859 q 297 929 205 929 l 506 929 q 665 894 597 929 q 769 801 732 859 q 806 671 806 742 l 806 258 q 769 129 806 188 q 665 35 732 70 q 506 0 597 0 l 297 0 m 354 307 l 524 307 l 592 315 l 636 358 l 646 416 l 646 595 l 449 595 l 449 522 l 574 522 l 574 427 q 569 406 570 416 q 564 386 568 397 l 519 379 l 355 379 l 314 386 l 304 429 l 304 750 l 311 787 l 355 798 l 532 798 l 602 786 l 615 859 l 536 868 l 354 868 l 285 857 l 241 814 l 232 757 l 232 416 l 241 358 l 286 315 l 354 307 z "},"ğ":{"ha":803,"x_min":-3,"x_max":806,"o":"m 297 0 q 138 35 205 0 q 34 129 71 70 q -3 258 -3 188 l -3 671 q 34 801 -3 742 q 138 894 71 859 q 297 929 205 929 l 506 929 q 665 894 597 929 q 769 801 732 859 q 806 671 806 742 l 806 258 q 769 129 806 188 q 665 35 732 70 q 506 0 597 0 l 297 0 m 354 307 l 524 307 l 592 315 l 636 358 l 646 416 l 646 595 l 449 595 l 449 522 l 574 522 l 574 427 q 569 406 570 416 q 564 386 568 397 l 519 379 l 355 379 l 314 386 l 304 429 l 304 750 l 311 787 l 355 798 l 532 798 l 602 786 l 615 859 l 536 868 l 354 868 l 285 857 l 241 814 l 232 757 l 232 416 l 241 358 l 286 315 l 354 307 m 251 877 q 163 958 193 911 q 133 1066 133 1004 q 170 1174 133 1125 q 274 1253 207 1223 q 433 1282 341 1282 q 592 1253 525 1282 q 696 1174 659 1223 q 733 1066 733 1125 q 703 958 733 1004 q 615 877 672 911 l 251 877 m 410 964 l 458 964 l 511 972 l 551 1013 l 559 1080 l 498 1080 l 491 1035 l 451 1025 l 415 1025 l 377 1032 l 370 1080 l 309 1080 l 317 1012 l 357 972 l 410 964 z "},"ĝ":{"ha":803,"x_min":-3,"x_max":806,"o":"m 297 0 q 138 35 205 0 q 34 129 71 70 q -3 258 -3 188 l -3 671 q 34 801 -3 742 q 138 894 71 859 q 297 929 205 929 l 506 929 q 665 894 597 929 q 769 801 732 859 q 806 671 806 742 l 806 258 q 769 129 806 188 q 665 35 732 70 q 506 0 597 0 l 297 0 m 354 307 l 524 307 l 592 315 l 636 358 l 646 416 l 646 595 l 449 595 l 449 522 l 574 522 l 574 427 q 569 406 570 416 q 564 386 568 397 l 519 379 l 355 379 l 314 386 l 304 429 l 304 750 l 311 787 l 355 798 l 532 798 l 602 786 l 615 859 l 536 868 l 354 868 l 285 857 l 241 814 l 232 757 l 232 416 l 241 358 l 286 315 l 354 307 m 213 877 q 182 921 192 895 q 172 975 172 947 q 189 1059 172 1008 q 231 1166 205 1109 q 280 1276 256 1223 q 334 1328 300 1310 q 425 1345 368 1345 q 515 1325 481 1345 q 573 1255 549 1305 q 622 1145 601 1197 q 655 1054 640 1099 q 671 983 671 1009 q 625 877 671 913 l 213 877 m 302 983 l 357 983 l 422 1181 l 486 983 l 541 983 l 452 1212 l 391 1212 l 302 983 z "},"ģ":{"ha":803,"x_min":-3,"x_max":806,"o":"m 297 0 q 138 35 205 0 q 34 129 71 70 q -3 258 -3 188 l -3 671 q 34 801 -3 742 q 138 894 71 859 q 297 929 205 929 l 506 929 q 665 894 597 929 q 769 801 732 859 q 806 671 806 742 l 806 258 q 769 129 806 188 q 665 35 732 70 q 506 0 597 0 l 297 0 m 354 307 l 524 307 l 592 315 l 636 358 l 646 416 l 646 595 l 449 595 l 449 522 l 574 522 l 574 427 q 569 406 570 416 q 564 386 568 397 l 519 379 l 355 379 l 314 386 l 304 429 l 304 750 l 311 787 l 355 798 l 532 798 l 602 786 l 615 859 l 536 868 l 354 868 l 285 857 l 241 814 l 232 757 l 232 416 l 241 358 l 286 315 l 354 307 m 452 81 l 493 168 l 493 256 l 391 256 l 391 168 l 435 168 l 408 100 l 452 81 z "},"ġ":{"ha":803,"x_min":-3,"x_max":806,"o":"m 297 0 q 138 35 205 0 q 34 129 71 70 q -3 258 -3 188 l -3 671 q 34 801 -3 742 q 138 894 71 859 q 297 929 205 929 l 506 929 q 665 894 597 929 q 769 801 732 859 q 806 671 806 742 l 806 258 q 769 129 806 188 q 665 35 732 70 q 506 0 597 0 l 297 0 m 354 307 l 524 307 l 592 315 l 636 358 l 646 416 l 646 595 l 449 595 l 449 522 l 574 522 l 574 427 q 569 406 570 416 q 564 386 568 397 l 519 379 l 355 379 l 314 386 l 304 429 l 304 750 l 311 787 l 355 798 l 532 798 l 602 786 l 615 859 l 536 868 l 354 868 l 285 857 l 241 814 l 232 757 l 232 416 l 241 358 l 286 315 l 354 307 m 194 877 q 146 958 163 907 q 129 1054 129 1010 q 166 1162 129 1113 q 270 1241 203 1211 q 429 1270 337 1270 q 588 1241 521 1270 q 692 1162 655 1211 q 729 1054 729 1113 q 713 957 729 1001 q 665 877 696 913 l 194 877 m 382 994 l 471 994 l 471 1081 l 382 1081 l 382 994 z "},"h":{"ha":803,"x_min":-3,"x_max":806,"o":"m 297 0 q 138 35 205 0 q 34 129 71 70 q -3 258 -3 188 l -3 671 q 34 801 -3 742 q 138 894 71 859 q 297 929 205 929 l 506 929 q 665 894 597 929 q 769 801 732 859 q 806 671 806 742 l 806 258 q 769 129 806 188 q 665 35 732 70 q 506 0 597 0 l 297 0 m 222 307 l 294 307 l 294 559 l 576 559 l 576 307 l 647 307 l 647 868 l 576 868 l 576 631 l 294 631 l 294 868 l 222 868 l 222 307 z "},"ħ":{"ha":803,"x_min":-3,"x_max":806,"o":"m 297 0 q 138 35 205 0 q 34 129 71 70 q -3 258 -3 188 l -3 671 q 34 801 -3 742 q 138 894 71 859 q 297 929 205 929 l 506 929 q 665 894 597 929 q 769 801 732 859 q 806 671 806 742 l 806 258 q 769 129 806 188 q 665 35 732 70 q 506 0 597 0 l 297 0 m 222 307 l 294 307 l 294 559 l 576 559 l 576 307 l 647 307 l 647 715 l 682 715 l 682 777 l 647 777 l 647 868 l 576 868 l 576 777 l 294 777 l 294 868 l 222 868 l 222 777 l 193 777 l 193 715 l 222 715 l 222 307 m 294 631 l 294 715 l 576 715 l 576 631 l 294 631 z "},"ĥ":{"ha":803,"x_min":-3,"x_max":806,"o":"m 297 0 q 138 35 205 0 q 34 129 71 70 q -3 258 -3 188 l -3 671 q 34 801 -3 742 q 138 894 71 859 q 297 929 205 929 l 506 929 q 665 894 597 929 q 769 801 732 859 q 806 671 806 742 l 806 258 q 769 129 806 188 q 665 35 732 70 q 506 0 597 0 l 297 0 m 222 307 l 294 307 l 294 559 l 576 559 l 576 307 l 647 307 l 647 868 l 576 868 l 576 631 l 294 631 l 294 868 l 222 868 l 222 307 m 213 877 q 182 921 192 895 q 172 975 172 947 q 189 1059 172 1008 q 231 1166 205 1109 q 280 1276 256 1223 q 334 1328 300 1310 q 425 1345 368 1345 q 515 1325 481 1345 q 573 1255 549 1305 q 622 1145 601 1197 q 655 1054 640 1099 q 671 983 671 1009 q 625 877 671 913 l 213 877 m 302 983 l 357 983 l 422 1181 l 486 983 l 541 983 l 452 1212 l 391 1212 l 302 983 z "},"i":{"ha":803,"x_min":-3,"x_max":806,"o":"m 297 0 q 138 35 205 0 q 34 129 71 70 q -3 258 -3 188 l -3 671 q 34 801 -3 742 q 138 894 71 859 q 297 929 205 929 l 506 929 q 665 894 597 929 q 769 801 732 859 q 806 671 806 742 l 806 258 q 769 129 806 188 q 665 35 732 70 q 506 0 597 0 l 297 0 m 243 307 l 635 307 l 635 379 l 475 379 l 475 796 l 635 796 l 635 868 l 243 868 l 243 796 l 403 796 l 403 379 l 243 379 l 243 307 z "},"ı":{"ha":803,"x_min":-3,"x_max":806,"o":"m 297 0 q 138 35 205 0 q 34 129 71 70 q -3 258 -3 188 l -3 671 q 34 801 -3 742 q 138 894 71 859 q 297 929 205 929 l 506 929 q 665 894 597 929 q 769 801 732 859 q 806 671 806 742 l 806 258 q 769 129 806 188 q 665 35 732 70 q 506 0 597 0 l 297 0 m 243 307 l 635 307 l 635 379 l 475 379 l 475 796 l 635 796 l 635 868 l 243 868 l 243 796 l 403 796 l 403 379 l 243 379 l 243 307 z "},"í":{"ha":803,"x_min":-3,"x_max":806,"o":"m 297 0 q 138 35 205 0 q 34 129 71 70 q -3 258 -3 188 l -3 671 q 34 801 -3 742 q 138 894 71 859 q 297 929 205 929 l 506 929 q 665 894 597 929 q 769 801 732 859 q 806 671 806 742 l 806 258 q 769 129 806 188 q 665 35 732 70 q 506 0 597 0 l 297 0 m 243 307 l 635 307 l 635 379 l 475 379 l 475 796 l 635 796 l 635 868 l 243 868 l 243 796 l 403 796 l 403 379 l 243 379 l 243 307 m 348 877 q 291 921 317 890 q 266 992 266 951 q 270 1025 266 1002 q 290 1102 275 1049 q 336 1251 305 1155 q 397 1311 353 1294 q 499 1328 441 1328 q 596 1312 550 1328 q 670 1266 642 1297 q 699 1192 699 1236 q 670 1101 699 1151 l 563 918 q 548 895 555 905 q 534 877 541 884 l 348 877 m 401 983 l 448 983 l 551 1210 l 469 1210 l 401 983 z "},"ĭ":{"ha":803,"x_min":-3,"x_max":806,"o":"m 297 0 q 138 35 205 0 q 34 129 71 70 q -3 258 -3 188 l -3 671 q 34 801 -3 742 q 138 894 71 859 q 297 929 205 929 l 506 929 q 665 894 597 929 q 769 801 732 859 q 806 671 806 742 l 806 258 q 769 129 806 188 q 665 35 732 70 q 506 0 597 0 l 297 0 m 243 307 l 635 307 l 635 379 l 475 379 l 475 796 l 635 796 l 635 868 l 243 868 l 243 796 l 403 796 l 403 379 l 243 379 l 243 307 m 251 877 q 163 958 193 911 q 133 1066 133 1004 q 170 1174 133 1125 q 274 1253 207 1223 q 433 1282 341 1282 q 592 1253 525 1282 q 696 1174 659 1223 q 733 1066 733 1125 q 703 958 733 1004 q 615 877 672 911 l 251 877 m 410 964 l 458 964 l 511 972 l 551 1013 l 559 1080 l 498 1080 l 491 1035 l 451 1025 l 415 1025 l 377 1032 l 370 1080 l 309 1080 l 317 1012 l 357 972 l 410 964 z "},"ǐ":{"ha":803,"x_min":-3,"x_max":806,"o":"m 297 0 q 138 35 205 0 q 34 129 71 70 q -3 258 -3 188 l -3 671 q 34 801 -3 742 q 138 894 71 859 q 297 929 205 929 l 506 929 q 665 894 597 929 q 769 801 732 859 q 806 671 806 742 l 806 258 q 769 129 806 188 q 665 35 732 70 q 506 0 597 0 l 297 0 m 243 307 l 635 307 l 635 379 l 475 379 l 475 796 l 635 796 l 635 868 l 243 868 l 243 796 l 403 796 l 403 379 l 243 379 l 243 307 m 259 904 q 221 1014 240 958 q 191 1121 203 1071 q 178 1204 178 1171 q 214 1291 178 1252 q 336 1331 249 1331 q 391 1320 370 1331 q 430 1291 412 1309 q 476 1321 451 1310 q 538 1332 501 1332 q 646 1292 613 1332 q 678 1197 678 1252 q 665 1106 678 1160 q 634 998 652 1053 q 600 904 616 943 l 259 904 m 398 982 l 459 982 l 548 1211 l 492 1211 l 429 1013 l 364 1211 l 309 1211 l 398 982 z "},"î":{"ha":803,"x_min":-3,"x_max":806,"o":"m 297 0 q 138 35 205 0 q 34 129 71 70 q -3 258 -3 188 l -3 671 q 34 801 -3 742 q 138 894 71 859 q 297 929 205 929 l 506 929 q 665 894 597 929 q 769 801 732 859 q 806 671 806 742 l 806 258 q 769 129 806 188 q 665 35 732 70 q 506 0 597 0 l 297 0 m 243 307 l 635 307 l 635 379 l 475 379 l 475 796 l 635 796 l 635 868 l 243 868 l 243 796 l 403 796 l 403 379 l 243 379 l 243 307 m 213 877 q 182 921 192 895 q 172 975 172 947 q 189 1059 172 1008 q 231 1166 205 1109 q 280 1276 256 1223 q 334 1328 300 1310 q 425 1345 368 1345 q 515 1325 481 1345 q 573 1255 549 1305 q 622 1145 601 1197 q 655 1054 640 1099 q 671 983 671 1009 q 625 877 671 913 l 213 877 m 302 983 l 357 983 l 422 1181 l 486 983 l 541 983 l 452 1212 l 391 1212 l 302 983 z "},"ȉ":{"ha":803,"x_min":-3,"x_max":806,"o":"m 297 0 q 138 35 205 0 q 34 129 71 70 q -3 258 -3 188 l -3 671 q 34 801 -3 742 q 138 894 71 859 q 297 929 205 929 l 506 929 q 665 894 597 929 q 769 801 732 859 q 806 671 806 742 l 806 258 q 769 129 806 188 q 665 35 732 70 q 506 0 597 0 l 297 0 m 243 307 l 635 307 l 635 379 l 475 379 l 475 796 l 635 796 l 635 868 l 243 868 l 243 796 l 403 796 l 403 379 l 243 379 l 243 307 m 231 877 l 60 1131 l 165 1329 l 228 1329 q 276 1320 256 1325 q 311 1306 296 1316 l 322 1329 l 385 1329 q 446 1317 422 1325 q 487 1290 470 1308 q 522 1238 504 1272 l 644 1012 q 648 968 648 989 q 616 877 648 911 l 231 877 m 326 968 l 361 968 l 239 1195 l 176 1195 l 326 968 m 484 968 l 518 968 l 396 1195 l 333 1195 l 484 968 z "},"ï":{"ha":803,"x_min":-3,"x_max":806,"o":"m 297 0 q 138 35 205 0 q 34 129 71 70 q -3 258 -3 188 l -3 671 q 34 801 -3 742 q 138 894 71 859 q 297 929 205 929 l 506 929 q 665 894 597 929 q 769 801 732 859 q 806 671 806 742 l 806 258 q 769 129 806 188 q 665 35 732 70 q 506 0 597 0 l 297 0 m 243 307 l 635 307 l 635 379 l 475 379 l 475 796 l 635 796 l 635 868 l 243 868 l 243 796 l 403 796 l 403 379 l 243 379 l 243 307 m 239 890 q 172 963 195 920 q 149 1060 149 1007 q 182 1160 149 1114 q 277 1235 216 1206 q 421 1263 338 1263 q 566 1235 505 1263 q 661 1160 627 1206 q 694 1060 694 1114 q 602 890 694 949 l 239 890 m 283 1003 l 372 1003 l 372 1090 l 283 1090 l 283 1003 m 460 1003 l 549 1003 l 549 1090 l 460 1090 l 460 1003 z "},"ì":{"ha":803,"x_min":-3,"x_max":806,"o":"m 297 0 q 138 35 205 0 q 34 129 71 70 q -3 258 -3 188 l -3 671 q 34 801 -3 742 q 138 894 71 859 q 297 929 205 929 l 506 929 q 665 894 597 929 q 769 801 732 859 q 806 671 806 742 l 806 258 q 769 129 806 188 q 665 35 732 70 q 506 0 597 0 l 297 0 m 243 307 l 635 307 l 635 379 l 475 379 l 475 796 l 635 796 l 635 868 l 243 868 l 243 796 l 403 796 l 403 379 l 243 379 l 243 307 m 306 877 q 292 895 298 884 q 277 918 285 905 l 170 1101 q 140 1192 139 1153 q 169 1266 140 1236 q 244 1312 198 1297 q 340 1328 290 1328 q 443 1311 398 1328 q 503 1251 487 1294 q 549 1102 534 1155 q 569 1025 564 1049 q 574 992 574 1002 q 549 921 574 951 q 492 877 524 890 l 306 877 m 392 983 l 439 983 l 371 1210 l 289 1210 l 392 983 z "},"ȋ":{"ha":803,"x_min":-3,"x_max":806,"o":"m 297 0 q 138 35 205 0 q 34 129 71 70 q -3 258 -3 188 l -3 671 q 34 801 -3 742 q 138 894 71 859 q 297 929 205 929 l 506 929 q 665 894 597 929 q 769 801 732 859 q 806 671 806 742 l 806 258 q 769 129 806 188 q 665 35 732 70 q 506 0 597 0 l 297 0 m 243 307 l 635 307 l 635 379 l 475 379 l 475 796 l 635 796 l 635 868 l 243 868 l 243 796 l 403 796 l 403 379 l 243 379 l 243 307 m 239 877 q 152 958 182 911 q 121 1066 121 1004 q 158 1174 121 1125 q 262 1253 195 1223 q 421 1282 330 1282 q 581 1253 513 1282 q 685 1174 648 1223 q 722 1066 722 1125 q 691 958 722 1004 q 604 877 661 911 l 239 877 m 296 986 l 357 986 l 364 1033 l 402 1040 l 438 1040 l 478 1030 l 486 986 l 547 986 l 538 1053 l 498 1093 l 445 1101 l 397 1101 l 344 1093 l 304 1054 l 296 986 z "},"ī":{"ha":803,"x_min":-3,"x_max":806,"o":"m 297 0 q 138 35 205 0 q 34 129 71 70 q -3 258 -3 188 l -3 671 q 34 801 -3 742 q 138 894 71 859 q 297 929 205 929 l 506 929 q 665 894 597 929 q 769 801 732 859 q 806 671 806 742 l 806 258 q 769 129 806 188 q 665 35 732 70 q 506 0 597 0 l 297 0 m 243 307 l 635 307 l 635 379 l 475 379 l 475 796 l 635 796 l 635 868 l 243 868 l 243 796 l 403 796 l 403 379 l 243 379 l 243 307 m 252 877 q 164 958 195 911 q 134 1066 134 1004 q 171 1174 134 1125 q 275 1253 208 1223 q 434 1282 342 1282 q 593 1253 526 1282 q 697 1174 661 1223 q 734 1066 734 1125 q 704 958 734 1004 q 616 877 673 911 l 252 877 m 297 1019 l 552 1019 l 552 1092 l 297 1092 l 297 1019 z "},"į":{"ha":803,"x_min":-3,"x_max":806,"o":"m 297 0 q 138 35 205 0 q 34 129 71 70 q -3 258 -3 188 l -3 671 q 34 801 -3 742 q 138 894 71 859 q 297 929 205 929 l 506 929 q 665 894 597 929 q 769 801 732 859 q 806 671 806 742 l 806 258 q 769 129 806 188 q 665 35 732 70 q 506 0 597 0 l 297 0 m 636 89 l 636 150 l 561 157 l 551 197 l 558 221 l 633 307 l 635 307 l 635 379 l 475 379 l 475 796 l 635 796 l 635 868 l 243 868 l 243 796 l 403 796 l 403 379 l 243 379 l 243 307 l 586 307 l 538 281 l 498 241 l 490 191 l 498 138 l 539 97 l 636 89 z "},"ĩ":{"ha":803,"x_min":-3,"x_max":806,"o":"m 297 0 q 138 35 205 0 q 34 129 71 70 q -3 258 -3 188 l -3 671 q 34 801 -3 742 q 138 894 71 859 q 297 929 205 929 l 506 929 q 665 894 597 929 q 769 801 732 859 q 806 671 806 742 l 806 258 q 769 129 806 188 q 665 35 732 70 q 506 0 597 0 l 297 0 m 243 307 l 635 307 l 635 379 l 475 379 l 475 796 l 635 796 l 635 868 l 243 868 l 243 796 l 403 796 l 403 379 l 243 379 l 243 307 m 228 890 q 138 1080 138 964 q 175 1209 138 1150 q 279 1302 212 1267 q 437 1337 346 1337 q 597 1302 530 1337 q 701 1209 664 1267 q 738 1080 738 1150 q 649 890 738 966 l 228 890 m 521 971 q 559 986 547 971 q 574 1023 571 1002 q 578 1060 578 1044 l 578 1082 l 517 1082 q 500 1041 507 1052 q 484 1031 493 1031 q 456 1042 473 1031 q 410 1064 439 1053 q 334 1075 381 1075 q 295 1057 307 1075 q 280 1017 283 1039 q 277 982 277 995 l 277 974 l 338 974 q 350 1009 343 1000 q 367 1019 357 1019 q 400 1007 380 1019 q 449 983 420 995 q 521 971 478 971 z "},"ĳ":{"ha":803,"x_min":-3,"x_max":806,"o":"m 297 0 q 138 35 205 0 q 34 129 71 70 q -3 258 -3 188 l -3 671 q 34 801 -3 742 q 138 894 71 859 q 297 929 205 929 l 506 929 q 665 894 597 929 q 769 801 732 859 q 806 671 806 742 l 806 258 q 769 129 806 188 q 665 35 732 70 q 506 0 597 0 l 297 0 m 122 307 l 403 307 l 403 379 l 298 379 l 298 796 l 403 796 l 403 868 l 122 868 l 122 796 l 227 796 l 227 379 l 122 379 l 122 307 m 446 307 l 551 307 l 620 317 l 672 358 l 672 868 l 602 868 l 602 428 l 592 387 l 547 379 l 446 379 l 446 307 z "},"j":{"ha":803,"x_min":-3,"x_max":806,"o":"m 506 929 q 665 894 597 929 q 769 801 732 859 q 806 671 806 742 l 806 258 q 769 129 806 188 q 665 35 732 70 q 506 0 597 0 l 297 0 q 138 35 205 0 q 34 129 71 70 q -3 258 -3 188 l -3 671 q 34 801 -3 742 q 138 894 71 859 q 297 929 205 929 l 506 929 m 463 868 l 463 428 l 453 387 l 408 379 l 307 379 l 307 307 l 412 307 l 481 317 l 534 358 l 534 868 l 463 868 z "},"ȷ":{"ha":803,"x_min":-3,"x_max":806,"o":"m 506 929 q 665 894 597 929 q 769 801 732 859 q 806 671 806 742 l 806 258 q 769 129 806 188 q 665 35 732 70 q 506 0 597 0 l 297 0 q 138 35 205 0 q 34 129 71 70 q -3 258 -3 188 l -3 671 q 34 801 -3 742 q 138 894 71 859 q 297 929 205 929 l 506 929 m 463 868 l 463 428 l 453 387 l 408 379 l 307 379 l 307 307 l 412 307 l 481 317 l 534 358 l 534 868 l 463 868 z "},"ĵ":{"ha":803,"x_min":-3,"x_max":806,"o":"m 506 929 q 665 894 597 929 q 769 801 732 859 q 806 671 806 742 l 806 258 q 769 129 806 188 q 665 35 732 70 q 506 0 597 0 l 297 0 q 138 35 205 0 q 34 129 71 70 q -3 258 -3 188 l -3 671 q 34 801 -3 742 q 138 894 71 859 q 297 929 205 929 l 506 929 m 463 868 l 463 428 l 453 387 l 408 379 l 307 379 l 307 307 l 412 307 l 481 317 l 534 358 l 534 868 l 463 868 m 286 877 q 255 921 265 895 q 245 975 245 947 q 262 1059 245 1008 q 304 1166 279 1109 q 353 1276 329 1223 q 407 1328 373 1310 q 498 1345 441 1345 q 588 1325 555 1345 q 646 1255 622 1305 q 695 1145 674 1197 q 729 1054 713 1099 q 745 983 745 1009 q 698 877 745 913 l 286 877 m 376 983 l 431 983 l 495 1181 l 559 983 l 614 983 l 526 1212 l 465 1212 l 376 983 z "},"k":{"ha":803,"x_min":-3,"x_max":806,"o":"m 297 0 q 138 35 205 0 q 34 129 71 70 q -3 258 -3 188 l -3 671 q 34 801 -3 742 q 138 894 71 859 q 297 929 205 929 l 506 929 q 665 894 597 929 q 769 801 732 859 q 806 671 806 742 l 806 258 q 769 129 806 188 q 665 35 732 70 q 506 0 597 0 l 297 0 m 610 294 l 668 345 l 444 600 l 677 831 l 628 888 l 349 611 l 349 868 l 277 868 l 277 307 l 349 307 l 349 519 l 388 554 l 610 294 z "},"ķ":{"ha":803,"x_min":-3,"x_max":806,"o":"m 297 0 q 138 35 205 0 q 34 129 71 70 q -3 258 -3 188 l -3 671 q 34 801 -3 742 q 138 894 71 859 q 297 929 205 929 l 506 929 q 665 894 597 929 q 769 801 732 859 q 806 671 806 742 l 806 258 q 769 129 806 188 q 665 35 732 70 q 506 0 597 0 l 297 0 m 610 294 l 668 345 l 444 600 l 677 831 l 628 888 l 349 611 l 349 868 l 277 868 l 277 307 l 349 307 l 349 519 l 388 554 l 610 294 m 452 81 l 493 168 l 493 256 l 391 256 l 391 168 l 435 168 l 408 100 l 452 81 z "},"ĸ":{"ha":803,"x_min":-3,"x_max":806,"o":"m 297 0 q 138 35 205 0 q 34 129 71 70 q -3 258 -3 188 l -3 671 q 34 801 -3 742 q 138 894 71 859 q 297 929 205 929 l 506 929 q 665 894 597 929 q 769 801 732 859 q 806 671 806 742 l 806 258 q 769 129 806 188 q 665 35 732 70 q 506 0 597 0 l 297 0 m 610 294 l 668 345 l 444 600 l 677 831 l 628 888 l 349 611 l 349 868 l 277 868 l 277 307 l 349 307 l 349 519 l 388 554 l 610 294 z "},"l":{"ha":803,"x_min":-3,"x_max":806,"o":"m 297 0 q 138 35 205 0 q 34 129 71 70 q -3 258 -3 188 l -3 671 q 34 801 -3 742 q 138 894 71 859 q 297 929 205 929 l 506 929 q 665 894 597 929 q 769 801 732 859 q 806 671 806 742 l 806 258 q 769 129 806 188 q 665 35 732 70 q 506 0 597 0 l 297 0 m 304 307 l 585 307 l 585 379 l 376 379 l 376 868 l 304 868 l 304 307 z "},"ĺ":{"ha":803,"x_min":-3,"x_max":806,"o":"m 297 0 q 138 35 205 0 q 34 129 71 70 q -3 258 -3 188 l -3 671 q 34 801 -3 742 q 138 894 71 859 q 297 929 205 929 l 506 929 q 665 894 597 929 q 769 801 732 859 q 806 671 806 742 l 806 258 q 769 129 806 188 q 665 35 732 70 q 506 0 597 0 l 297 0 m 304 307 l 585 307 l 585 379 l 376 379 l 376 868 l 304 868 l 304 307 m 275 877 q 218 921 243 890 q 193 992 193 951 q 197 1025 193 1002 q 217 1102 201 1049 q 263 1251 232 1155 q 324 1311 279 1294 q 426 1328 368 1328 q 523 1312 477 1328 q 597 1266 568 1297 q 626 1192 626 1236 q 597 1101 626 1151 l 490 918 q 475 895 481 905 q 460 877 468 884 l 275 877 m 328 983 l 374 983 l 477 1210 l 395 1210 l 328 983 z "},"ľ":{"ha":803,"x_min":-3,"x_max":806,"o":"m 297 0 q 138 35 205 0 q 34 129 71 70 q -3 258 -3 188 l -3 671 q 34 801 -3 742 q 138 894 71 859 q 297 929 205 929 l 506 929 q 665 894 597 929 q 769 801 732 859 q 806 671 806 742 l 806 258 q 769 129 806 188 q 665 35 732 70 q 506 0 597 0 l 297 0 m 304 307 l 585 307 l 585 379 l 376 379 l 376 868 l 304 868 l 304 307 m 529 693 l 571 781 l 571 868 l 468 868 l 468 781 l 513 781 l 486 713 l 529 693 z "},"ļ":{"ha":803,"x_min":-3,"x_max":806,"o":"m 297 0 q 138 35 205 0 q 34 129 71 70 q -3 258 -3 188 l -3 671 q 34 801 -3 742 q 138 894 71 859 q 297 929 205 929 l 506 929 q 665 894 597 929 q 769 801 732 859 q 806 671 806 742 l 806 258 q 769 129 806 188 q 665 35 732 70 q 506 0 597 0 l 297 0 m 304 307 l 585 307 l 585 379 l 376 379 l 376 868 l 304 868 l 304 307 m 452 81 l 493 168 l 493 256 l 391 256 l 391 168 l 435 168 l 408 100 l 452 81 z "},"ŀ":{"ha":803,"x_min":-3,"x_max":806,"o":"m 297 0 q 138 35 205 0 q 34 129 71 70 q -3 258 -3 188 l -3 671 q 34 801 -3 742 q 138 894 71 859 q 297 929 205 929 l 506 929 q 665 894 597 929 q 769 801 732 859 q 806 671 806 742 l 806 258 q 769 129 806 188 q 665 35 732 70 q 506 0 597 0 l 297 0 m 304 307 l 585 307 l 585 379 l 376 379 l 376 868 l 304 868 l 304 307 m 479 608 l 568 608 l 568 696 l 479 696 l 479 608 z "},"ł":{"ha":803,"x_min":-3,"x_max":806,"o":"m 297 0 q 138 35 205 0 q 34 129 71 70 q -3 258 -3 188 l -3 671 q 34 801 -3 742 q 138 894 71 859 q 297 929 205 929 l 506 929 q 665 894 597 929 q 769 801 732 859 q 806 671 806 742 l 806 258 q 769 129 806 188 q 665 35 732 70 q 506 0 597 0 l 297 0 m 304 307 l 585 307 l 585 379 l 376 379 l 376 607 l 461 656 l 439 694 l 376 659 l 376 868 l 304 868 l 304 616 l 220 570 l 241 530 l 304 566 l 304 307 z "},"m":{"ha":803,"x_min":-3,"x_max":806,"o":"m 297 0 q 138 35 205 0 q 34 129 71 70 q -3 258 -3 188 l -3 671 q 34 801 -3 742 q 138 894 71 859 q 297 929 205 929 l 506 929 q 665 894 597 929 q 769 801 732 859 q 806 671 806 742 l 806 258 q 769 129 806 188 q 665 35 732 70 q 506 0 597 0 l 297 0 m 174 307 l 246 307 l 246 790 l 279 796 l 357 796 l 386 790 l 386 503 l 458 503 l 458 790 l 488 796 l 566 796 l 599 790 l 599 307 l 671 307 l 671 815 l 628 859 l 571 868 l 482 868 l 446 857 l 422 810 l 400 857 l 363 868 l 274 868 l 217 859 l 174 815 l 174 307 z "},"n":{"ha":803,"x_min":-3,"x_max":806,"o":"m 297 0 q 138 35 205 0 q 34 129 71 70 q -3 258 -3 188 l -3 671 q 34 801 -3 742 q 138 894 71 859 q 297 929 205 929 l 506 929 q 665 894 597 929 q 769 801 732 859 q 806 671 806 742 l 806 258 q 769 129 806 188 q 665 35 732 70 q 506 0 597 0 l 297 0 m 218 307 l 290 307 l 290 789 l 343 798 l 506 798 l 553 790 l 559 750 l 559 307 l 632 307 l 632 760 l 623 817 l 579 860 l 510 868 l 340 868 l 218 851 l 218 307 z "},"ń":{"ha":803,"x_min":-3,"x_max":806,"o":"m 297 0 q 138 35 205 0 q 34 129 71 70 q -3 258 -3 188 l -3 671 q 34 801 -3 742 q 138 894 71 859 q 297 929 205 929 l 506 929 q 665 894 597 929 q 769 801 732 859 q 806 671 806 742 l 806 258 q 769 129 806 188 q 665 35 732 70 q 506 0 597 0 l 297 0 m 218 307 l 290 307 l 290 789 l 343 798 l 506 798 l 553 790 l 559 750 l 559 307 l 632 307 l 632 760 l 623 817 l 579 860 l 510 868 l 340 868 l 218 851 l 218 307 m 348 877 q 291 921 317 890 q 266 992 266 951 q 270 1025 266 1002 q 290 1102 275 1049 q 336 1251 305 1155 q 397 1311 353 1294 q 499 1328 441 1328 q 596 1312 550 1328 q 670 1266 642 1297 q 699 1192 699 1236 q 670 1101 699 1151 l 563 918 q 548 895 555 905 q 534 877 541 884 l 348 877 m 401 983 l 448 983 l 551 1210 l 469 1210 l 401 983 z "},"ŉ":{"ha":803,"x_min":-3,"x_max":806,"o":"m 297 0 q 138 35 205 0 q 34 129 71 70 q -3 258 -3 188 l -3 671 q 34 801 -3 742 q 138 894 71 859 q 297 929 205 929 l 506 929 q 665 894 597 929 q 769 801 732 859 q 806 671 806 742 l 806 258 q 769 129 806 188 q 665 35 732 70 q 506 0 597 0 l 297 0 m 218 307 l 290 307 l 290 789 l 343 798 l 506 798 l 553 790 l 559 750 l 559 307 l 632 307 l 632 760 l 623 817 l 579 860 l 510 868 l 340 868 l 218 851 l 218 307 m 132 630 l 174 718 l 174 805 l 71 805 l 71 718 l 115 718 l 89 649 l 132 630 z "},"ň":{"ha":803,"x_min":-3,"x_max":806,"o":"m 297 0 q 138 35 205 0 q 34 129 71 70 q -3 258 -3 188 l -3 671 q 34 801 -3 742 q 138 894 71 859 q 297 929 205 929 l 506 929 q 665 894 597 929 q 769 801 732 859 q 806 671 806 742 l 806 258 q 769 129 806 188 q 665 35 732 70 q 506 0 597 0 l 297 0 m 218 307 l 290 307 l 290 789 l 343 798 l 506 798 l 553 790 l 559 750 l 559 307 l 632 307 l 632 760 l 623 817 l 579 860 l 510 868 l 340 868 l 218 851 l 218 307 m 259 904 q 221 1014 240 958 q 191 1121 203 1071 q 178 1204 178 1171 q 214 1291 178 1252 q 336 1331 249 1331 q 391 1320 370 1331 q 430 1291 412 1309 q 476 1321 451 1310 q 538 1332 501 1332 q 646 1292 613 1332 q 678 1197 678 1252 q 665 1106 678 1160 q 634 998 652 1053 q 600 904 616 943 l 259 904 m 398 982 l 459 982 l 548 1211 l 492 1211 l 429 1013 l 364 1211 l 309 1211 l 398 982 z "},"ņ":{"ha":803,"x_min":-3,"x_max":806,"o":"m 297 0 q 138 35 205 0 q 34 129 71 70 q -3 258 -3 188 l -3 671 q 34 801 -3 742 q 138 894 71 859 q 297 929 205 929 l 506 929 q 665 894 597 929 q 769 801 732 859 q 806 671 806 742 l 806 258 q 769 129 806 188 q 665 35 732 70 q 506 0 597 0 l 297 0 m 218 307 l 290 307 l 290 789 l 343 798 l 506 798 l 553 790 l 559 750 l 559 307 l 632 307 l 632 760 l 623 817 l 579 860 l 510 868 l 340 868 l 218 851 l 218 307 m 452 81 l 493 168 l 493 256 l 391 256 l 391 168 l 435 168 l 408 100 l 452 81 z "},"ñ":{"ha":803,"x_min":-3,"x_max":806,"o":"m 297 0 q 138 35 205 0 q 34 129 71 70 q -3 258 -3 188 l -3 671 q 34 801 -3 742 q 138 894 71 859 q 297 929 205 929 l 506 929 q 665 894 597 929 q 769 801 732 859 q 806 671 806 742 l 806 258 q 769 129 806 188 q 665 35 732 70 q 506 0 597 0 l 297 0 m 218 307 l 290 307 l 290 789 l 343 798 l 506 798 l 553 790 l 559 750 l 559 307 l 632 307 l 632 760 l 623 817 l 579 860 l 510 868 l 340 868 l 218 851 l 218 307 m 228 890 q 138 1080 138 964 q 175 1209 138 1150 q 279 1302 212 1267 q 437 1337 346 1337 q 597 1302 530 1337 q 701 1209 664 1267 q 738 1080 738 1150 q 649 890 738 966 l 228 890 m 521 971 q 559 986 547 971 q 574 1023 571 1002 q 578 1060 578 1044 l 578 1082 l 517 1082 q 500 1041 507 1052 q 484 1031 493 1031 q 456 1042 473 1031 q 410 1064 439 1053 q 334 1075 381 1075 q 295 1057 307 1075 q 280 1017 283 1039 q 277 982 277 995 l 277 974 l 338 974 q 350 1009 343 1000 q 367 1019 357 1019 q 400 1007 380 1019 q 449 983 420 995 q 521 971 478 971 z "},"ŋ":{"ha":803,"x_min":-3,"x_max":806,"o":"m 297 0 q 138 35 205 0 q 34 129 71 70 q -3 258 -3 188 l -3 671 q 34 801 -3 742 q 138 894 71 859 q 297 929 205 929 l 506 929 q 665 894 597 929 q 769 801 732 859 q 806 671 806 742 l 806 258 q 769 129 806 188 q 665 35 732 70 q 506 0 597 0 l 297 0 m 406 109 l 511 109 l 579 118 l 632 160 l 632 760 l 623 817 l 579 860 l 510 868 l 340 868 l 218 851 l 218 307 l 290 307 l 290 789 l 343 798 l 506 798 l 553 790 l 559 750 l 559 229 l 551 189 l 507 180 l 406 180 l 406 109 z "},"o":{"ha":803,"x_min":-3,"x_max":806,"o":"m 297 0 q 138 35 205 0 q 34 129 71 70 q -3 258 -3 188 l -3 671 q 34 801 -3 742 q 138 894 71 859 q 297 929 205 929 l 506 929 q 665 894 597 929 q 769 801 732 859 q 806 671 806 742 l 806 258 q 769 129 806 188 q 665 35 732 70 q 506 0 597 0 l 297 0 m 342 307 l 524 307 l 593 315 l 636 358 l 646 416 l 646 758 l 636 815 l 593 859 l 524 868 l 342 868 l 273 859 l 229 815 l 221 758 l 221 416 l 229 358 l 274 315 l 342 307 m 346 379 l 302 386 l 292 427 l 292 751 l 298 789 l 346 796 l 519 796 l 567 789 l 574 749 l 574 424 l 564 386 l 519 379 l 346 379 z "},"ó":{"ha":803,"x_min":-3,"x_max":806,"o":"m 297 0 q 138 35 205 0 q 34 129 71 70 q -3 258 -3 188 l -3 671 q 34 801 -3 742 q 138 894 71 859 q 297 929 205 929 l 506 929 q 665 894 597 929 q 769 801 732 859 q 806 671 806 742 l 806 258 q 769 129 806 188 q 665 35 732 70 q 506 0 597 0 l 297 0 m 342 307 l 524 307 l 593 315 l 636 358 l 646 416 l 646 758 l 636 815 l 593 859 l 524 868 l 342 868 l 273 859 l 229 815 l 221 758 l 221 416 l 229 358 l 274 315 l 342 307 m 346 379 l 302 386 l 292 427 l 292 751 l 298 789 l 346 796 l 519 796 l 567 789 l 574 749 l 574 424 l 564 386 l 519 379 l 346 379 m 348 877 q 291 921 317 890 q 266 992 266 951 q 270 1025 266 1002 q 290 1102 275 1049 q 336 1251 305 1155 q 397 1311 353 1294 q 499 1328 441 1328 q 596 1312 550 1328 q 670 1266 642 1297 q 699 1192 699 1236 q 670 1101 699 1151 l 563 918 q 548 895 555 905 q 534 877 541 884 l 348 877 m 401 983 l 448 983 l 551 1210 l 469 1210 l 401 983 z "},"ŏ":{"ha":803,"x_min":-3,"x_max":806,"o":"m 297 0 q 138 35 205 0 q 34 129 71 70 q -3 258 -3 188 l -3 671 q 34 801 -3 742 q 138 894 71 859 q 297 929 205 929 l 506 929 q 665 894 597 929 q 769 801 732 859 q 806 671 806 742 l 806 258 q 769 129 806 188 q 665 35 732 70 q 506 0 597 0 l 297 0 m 342 307 l 524 307 l 593 315 l 636 358 l 646 416 l 646 758 l 636 815 l 593 859 l 524 868 l 342 868 l 273 859 l 229 815 l 221 758 l 221 416 l 229 358 l 274 315 l 342 307 m 346 379 l 302 386 l 292 427 l 292 751 l 298 789 l 346 796 l 519 796 l 567 789 l 574 749 l 574 424 l 564 386 l 519 379 l 346 379 m 251 877 q 163 958 193 911 q 133 1066 133 1004 q 170 1174 133 1125 q 274 1253 207 1223 q 433 1282 341 1282 q 592 1253 525 1282 q 696 1174 659 1223 q 733 1066 733 1125 q 703 958 733 1004 q 615 877 672 911 l 251 877 m 410 964 l 458 964 l 511 972 l 551 1013 l 559 1080 l 498 1080 l 491 1035 l 451 1025 l 415 1025 l 377 1032 l 370 1080 l 309 1080 l 317 1012 l 357 972 l 410 964 z "},"ô":{"ha":803,"x_min":-3,"x_max":806,"o":"m 297 0 q 138 35 205 0 q 34 129 71 70 q -3 258 -3 188 l -3 671 q 34 801 -3 742 q 138 894 71 859 q 297 929 205 929 l 506 929 q 665 894 597 929 q 769 801 732 859 q 806 671 806 742 l 806 258 q 769 129 806 188 q 665 35 732 70 q 506 0 597 0 l 297 0 m 342 307 l 524 307 l 593 315 l 636 358 l 646 416 l 646 758 l 636 815 l 593 859 l 524 868 l 342 868 l 273 859 l 229 815 l 221 758 l 221 416 l 229 358 l 274 315 l 342 307 m 346 379 l 302 386 l 292 427 l 292 751 l 298 789 l 346 796 l 519 796 l 567 789 l 574 749 l 574 424 l 564 386 l 519 379 l 346 379 m 213 877 q 182 921 192 895 q 172 975 172 947 q 189 1059 172 1008 q 231 1166 205 1109 q 280 1276 256 1223 q 334 1328 300 1310 q 425 1345 368 1345 q 515 1325 481 1345 q 573 1255 549 1305 q 622 1145 601 1197 q 655 1054 640 1099 q 671 983 671 1009 q 625 877 671 913 l 213 877 m 302 983 l 357 983 l 422 1181 l 486 983 l 541 983 l 452 1212 l 391 1212 l 302 983 z "},"ȍ":{"ha":803,"x_min":-3,"x_max":806,"o":"m 297 0 q 138 35 205 0 q 34 129 71 70 q -3 258 -3 188 l -3 671 q 34 801 -3 742 q 138 894 71 859 q 297 929 205 929 l 506 929 q 665 894 597 929 q 769 801 732 859 q 806 671 806 742 l 806 258 q 769 129 806 188 q 665 35 732 70 q 506 0 597 0 l 297 0 m 342 307 l 524 307 l 593 315 l 636 358 l 646 416 l 646 758 l 636 815 l 593 859 l 524 868 l 342 868 l 273 859 l 229 815 l 221 758 l 221 416 l 229 358 l 274 315 l 342 307 m 346 379 l 302 386 l 292 427 l 292 751 l 298 789 l 346 796 l 519 796 l 567 789 l 574 749 l 574 424 l 564 386 l 519 379 l 346 379 m 231 877 l 60 1131 l 165 1329 l 228 1329 q 276 1320 256 1325 q 311 1306 296 1316 l 322 1329 l 385 1329 q 446 1317 422 1325 q 487 1290 470 1308 q 522 1238 504 1272 l 644 1012 q 648 968 648 989 q 616 877 648 911 l 231 877 m 326 968 l 361 968 l 239 1195 l 176 1195 l 326 968 m 484 968 l 518 968 l 396 1195 l 333 1195 l 484 968 z "},"ö":{"ha":803,"x_min":-3,"x_max":806,"o":"m 297 0 q 138 35 205 0 q 34 129 71 70 q -3 258 -3 188 l -3 671 q 34 801 -3 742 q 138 894 71 859 q 297 929 205 929 l 506 929 q 665 894 597 929 q 769 801 732 859 q 806 671 806 742 l 806 258 q 769 129 806 188 q 665 35 732 70 q 506 0 597 0 l 297 0 m 342 307 l 524 307 l 593 315 l 636 358 l 646 416 l 646 758 l 636 815 l 593 859 l 524 868 l 342 868 l 273 859 l 229 815 l 221 758 l 221 416 l 229 358 l 274 315 l 342 307 m 346 379 l 302 386 l 292 427 l 292 751 l 298 789 l 346 796 l 519 796 l 567 789 l 574 749 l 574 424 l 564 386 l 519 379 l 346 379 m 239 890 q 172 963 195 920 q 149 1060 149 1007 q 182 1160 149 1114 q 277 1235 216 1206 q 421 1263 338 1263 q 566 1235 505 1263 q 661 1160 627 1206 q 694 1060 694 1114 q 602 890 694 949 l 239 890 m 283 1003 l 372 1003 l 372 1090 l 283 1090 l 283 1003 m 460 1003 l 549 1003 l 549 1090 l 460 1090 l 460 1003 z "},"ò":{"ha":803,"x_min":-3,"x_max":806,"o":"m 297 0 q 138 35 205 0 q 34 129 71 70 q -3 258 -3 188 l -3 671 q 34 801 -3 742 q 138 894 71 859 q 297 929 205 929 l 506 929 q 665 894 597 929 q 769 801 732 859 q 806 671 806 742 l 806 258 q 769 129 806 188 q 665 35 732 70 q 506 0 597 0 l 297 0 m 342 307 l 524 307 l 593 315 l 636 358 l 646 416 l 646 758 l 636 815 l 593 859 l 524 868 l 342 868 l 273 859 l 229 815 l 221 758 l 221 416 l 229 358 l 274 315 l 342 307 m 346 379 l 302 386 l 292 427 l 292 751 l 298 789 l 346 796 l 519 796 l 567 789 l 574 749 l 574 424 l 564 386 l 519 379 l 346 379 m 306 877 q 292 895 298 884 q 277 918 285 905 l 170 1101 q 140 1192 139 1153 q 169 1266 140 1236 q 244 1312 198 1297 q 340 1328 290 1328 q 443 1311 398 1328 q 503 1251 487 1294 q 549 1102 534 1155 q 569 1025 564 1049 q 574 992 574 1002 q 549 921 574 951 q 492 877 524 890 l 306 877 m 392 983 l 439 983 l 371 1210 l 289 1210 l 392 983 z "},"ő":{"ha":803,"x_min":-3,"x_max":806,"o":"m 297 0 q 138 35 205 0 q 34 129 71 70 q -3 258 -3 188 l -3 671 q 34 801 -3 742 q 138 894 71 859 q 297 929 205 929 l 506 929 q 665 894 597 929 q 769 801 732 859 q 806 671 806 742 l 806 258 q 769 129 806 188 q 665 35 732 70 q 506 0 597 0 l 297 0 m 342 307 l 524 307 l 593 315 l 636 358 l 646 416 l 646 758 l 636 815 l 593 859 l 524 868 l 342 868 l 273 859 l 229 815 l 221 758 l 221 416 l 229 358 l 274 315 l 342 307 m 346 379 l 302 386 l 292 427 l 292 751 l 298 789 l 346 796 l 519 796 l 567 789 l 574 749 l 574 424 l 564 386 l 519 379 l 346 379 m 247 877 q 215 968 215 911 q 219 1012 215 989 l 341 1238 q 395 1305 368 1288 q 479 1329 422 1323 l 541 1329 l 553 1306 q 588 1320 568 1316 q 636 1329 608 1325 l 699 1329 l 804 1131 l 633 877 l 247 877 m 346 968 l 380 968 l 530 1195 l 468 1195 l 346 968 m 503 968 l 537 968 l 687 1195 l 625 1195 l 503 968 z "},"ȏ":{"ha":803,"x_min":-3,"x_max":806,"o":"m 297 0 q 138 35 205 0 q 34 129 71 70 q -3 258 -3 188 l -3 671 q 34 801 -3 742 q 138 894 71 859 q 297 929 205 929 l 506 929 q 665 894 597 929 q 769 801 732 859 q 806 671 806 742 l 806 258 q 769 129 806 188 q 665 35 732 70 q 506 0 597 0 l 297 0 m 342 307 l 524 307 l 593 315 l 636 358 l 646 416 l 646 758 l 636 815 l 593 859 l 524 868 l 342 868 l 273 859 l 229 815 l 221 758 l 221 416 l 229 358 l 274 315 l 342 307 m 346 379 l 302 386 l 292 427 l 292 751 l 298 789 l 346 796 l 519 796 l 567 789 l 574 749 l 574 424 l 564 386 l 519 379 l 346 379 m 239 877 q 152 958 182 911 q 121 1066 121 1004 q 158 1174 121 1125 q 262 1253 195 1223 q 421 1282 330 1282 q 581 1253 513 1282 q 685 1174 648 1223 q 722 1066 722 1125 q 691 958 722 1004 q 604 877 661 911 l 239 877 m 296 986 l 357 986 l 364 1033 l 402 1040 l 438 1040 l 478 1030 l 486 986 l 547 986 l 538 1053 l 498 1093 l 445 1101 l 397 1101 l 344 1093 l 304 1054 l 296 986 z "},"ō":{"ha":803,"x_min":-3,"x_max":806,"o":"m 297 0 q 138 35 205 0 q 34 129 71 70 q -3 258 -3 188 l -3 671 q 34 801 -3 742 q 138 894 71 859 q 297 929 205 929 l 506 929 q 665 894 597 929 q 769 801 732 859 q 806 671 806 742 l 806 258 q 769 129 806 188 q 665 35 732 70 q 506 0 597 0 l 297 0 m 342 307 l 524 307 l 593 315 l 636 358 l 646 416 l 646 758 l 636 815 l 593 859 l 524 868 l 342 868 l 273 859 l 229 815 l 221 758 l 221 416 l 229 358 l 274 315 l 342 307 m 346 379 l 302 386 l 292 427 l 292 751 l 298 789 l 346 796 l 519 796 l 567 789 l 574 749 l 574 424 l 564 386 l 519 379 l 346 379 m 252 877 q 164 958 195 911 q 134 1066 134 1004 q 171 1174 134 1125 q 275 1253 208 1223 q 434 1282 342 1282 q 593 1253 526 1282 q 697 1174 661 1223 q 734 1066 734 1125 q 704 958 734 1004 q 616 877 673 911 l 252 877 m 297 1019 l 552 1019 l 552 1092 l 297 1092 l 297 1019 z "},"ø":{"ha":803,"x_min":-3,"x_max":806,"o":"m 297 0 q 138 35 205 0 q 34 129 71 70 q -3 258 -3 188 l -3 671 q 34 801 -3 742 q 138 894 71 859 q 297 929 205 929 l 506 929 q 665 894 597 929 q 769 801 732 859 q 806 671 806 742 l 806 258 q 769 129 806 188 q 665 35 732 70 q 506 0 597 0 l 297 0 m 334 311 l 516 311 l 586 319 l 629 362 l 638 420 l 638 760 l 629 816 l 586 859 l 516 869 l 334 869 l 264 859 l 222 816 l 212 760 l 212 420 l 222 362 l 266 319 l 334 311 m 284 434 l 284 752 l 291 790 l 338 797 l 513 797 q 519 796 515 797 q 524 795 522 795 l 284 434 m 336 383 q 332 384 334 383 q 329 385 330 385 l 566 752 l 566 427 l 557 390 l 512 383 l 336 383 z "},"õ":{"ha":803,"x_min":-3,"x_max":806,"o":"m 297 0 q 138 35 205 0 q 34 129 71 70 q -3 258 -3 188 l -3 671 q 34 801 -3 742 q 138 894 71 859 q 297 929 205 929 l 506 929 q 665 894 597 929 q 769 801 732 859 q 806 671 806 742 l 806 258 q 769 129 806 188 q 665 35 732 70 q 506 0 597 0 l 297 0 m 342 307 l 524 307 l 593 315 l 636 358 l 646 416 l 646 758 l 636 815 l 593 859 l 524 868 l 342 868 l 273 859 l 229 815 l 221 758 l 221 416 l 229 358 l 274 315 l 342 307 m 346 379 l 302 386 l 292 427 l 292 751 l 298 789 l 346 796 l 519 796 l 567 789 l 574 749 l 574 424 l 564 386 l 519 379 l 346 379 m 228 890 q 138 1080 138 964 q 175 1209 138 1150 q 279 1302 212 1267 q 437 1337 346 1337 q 597 1302 530 1337 q 701 1209 664 1267 q 738 1080 738 1150 q 649 890 738 966 l 228 890 m 521 971 q 559 986 547 971 q 574 1023 571 1002 q 578 1060 578 1044 l 578 1082 l 517 1082 q 500 1041 507 1052 q 484 1031 493 1031 q 456 1042 473 1031 q 410 1064 439 1053 q 334 1075 381 1075 q 295 1057 307 1075 q 280 1017 283 1039 q 277 982 277 995 l 277 974 l 338 974 q 350 1009 343 1000 q 367 1019 357 1019 q 400 1007 380 1019 q 449 983 420 995 q 521 971 478 971 z "},"œ":{"ha":803,"x_min":-3,"x_max":806,"o":"m 297 0 q 138 35 205 0 q 34 129 71 70 q -3 258 -3 188 l -3 671 q 34 801 -3 742 q 138 894 71 859 q 297 929 205 929 l 506 929 q 665 894 597 929 q 769 801 732 859 q 806 671 806 742 l 806 258 q 769 129 806 188 q 665 35 732 70 q 506 0 597 0 l 297 0 m 275 307 l 351 307 l 421 315 l 443 338 l 443 307 l 667 307 l 667 379 l 473 379 l 473 551 l 635 551 l 635 623 l 472 623 l 472 796 l 657 796 l 657 868 l 443 868 l 443 836 l 421 859 l 351 868 l 275 868 l 205 859 l 163 815 l 154 758 l 154 416 l 163 358 l 207 315 l 275 307 m 279 379 l 235 386 l 225 427 l 225 751 l 232 789 l 279 796 l 347 796 l 395 789 l 401 749 l 401 424 l 392 386 l 347 379 l 279 379 z "},"p":{"ha":803,"x_min":-3,"x_max":806,"o":"m 297 0 q 138 35 205 0 q 34 129 71 70 q -3 258 -3 188 l -3 671 q 34 801 -3 742 q 138 894 71 859 q 297 929 205 929 l 506 929 q 665 894 597 929 q 769 801 732 859 q 806 671 806 742 l 806 258 q 769 129 806 188 q 665 35 732 70 q 506 0 597 0 l 297 0 m 256 307 l 326 307 l 326 507 l 509 507 l 578 515 l 621 558 l 631 616 l 631 758 l 621 815 l 578 859 l 509 868 l 256 868 l 256 307 m 326 579 l 326 796 l 505 796 l 551 789 l 558 749 l 558 624 l 549 586 l 505 579 l 326 579 z "},"þ":{"ha":803,"x_min":-3,"x_max":806,"o":"m 297 0 q 138 35 205 0 q 34 129 71 70 q -3 258 -3 188 l -3 671 q 34 801 -3 742 q 138 894 71 859 q 297 929 205 929 l 506 929 q 665 894 597 929 q 769 801 732 859 q 806 671 806 742 l 806 258 q 769 129 806 188 q 665 35 732 70 q 506 0 597 0 l 297 0 m 256 307 l 326 307 l 326 464 l 509 464 l 578 472 l 621 515 l 631 574 l 631 660 l 621 717 l 578 760 l 509 770 l 326 770 l 326 889 l 256 889 l 256 307 m 326 536 l 326 697 l 505 697 l 551 690 l 558 650 l 558 581 l 549 543 l 505 536 l 326 536 z "},"q":{"ha":803,"x_min":-3,"x_max":806,"o":"m 297 0 q 138 35 205 0 q 34 129 71 70 q -3 258 -3 188 l -3 671 q 34 801 -3 742 q 138 894 71 859 q 297 929 205 929 l 506 929 q 665 894 597 929 q 769 801 732 859 q 806 671 806 742 l 806 258 q 769 129 806 188 q 665 35 732 70 q 506 0 597 0 l 297 0 m 517 203 l 581 233 l 543 310 l 595 315 l 637 358 l 647 416 l 647 758 l 637 815 l 595 859 l 525 868 l 343 868 l 274 859 l 231 815 l 222 758 l 222 416 l 231 358 l 275 315 l 343 307 l 464 307 l 517 203 m 347 379 l 303 386 l 293 427 l 293 751 l 300 789 l 347 796 l 521 796 l 568 789 l 575 749 l 575 424 l 566 386 l 521 379 l 507 379 l 467 458 l 404 424 l 425 379 l 347 379 z "},"r":{"ha":803,"x_min":-3,"x_max":806,"o":"m 297 0 q 138 35 205 0 q 34 129 71 70 q -3 258 -3 188 l -3 671 q 34 801 -3 742 q 138 894 71 859 q 297 929 205 929 l 506 929 q 665 894 597 929 q 769 801 732 859 q 806 671 806 742 l 806 258 q 769 129 806 188 q 665 35 732 70 q 506 0 597 0 l 297 0 m 233 307 l 306 307 l 306 533 l 482 533 l 530 511 l 541 475 l 541 307 l 612 307 l 612 482 l 589 545 l 511 572 l 586 608 l 607 669 l 607 745 l 599 802 l 554 859 l 486 868 l 233 868 l 233 307 m 306 606 l 306 796 l 482 796 l 530 775 l 535 736 l 535 664 l 525 627 l 482 606 l 306 606 z "},"ŕ":{"ha":803,"x_min":-3,"x_max":806,"o":"m 297 0 q 138 35 205 0 q 34 129 71 70 q -3 258 -3 188 l -3 671 q 34 801 -3 742 q 138 894 71 859 q 297 929 205 929 l 506 929 q 665 894 597 929 q 769 801 732 859 q 806 671 806 742 l 806 258 q 769 129 806 188 q 665 35 732 70 q 506 0 597 0 l 297 0 m 233 307 l 306 307 l 306 533 l 482 533 l 530 511 l 541 475 l 541 307 l 612 307 l 612 482 l 589 545 l 511 572 l 586 608 l 607 669 l 607 745 l 599 802 l 554 859 l 486 868 l 233 868 l 233 307 m 306 606 l 306 796 l 482 796 l 530 775 l 535 736 l 535 664 l 525 627 l 482 606 l 306 606 m 348 877 q 291 921 317 890 q 266 992 266 951 q 270 1025 266 1002 q 290 1102 275 1049 q 336 1251 305 1155 q 397 1311 353 1294 q 499 1328 441 1328 q 596 1312 550 1328 q 670 1266 642 1297 q 699 1192 699 1236 q 670 1101 699 1151 l 563 918 q 548 895 555 905 q 534 877 541 884 l 348 877 m 401 983 l 448 983 l 551 1210 l 469 1210 l 401 983 z "},"ř":{"ha":803,"x_min":-3,"x_max":806,"o":"m 297 0 q 138 35 205 0 q 34 129 71 70 q -3 258 -3 188 l -3 671 q 34 801 -3 742 q 138 894 71 859 q 297 929 205 929 l 506 929 q 665 894 597 929 q 769 801 732 859 q 806 671 806 742 l 806 258 q 769 129 806 188 q 665 35 732 70 q 506 0 597 0 l 297 0 m 233 307 l 306 307 l 306 533 l 482 533 l 530 511 l 541 475 l 541 307 l 612 307 l 612 482 l 589 545 l 511 572 l 586 608 l 607 669 l 607 745 l 599 802 l 554 859 l 486 868 l 233 868 l 233 307 m 306 606 l 306 796 l 482 796 l 530 775 l 535 736 l 535 664 l 525 627 l 482 606 l 306 606 m 259 904 q 221 1014 240 958 q 191 1121 203 1071 q 178 1204 178 1171 q 214 1291 178 1252 q 336 1331 249 1331 q 391 1320 370 1331 q 430 1291 412 1309 q 476 1321 451 1310 q 538 1332 501 1332 q 646 1292 613 1332 q 678 1197 678 1252 q 665 1106 678 1160 q 634 998 652 1053 q 600 904 616 943 l 259 904 m 398 982 l 459 982 l 548 1211 l 492 1211 l 429 1013 l 364 1211 l 309 1211 l 398 982 z "},"ŗ":{"ha":803,"x_min":-3,"x_max":806,"o":"m 297 0 q 138 35 205 0 q 34 129 71 70 q -3 258 -3 188 l -3 671 q 34 801 -3 742 q 138 894 71 859 q 297 929 205 929 l 506 929 q 665 894 597 929 q 769 801 732 859 q 806 671 806 742 l 806 258 q 769 129 806 188 q 665 35 732 70 q 506 0 597 0 l 297 0 m 233 307 l 306 307 l 306 533 l 482 533 l 530 511 l 541 475 l 541 307 l 612 307 l 612 482 l 589 545 l 511 572 l 586 608 l 607 669 l 607 745 l 599 802 l 554 859 l 486 868 l 233 868 l 233 307 m 306 606 l 306 796 l 482 796 l 530 775 l 535 736 l 535 664 l 525 627 l 482 606 l 306 606 m 452 81 l 493 168 l 493 256 l 391 256 l 391 168 l 435 168 l 408 100 l 452 81 z "},"ȑ":{"ha":803,"x_min":-3,"x_max":806,"o":"m 297 0 q 138 35 205 0 q 34 129 71 70 q -3 258 -3 188 l -3 671 q 34 801 -3 742 q 138 894 71 859 q 297 929 205 929 l 506 929 q 665 894 597 929 q 769 801 732 859 q 806 671 806 742 l 806 258 q 769 129 806 188 q 665 35 732 70 q 506 0 597 0 l 297 0 m 233 307 l 306 307 l 306 533 l 482 533 l 530 511 l 541 475 l 541 307 l 612 307 l 612 482 l 589 545 l 511 572 l 586 608 l 607 669 l 607 745 l 599 802 l 554 859 l 486 868 l 233 868 l 233 307 m 306 606 l 306 796 l 482 796 l 530 775 l 535 736 l 535 664 l 525 627 l 482 606 l 306 606 m 231 877 l 60 1131 l 165 1329 l 228 1329 q 276 1320 256 1325 q 311 1306 296 1316 l 322 1329 l 385 1329 q 446 1317 422 1325 q 487 1290 470 1308 q 522 1238 504 1272 l 644 1012 q 648 968 648 989 q 616 877 648 911 l 231 877 m 326 968 l 361 968 l 239 1195 l 176 1195 l 326 968 m 484 968 l 518 968 l 396 1195 l 333 1195 l 484 968 z "},"ȓ":{"ha":803,"x_min":-3,"x_max":806,"o":"m 297 0 q 138 35 205 0 q 34 129 71 70 q -3 258 -3 188 l -3 671 q 34 801 -3 742 q 138 894 71 859 q 297 929 205 929 l 506 929 q 665 894 597 929 q 769 801 732 859 q 806 671 806 742 l 806 258 q 769 129 806 188 q 665 35 732 70 q 506 0 597 0 l 297 0 m 233 307 l 306 307 l 306 533 l 482 533 l 530 511 l 541 475 l 541 307 l 612 307 l 612 482 l 589 545 l 511 572 l 586 608 l 607 669 l 607 745 l 599 802 l 554 859 l 486 868 l 233 868 l 233 307 m 306 606 l 306 796 l 482 796 l 530 775 l 535 736 l 535 664 l 525 627 l 482 606 l 306 606 m 239 877 q 152 958 182 911 q 121 1066 121 1004 q 158 1174 121 1125 q 262 1253 195 1223 q 421 1282 330 1282 q 581 1253 513 1282 q 685 1174 648 1223 q 722 1066 722 1125 q 691 958 722 1004 q 604 877 661 911 l 239 877 m 296 986 l 357 986 l 364 1033 l 402 1040 l 438 1040 l 478 1030 l 486 986 l 547 986 l 538 1053 l 498 1093 l 445 1101 l 397 1101 l 344 1093 l 304 1054 l 296 986 z "},"s":{"ha":803,"x_min":-3,"x_max":806,"o":"m 297 0 q 138 35 205 0 q 34 129 71 70 q -3 258 -3 188 l -3 671 q 34 801 -3 742 q 138 894 71 859 q 297 929 205 929 l 506 929 q 665 894 597 929 q 769 801 732 859 q 806 671 806 742 l 806 258 q 769 129 806 188 q 665 35 732 70 q 506 0 597 0 l 297 0 m 335 307 l 511 307 l 581 315 l 624 358 l 633 416 l 633 519 l 624 578 l 581 621 l 510 628 l 358 628 l 317 636 l 307 676 l 307 747 l 317 787 l 361 796 l 534 796 l 597 783 l 614 857 l 535 868 l 357 868 l 289 859 l 245 815 l 236 758 l 236 665 l 245 608 l 289 566 l 357 557 l 510 557 l 551 550 l 561 513 l 561 424 l 551 386 l 507 379 l 339 379 l 273 390 l 256 317 l 335 307 z "},"ś":{"ha":803,"x_min":-3,"x_max":806,"o":"m 297 0 q 138 35 205 0 q 34 129 71 70 q -3 258 -3 188 l -3 671 q 34 801 -3 742 q 138 894 71 859 q 297 929 205 929 l 506 929 q 665 894 597 929 q 769 801 732 859 q 806 671 806 742 l 806 258 q 769 129 806 188 q 665 35 732 70 q 506 0 597 0 l 297 0 m 335 307 l 511 307 l 581 315 l 624 358 l 633 416 l 633 519 l 624 578 l 581 621 l 510 628 l 358 628 l 317 636 l 307 676 l 307 747 l 317 787 l 361 796 l 534 796 l 597 783 l 614 857 l 535 868 l 357 868 l 289 859 l 245 815 l 236 758 l 236 665 l 245 608 l 289 566 l 357 557 l 510 557 l 551 550 l 561 513 l 561 424 l 551 386 l 507 379 l 339 379 l 273 390 l 256 317 l 335 307 m 348 877 q 291 921 317 890 q 266 992 266 951 q 270 1025 266 1002 q 290 1102 275 1049 q 336 1251 305 1155 q 397 1311 353 1294 q 499 1328 441 1328 q 596 1312 550 1328 q 670 1266 642 1297 q 699 1192 699 1236 q 670 1101 699 1151 l 563 918 q 548 895 555 905 q 534 877 541 884 l 348 877 m 401 983 l 448 983 l 551 1210 l 469 1210 l 401 983 z "},"š":{"ha":803,"x_min":-3,"x_max":806,"o":"m 297 0 q 138 35 205 0 q 34 129 71 70 q -3 258 -3 188 l -3 671 q 34 801 -3 742 q 138 894 71 859 q 297 929 205 929 l 506 929 q 665 894 597 929 q 769 801 732 859 q 806 671 806 742 l 806 258 q 769 129 806 188 q 665 35 732 70 q 506 0 597 0 l 297 0 m 335 307 l 511 307 l 581 315 l 624 358 l 633 416 l 633 519 l 624 578 l 581 621 l 510 628 l 358 628 l 317 636 l 307 676 l 307 747 l 317 787 l 361 796 l 534 796 l 597 783 l 614 857 l 535 868 l 357 868 l 289 859 l 245 815 l 236 758 l 236 665 l 245 608 l 289 566 l 357 557 l 510 557 l 551 550 l 561 513 l 561 424 l 551 386 l 507 379 l 339 379 l 273 390 l 256 317 l 335 307 m 259 904 q 221 1014 240 958 q 191 1121 203 1071 q 178 1204 178 1171 q 214 1291 178 1252 q 336 1331 249 1331 q 391 1320 370 1331 q 430 1291 412 1309 q 476 1321 451 1310 q 538 1332 501 1332 q 646 1292 613 1332 q 678 1197 678 1252 q 665 1106 678 1160 q 634 998 652 1053 q 600 904 616 943 l 259 904 m 398 982 l 459 982 l 548 1211 l 492 1211 l 429 1013 l 364 1211 l 309 1211 l 398 982 z "},"ş":{"ha":803,"x_min":-3,"x_max":806,"o":"m 297 0 q 138 35 205 0 q 34 129 71 70 q -3 258 -3 188 l -3 671 q 34 801 -3 742 q 138 894 71 859 q 297 929 205 929 l 506 929 q 665 894 597 929 q 769 801 732 859 q 806 671 806 742 l 806 258 q 769 129 806 188 q 665 35 732 70 q 506 0 597 0 l 297 0 m 472 89 l 472 150 l 397 157 l 387 197 l 395 221 l 469 228 l 469 307 l 511 307 l 581 315 l 624 358 l 633 416 l 633 519 l 624 578 l 581 621 l 510 628 l 358 628 l 317 636 q 312 657 313 648 q 307 676 311 666 l 307 747 l 317 787 l 361 796 l 534 796 l 597 783 l 614 857 l 535 868 l 357 868 l 289 859 l 245 815 l 236 758 l 236 665 l 245 608 l 289 566 l 357 557 l 510 557 l 551 550 q 556 531 553 540 q 561 513 559 522 l 561 424 q 556 405 559 415 q 551 386 553 395 l 507 379 l 339 379 l 273 390 l 256 317 l 335 307 l 422 307 l 422 283 l 374 283 l 335 241 l 326 203 l 326 191 l 335 138 l 375 97 l 472 89 z "},"ŝ":{"ha":803,"x_min":-3,"x_max":806,"o":"m 297 0 q 138 35 205 0 q 34 129 71 70 q -3 258 -3 188 l -3 671 q 34 801 -3 742 q 138 894 71 859 q 297 929 205 929 l 506 929 q 665 894 597 929 q 769 801 732 859 q 806 671 806 742 l 806 258 q 769 129 806 188 q 665 35 732 70 q 506 0 597 0 l 297 0 m 335 307 l 511 307 l 581 315 l 624 358 l 633 416 l 633 519 l 624 578 l 581 621 l 510 628 l 358 628 l 317 636 l 307 676 l 307 747 l 317 787 l 361 796 l 534 796 l 597 783 l 614 857 l 535 868 l 357 868 l 289 859 l 245 815 l 236 758 l 236 665 l 245 608 l 289 566 l 357 557 l 510 557 l 551 550 l 561 513 l 561 424 l 551 386 l 507 379 l 339 379 l 273 390 l 256 317 l 335 307 m 213 877 q 182 921 192 895 q 172 975 172 947 q 189 1059 172 1008 q 231 1166 205 1109 q 280 1276 256 1223 q 334 1328 300 1310 q 425 1345 368 1345 q 515 1325 481 1345 q 573 1255 549 1305 q 622 1145 601 1197 q 655 1054 640 1099 q 671 983 671 1009 q 625 877 671 913 l 213 877 m 302 983 l 357 983 l 422 1181 l 486 983 l 541 983 l 452 1212 l 391 1212 l 302 983 z "},"ș":{"ha":803,"x_min":-3,"x_max":806,"o":"m 297 0 q 138 35 205 0 q 34 129 71 70 q -3 258 -3 188 l -3 671 q 34 801 -3 742 q 138 894 71 859 q 297 929 205 929 l 506 929 q 665 894 597 929 q 769 801 732 859 q 806 671 806 742 l 806 258 q 769 129 806 188 q 665 35 732 70 q 506 0 597 0 l 297 0 m 335 307 l 511 307 l 581 315 l 624 358 l 633 416 l 633 519 l 624 578 l 581 621 l 510 628 l 358 628 l 317 636 l 307 676 l 307 747 l 317 787 l 361 796 l 534 796 l 597 783 l 614 857 l 535 868 l 357 868 l 289 859 l 245 815 l 236 758 l 236 665 l 245 608 l 289 566 l 357 557 l 510 557 l 551 550 l 561 513 l 561 424 l 551 386 l 507 379 l 339 379 l 273 390 l 256 317 l 335 307 m 443 85 l 484 173 l 484 260 l 382 260 l 382 173 l 426 173 l 399 104 l 443 85 z "},"ß":{"ha":803,"x_min":-3,"x_max":806,"o":"m 297 0 q 138 35 205 0 q 34 129 71 70 q -3 258 -3 188 l -3 671 q 34 801 -3 742 q 138 894 71 859 q 297 929 205 929 l 506 929 q 665 894 597 929 q 769 801 732 859 q 806 671 806 742 l 806 258 q 769 129 806 188 q 665 35 732 70 q 506 0 597 0 l 297 0 m 217 307 l 289 307 l 289 751 l 298 787 l 339 796 l 486 796 l 528 789 l 538 753 l 538 688 l 528 652 l 484 643 l 458 643 l 458 571 l 515 571 l 559 561 l 570 524 l 570 424 l 559 386 l 517 379 l 374 379 l 374 307 l 521 307 l 589 315 l 633 358 l 642 416 l 642 519 l 618 587 q 589 600 611 589 q 558 614 566 611 l 578 633 l 610 693 l 610 760 l 600 817 l 555 860 l 488 868 l 338 868 l 269 859 l 227 815 l 217 758 l 217 307 z "},"ſ":{"ha":803,"x_min":-3,"x_max":806,"o":"m 297 0 q 138 35 205 0 q 34 129 71 70 q -3 258 -3 188 l -3 671 q 34 801 -3 742 q 138 894 71 859 q 297 929 205 929 l 506 929 q 665 894 597 929 q 769 801 732 859 q 806 671 806 742 l 806 258 q 769 129 806 188 q 665 35 732 70 q 506 0 597 0 l 297 0 m 318 429 q 336 438 329 429 q 343 456 343 447 q 339 466 343 463 q 304 497 323 479 q 270 544 284 515 q 256 620 256 573 q 278 703 256 666 q 339 760 301 739 q 421 781 376 781 q 503 760 466 781 q 563 703 541 739 q 586 620 586 666 q 572 544 586 573 q 538 497 557 515 q 503 466 519 479 q 498 456 498 462 q 505 438 498 447 q 524 429 513 429 q 536 433 530 429 q 606 504 576 460 q 636 623 636 549 q 607 730 636 682 q 529 807 578 778 q 421 836 480 836 q 313 807 362 836 q 235 730 264 778 q 205 623 205 682 q 235 504 205 549 q 306 433 265 460 q 318 429 312 429 m 421 352 q 437 355 427 352 q 446 367 446 359 l 446 609 q 437 621 446 618 q 421 624 429 624 q 405 621 414 624 q 396 609 396 618 l 396 367 q 405 355 396 359 q 421 352 414 352 z "},"t":{"ha":803,"x_min":-3,"x_max":806,"o":"m 297 0 q 138 35 205 0 q 34 129 71 70 q -3 258 -3 188 l -3 671 q 34 801 -3 742 q 138 894 71 859 q 297 929 205 929 l 506 929 q 665 894 597 929 q 769 801 732 859 q 806 671 806 742 l 806 258 q 769 129 806 188 q 665 35 732 70 q 506 0 597 0 l 297 0 m 403 307 l 475 307 l 475 796 l 635 796 l 635 868 l 243 868 l 243 796 l 403 796 l 403 307 z "},"ŧ":{"ha":803,"x_min":-3,"x_max":806,"o":"m 297 0 q 138 35 205 0 q 34 129 71 70 q -3 258 -3 188 l -3 671 q 34 801 -3 742 q 138 894 71 859 q 297 929 205 929 l 506 929 q 665 894 597 929 q 769 801 732 859 q 806 671 806 742 l 806 258 q 769 129 806 188 q 665 35 732 70 q 506 0 597 0 l 297 0 m 403 307 l 475 307 l 475 546 l 564 546 l 564 608 l 475 608 l 475 796 l 635 796 l 635 868 l 243 868 l 243 796 l 403 796 l 403 608 l 309 608 l 309 546 l 403 546 l 403 307 z "},"ť":{"ha":803,"x_min":-3,"x_max":806,"o":"m 297 0 q 138 35 205 0 q 34 129 71 70 q -3 258 -3 188 l -3 671 q 34 801 -3 742 q 138 894 71 859 q 297 929 205 929 l 506 929 q 665 894 597 929 q 769 801 732 859 q 806 671 806 742 l 806 258 q 769 129 806 188 q 665 35 732 70 q 506 0 597 0 l 297 0 m 403 307 l 475 307 l 475 796 l 635 796 l 635 868 l 243 868 l 243 796 l 403 796 l 403 307 m 259 904 q 221 1014 240 958 q 191 1121 203 1071 q 178 1204 178 1171 q 214 1291 178 1252 q 336 1331 249 1331 q 391 1320 370 1331 q 430 1291 412 1309 q 476 1321 451 1310 q 538 1332 501 1332 q 646 1292 613 1332 q 678 1197 678 1252 q 665 1106 678 1160 q 634 998 652 1053 q 600 904 616 943 l 259 904 m 398 982 l 459 982 l 548 1211 l 492 1211 l 429 1013 l 364 1211 l 309 1211 l 398 982 z "}}}
